<mxfile host="app.diagrams.net" modified="2024-03-30T17:04:42.462Z" agent="Mozilla/5.0 (Windows NT 10.0; Win64; x64) AppleWebKit/537.36 (KHTML, like Gecko) Chrome/123.0.0.0 Safari/537.36" etag="vI4R-8iOf5hUH_zM7SxI" version="24.2.1" type="device">
  <diagram name="Page-1" id="c4acf3e9-155e-7222-9cf6-157b1a14988f">
    <mxGraphModel dx="5483" dy="460" grid="0" gridSize="10" guides="1" tooltips="1" connect="1" arrows="1" fold="1" page="1" pageScale="1" pageWidth="850" pageHeight="1100" background="none" math="0" shadow="0">
      <root>
        <mxCell id="0" />
        <mxCell id="1" parent="0" />
        <mxCell id="MPn2nVfHNYkaycqXjNCP-135" value="" style="group" parent="1" vertex="1" connectable="0">
          <mxGeometry x="-2015" y="1517" width="880" height="111" as="geometry" />
        </mxCell>
        <mxCell id="yGegPvJX9vgVZbPvgV8C-70" value="Body" style="html=1;whiteSpace=wrap;fontStyle=1" parent="MPn2nVfHNYkaycqXjNCP-135" vertex="1">
          <mxGeometry x="285" width="170" height="30" as="geometry" />
        </mxCell>
        <mxCell id="yGegPvJX9vgVZbPvgV8C-80" value="" style="shape=partialRectangle;whiteSpace=wrap;html=1;bottom=1;right=1;left=1;top=0;fillColor=none;routingCenterX=-0.5;rotation=-180;" parent="MPn2nVfHNYkaycqXjNCP-135" vertex="1">
          <mxGeometry x="190" y="61" width="690" height="40" as="geometry" />
        </mxCell>
        <mxCell id="MPn2nVfHNYkaycqXjNCP-5" value="" style="endArrow=none;html=1;rounded=0;" parent="MPn2nVfHNYkaycqXjNCP-135" edge="1">
          <mxGeometry width="50" height="50" relative="1" as="geometry">
            <mxPoint x="639" y="111" as="sourcePoint" />
            <mxPoint x="639" y="61" as="targetPoint" />
          </mxGeometry>
        </mxCell>
        <mxCell id="yGegPvJX9vgVZbPvgV8C-82" value="" style="endArrow=block;html=1;rounded=0;endFill=0;" parent="MPn2nVfHNYkaycqXjNCP-135" edge="1">
          <mxGeometry width="50" height="50" relative="1" as="geometry">
            <mxPoint x="369.9974999999997" y="61.210000000000036" as="sourcePoint" />
            <mxPoint x="369.9974999999997" y="31.210000000000036" as="targetPoint" />
          </mxGeometry>
        </mxCell>
        <mxCell id="MPn2nVfHNYkaycqXjNCP-3" value="" style="endArrow=none;html=1;rounded=0;" parent="MPn2nVfHNYkaycqXjNCP-135" edge="1">
          <mxGeometry width="50" height="50" relative="1" as="geometry">
            <mxPoint y="111" as="sourcePoint" />
            <mxPoint y="61" as="targetPoint" />
          </mxGeometry>
        </mxCell>
        <mxCell id="MPn2nVfHNYkaycqXjNCP-4" value="" style="endArrow=none;html=1;rounded=0;" parent="MPn2nVfHNYkaycqXjNCP-135" edge="1">
          <mxGeometry width="50" height="50" relative="1" as="geometry">
            <mxPoint x="370" y="111" as="sourcePoint" />
            <mxPoint x="370" y="61" as="targetPoint" />
          </mxGeometry>
        </mxCell>
        <mxCell id="MPn2nVfHNYkaycqXjNCP-9" value="" style="endArrow=none;html=1;rounded=0;entryX=1;entryY=1;entryDx=0;entryDy=0;" parent="MPn2nVfHNYkaycqXjNCP-135" target="yGegPvJX9vgVZbPvgV8C-80" edge="1">
          <mxGeometry width="50" height="50" relative="1" as="geometry">
            <mxPoint y="61" as="sourcePoint" />
            <mxPoint x="177" y="61" as="targetPoint" />
          </mxGeometry>
        </mxCell>
        <mxCell id="MPn2nVfHNYkaycqXjNCP-23" value="&lt;p style=&quot;margin:0px;margin-top:4px;text-align:center;&quot;&gt;&lt;b&gt;GameWorld&lt;/b&gt;&lt;/p&gt;&lt;hr size=&quot;1&quot;&gt;&lt;p style=&quot;margin:0px;margin-left:4px;&quot;&gt;+ world: World&lt;/p&gt;&lt;p style=&quot;margin:0px;margin-left:4px;&quot;&gt;- camera: OrthographicCamera&lt;/p&gt;&lt;p style=&quot;margin:0px;margin-left:4px;&quot;&gt;- controller: KeyboardController&lt;/p&gt;&lt;p style=&quot;margin:0px;margin-left:4px;&quot;&gt;+ player: Player&lt;/p&gt;&lt;p style=&quot;margin:0px;margin-left:4px;&quot;&gt;+ floor: Floor&lt;/p&gt;&lt;p style=&quot;margin:0px;margin-left:4px;&quot;&gt;+ obstacles: Obstacle[0..*]&lt;/p&gt;&lt;p style=&quot;margin:0px;margin-left:4px;&quot;&gt;+ buffs: Buff[0..*]&lt;/p&gt;&lt;p style=&quot;margin:0px;margin-left:4px;&quot;&gt;+ debuffs: Debuff[0..*]&lt;/p&gt;&lt;p style=&quot;margin:0px;margin-left:4px;&quot;&gt;+ obstacleTimestamp: Long&lt;/p&gt;&lt;p style=&quot;margin:0px;margin-left:4px;&quot;&gt;+ buffDebuffTimestamp: Long&lt;/p&gt;&lt;p style=&quot;margin:0px;margin-left:4px;&quot;&gt;+ collidedObstacle: Body&lt;/p&gt;&lt;p style=&quot;margin:0px;margin-left:4px;&quot;&gt;+ isDead: Boolean&lt;/p&gt;&lt;p style=&quot;margin:0px;margin-left:4px;&quot;&gt;+ score: Integer&lt;/p&gt;&lt;hr size=&quot;1&quot;&gt;&lt;p style=&quot;margin:0px;margin-left:4px;&quot;&gt;+ &amp;lt;&amp;lt;constructor&amp;gt;&amp;gt; GameWorld(controller:&amp;nbsp;&lt;/p&gt;&lt;p style=&quot;margin:0px;margin-left:4px;&quot;&gt;KeyboardController, camera:&lt;/p&gt;&lt;p style=&quot;margin:0px;margin-left:4px;&quot;&gt;OrthographicCamera,&amp;nbsp;&lt;span style=&quot;background-color: initial;&quot;&gt;screen: GameScreen)&lt;/span&gt;&lt;/p&gt;&lt;p style=&quot;margin:0px;margin-left:4px;&quot;&gt;+ logicStep(delta: float)&lt;/p&gt;&lt;p style=&quot;margin:0px;margin-left:4px;&quot;&gt;+ spawnObstacle(velocity: float)&lt;br&gt;&lt;/p&gt;&lt;p style=&quot;margin:0px;margin-left:4px;&quot;&gt;+ trackObstacles()&lt;/p&gt;&lt;p style=&quot;margin:0px;margin-left:4px;&quot;&gt;+ spawnBuffs()&lt;/p&gt;&lt;p style=&quot;margin:0px;margin-left:4px;&quot;&gt;+ spawnDebuffs()&lt;/p&gt;&lt;p style=&quot;margin:0px;margin-left:4px;&quot;&gt;+ trackBuffsDebuffs()&lt;/p&gt;&lt;p style=&quot;margin:0px;margin-left:4px;&quot;&gt;+ removeCollidedObstacle()&lt;/p&gt;&lt;p style=&quot;margin:0px;margin-left:4px;&quot;&gt;+ isPlayerDead()&lt;/p&gt;" style="verticalAlign=top;align=left;overflow=fill;fontSize=12;fontFamily=Helvetica;html=1;rounded=0;shadow=0;comic=0;labelBackgroundColor=none;strokeWidth=1" parent="1" vertex="1">
          <mxGeometry x="-1734" y="1853" width="244" height="397" as="geometry" />
        </mxCell>
        <mxCell id="MPn2nVfHNYkaycqXjNCP-28" value="" style="endArrow=open;html=1;endSize=12;startArrow=diamondThin;startSize=14;startFill=0;edgeStyle=orthogonalEdgeStyle;rounded=0;" parent="1" edge="1">
          <mxGeometry x="0.0073" relative="1" as="geometry">
            <mxPoint x="-1597.8200000000002" y="1853" as="sourcePoint" />
            <mxPoint x="-1597.8200000000002" y="1770" as="targetPoint" />
            <mxPoint as="offset" />
          </mxGeometry>
        </mxCell>
        <mxCell id="MPn2nVfHNYkaycqXjNCP-29" value="*" style="edgeLabel;resizable=0;html=1;align=left;verticalAlign=top;" parent="MPn2nVfHNYkaycqXjNCP-28" connectable="0" vertex="1">
          <mxGeometry x="-1" relative="1" as="geometry">
            <mxPoint x="-14" y="-75" as="offset" />
          </mxGeometry>
        </mxCell>
        <mxCell id="MPn2nVfHNYkaycqXjNCP-30" value="1" style="edgeLabel;resizable=0;html=1;align=right;verticalAlign=top;" parent="MPn2nVfHNYkaycqXjNCP-28" connectable="0" vertex="1">
          <mxGeometry x="1" relative="1" as="geometry">
            <mxPoint x="-8" y="57" as="offset" />
          </mxGeometry>
        </mxCell>
        <mxCell id="MPn2nVfHNYkaycqXjNCP-37" value="&lt;p style=&quot;margin:0px;margin-top:4px;text-align:center;&quot;&gt;&lt;b&gt;BuffDebuffEffects&lt;/b&gt;&lt;/p&gt;&lt;hr size=&quot;1&quot;&gt;&lt;p style=&quot;margin:0px;margin-left:4px;&quot;&gt;- velocityIncrement: Integer&lt;br&gt;&lt;/p&gt;&lt;p style=&quot;margin:0px;margin-left:4px;&quot;&gt;+ effectTime: Long[0..*]&lt;/p&gt;&lt;p style=&quot;margin:0px;margin-left:4px;&quot;&gt;+ effectActive: Boolean[0..*]&lt;/p&gt;&lt;p style=&quot;margin:0px;margin-left:4px;&quot;&gt;+ buffActive: Boolean[0..*]&lt;/p&gt;&lt;p style=&quot;margin:0px;margin-left:4px;&quot;&gt;+ debuffActive: Boolean[0..*]&lt;/p&gt;&lt;p style=&quot;margin:0px;margin-left:4px;&quot;&gt;+ isImmune: Boolean&lt;/p&gt;&lt;hr size=&quot;1&quot;&gt;&lt;p style=&quot;margin:0px;margin-left:4px;&quot;&gt;+ checkBuffDebuffPairs()&lt;/p&gt;&lt;p style=&quot;margin:0px;margin-left:4px;&quot;&gt;- effectCancellation(effectType: int)&lt;br&gt;&lt;/p&gt;&lt;p style=&quot;margin:0px;margin-left:4px;&quot;&gt;+ changeObstacleSpeed()&lt;/p&gt;&lt;p style=&quot;margin:0px;margin-left:4px;&quot;&gt;- setSpeed(velocity: int)&lt;/p&gt;&lt;p style=&quot;margin:0px;margin-left:4px;&quot;&gt;+ changePlayerSize()&lt;/p&gt;&lt;p style=&quot;margin:0px;margin-left:4px;&quot;&gt;- setSize(scale: float)&lt;/p&gt;&lt;p style=&quot;margin:0px;margin-left:4px;&quot;&gt;+ enablePlayerImmunity()&lt;/p&gt;&lt;p style=&quot;margin:0px;margin-left:4px;&quot;&gt;+ resetImmune()&lt;/p&gt;" style="verticalAlign=top;align=left;overflow=fill;fontSize=12;fontFamily=Helvetica;html=1;rounded=0;shadow=0;comic=0;labelBackgroundColor=none;strokeWidth=1" parent="1" vertex="1">
          <mxGeometry x="-2004" y="1937" width="200" height="250" as="geometry" />
        </mxCell>
        <mxCell id="MPn2nVfHNYkaycqXjNCP-50" value="" style="group" parent="1" vertex="1" connectable="0">
          <mxGeometry x="-1804" y="1969.003" width="70" height="30.99700000000007" as="geometry" />
        </mxCell>
        <mxCell id="MPn2nVfHNYkaycqXjNCP-39" value="" style="endArrow=open;html=1;endSize=12;startArrow=diamondThin;startSize=14;startFill=1;edgeStyle=orthogonalEdgeStyle;align=left;verticalAlign=bottom;rounded=0;" parent="MPn2nVfHNYkaycqXjNCP-50" edge="1">
          <mxGeometry x="-1" y="3" relative="1" as="geometry">
            <mxPoint x="70" y="30.99700000000007" as="sourcePoint" />
            <mxPoint y="30.99700000000007" as="targetPoint" />
            <Array as="points">
              <mxPoint x="66" y="30.99700000000007" />
              <mxPoint x="66" y="30.99700000000007" />
            </Array>
            <mxPoint as="offset" />
          </mxGeometry>
        </mxCell>
        <mxCell id="MPn2nVfHNYkaycqXjNCP-41" value="1" style="edgeLabel;resizable=0;html=1;align=left;verticalAlign=top;" parent="MPn2nVfHNYkaycqXjNCP-50" connectable="0" vertex="1">
          <mxGeometry x="4.000000000000227" as="geometry" />
        </mxCell>
        <mxCell id="MPn2nVfHNYkaycqXjNCP-47" value="1" style="edgeLabel;resizable=0;html=1;align=left;verticalAlign=top;" parent="MPn2nVfHNYkaycqXjNCP-50" connectable="0" vertex="1">
          <mxGeometry x="55.00000000000023" as="geometry" />
        </mxCell>
        <mxCell id="MPn2nVfHNYkaycqXjNCP-62" value="" style="endArrow=none;html=1;rounded=0;dashed=1;" parent="1" edge="1">
          <mxGeometry width="50" height="50" relative="1" as="geometry">
            <mxPoint x="-1121" y="1979" as="sourcePoint" />
            <mxPoint x="-1121" y="1929" as="targetPoint" />
          </mxGeometry>
        </mxCell>
        <mxCell id="MPn2nVfHNYkaycqXjNCP-63" value="" style="endArrow=none;html=1;rounded=0;dashed=1;" parent="1" edge="1">
          <mxGeometry width="50" height="50" relative="1" as="geometry">
            <mxPoint x="-747" y="1979" as="sourcePoint" />
            <mxPoint x="-747" y="1929" as="targetPoint" />
          </mxGeometry>
        </mxCell>
        <mxCell id="MPn2nVfHNYkaycqXjNCP-79" value="" style="group" parent="1" vertex="1" connectable="0">
          <mxGeometry x="-1491" y="2073" width="90" height="20.5" as="geometry" />
        </mxCell>
        <mxCell id="MPn2nVfHNYkaycqXjNCP-52" value="" style="endArrow=open;html=1;endSize=12;startArrow=diamondThin;startSize=14;startFill=1;edgeStyle=orthogonalEdgeStyle;align=left;verticalAlign=bottom;rounded=0;" parent="MPn2nVfHNYkaycqXjNCP-79" edge="1">
          <mxGeometry x="-1" y="3" relative="1" as="geometry">
            <mxPoint x="90" y="20.5" as="sourcePoint" />
            <mxPoint y="20.5" as="targetPoint" />
            <Array as="points">
              <mxPoint x="84.85714285714289" y="20.5" />
              <mxPoint x="84.85714285714289" y="20.5" />
            </Array>
            <mxPoint as="offset" />
          </mxGeometry>
        </mxCell>
        <mxCell id="MPn2nVfHNYkaycqXjNCP-53" value="1" style="edgeLabel;resizable=0;html=1;align=left;verticalAlign=top;" parent="MPn2nVfHNYkaycqXjNCP-79" connectable="0" vertex="1">
          <mxGeometry x="5.529887859580867" as="geometry" />
        </mxCell>
        <mxCell id="MPn2nVfHNYkaycqXjNCP-54" value="1" style="edgeLabel;resizable=0;html=1;align=left;verticalAlign=top;" parent="MPn2nVfHNYkaycqXjNCP-79" connectable="0" vertex="1">
          <mxGeometry x="66.99913213066816" as="geometry" />
        </mxCell>
        <mxCell id="yGegPvJX9vgVZbPvgV8C-61" value="&lt;p style=&quot;margin:0px;margin-top:4px;text-align:center;&quot;&gt;&lt;b&gt;Debuff&lt;/b&gt;&lt;/p&gt;&lt;hr size=&quot;1&quot;&gt;&lt;p style=&quot;margin:0px;margin-left:4px;&quot;&gt;- debuffLoader: BodyEditorLoader&lt;br&gt;&lt;/p&gt;&lt;p style=&quot;margin:0px;margin-left:4px;&quot;&gt;- scale: Float&lt;br&gt;&lt;/p&gt;&lt;p style=&quot;margin:0px;margin-left:4px;&quot;&gt;- debuffImages: String[0..*]&lt;/p&gt;&lt;hr size=&quot;1&quot;&gt;&lt;p style=&quot;margin:0px;margin-left:4px;&quot;&gt;+ createDebuff(): Body&lt;/p&gt;&lt;p style=&quot;margin:0px;margin-left:4px;&quot;&gt;- passThrough(bod: Body)&lt;br&gt;&lt;/p&gt;" style="verticalAlign=top;align=left;overflow=fill;fontSize=12;fontFamily=Helvetica;html=1;rounded=0;shadow=0;comic=0;labelBackgroundColor=none;strokeWidth=1" parent="1" vertex="1">
          <mxGeometry x="-1296" y="1600" width="190" height="120" as="geometry" />
        </mxCell>
        <mxCell id="yGegPvJX9vgVZbPvgV8C-156" style="edgeStyle=orthogonalEdgeStyle;rounded=0;orthogonalLoop=1;jettySize=auto;html=1;exitX=0.5;exitY=1;exitDx=0;exitDy=0;" parent="1" source="yGegPvJX9vgVZbPvgV8C-58" target="yGegPvJX9vgVZbPvgV8C-58" edge="1">
          <mxGeometry relative="1" as="geometry" />
        </mxCell>
        <mxCell id="yGegPvJX9vgVZbPvgV8C-59" value="&lt;p style=&quot;margin:0px;margin-top:4px;text-align:center;&quot;&gt;&lt;b&gt;Buff&lt;/b&gt;&lt;/p&gt;&lt;hr size=&quot;1&quot;&gt;&lt;p style=&quot;margin:0px;margin-left:4px;&quot;&gt;- buffLoader: BodyEditorLoader&lt;br&gt;&lt;/p&gt;&lt;p style=&quot;margin:0px;margin-left:4px;&quot;&gt;- scale: Float&lt;/p&gt;&lt;p style=&quot;margin:0px;margin-left:4px;&quot;&gt;&lt;span style=&quot;background-color: initial;&quot;&gt;- buffImages: String[0..*]&lt;/span&gt;&lt;/p&gt;&lt;hr size=&quot;1&quot;&gt;&lt;p style=&quot;margin:0px;margin-left:4px;&quot;&gt;+ createBuff(): Body&lt;/p&gt;&lt;p style=&quot;margin:0px;margin-left:4px;&quot;&gt;- passThrough(bod: Body)&lt;/p&gt;" style="verticalAlign=top;align=left;overflow=fill;fontSize=12;fontFamily=Helvetica;html=1;rounded=0;shadow=0;comic=0;labelBackgroundColor=none;strokeWidth=1" parent="1" vertex="1">
          <mxGeometry x="-1480" y="1600" width="180" height="120" as="geometry" />
        </mxCell>
        <mxCell id="yGegPvJX9vgVZbPvgV8C-56" value="&lt;p style=&quot;margin:0px;margin-top:4px;text-align:center;&quot;&gt;&lt;b&gt;Player&lt;/b&gt;&lt;/p&gt;&lt;hr size=&quot;1&quot;&gt;&lt;p style=&quot;margin:0px;margin-left:4px;&quot;&gt;- playerLoader: BodyEditorLoader&lt;br&gt;&lt;/p&gt;&lt;p style=&quot;margin:0px;margin-left:4px;&quot;&gt;- scale: Float&lt;br&gt;&lt;/p&gt;&lt;p style=&quot;margin:0px;margin-left:4px;&quot;&gt;- playerImage: String&lt;/p&gt;&lt;hr size=&quot;1&quot;&gt;&lt;p style=&quot;margin:0px;margin-left:4px;&quot;&gt;+ createPlayer()&lt;/p&gt;" style="verticalAlign=top;align=left;overflow=fill;fontSize=12;fontFamily=Helvetica;html=1;rounded=0;shadow=0;comic=0;labelBackgroundColor=none;strokeWidth=1" parent="1" vertex="1">
          <mxGeometry x="-1900" y="1600" width="200" height="110" as="geometry" />
        </mxCell>
        <mxCell id="yGegPvJX9vgVZbPvgV8C-52" value="&lt;p style=&quot;margin:0px;margin-top:4px;text-align:center;&quot;&gt;&lt;b&gt;Floor&lt;/b&gt;&lt;/p&gt;&lt;hr size=&quot;1&quot;&gt;&lt;p style=&quot;margin: 0px 0px 0px 4px;&quot;&gt;- bodyWidthHeight: Vector2&lt;/p&gt;&lt;hr size=&quot;1&quot;&gt;&lt;p style=&quot;margin:0px;margin-left:4px;&quot;&gt;+ createFloor()&lt;/p&gt;" style="verticalAlign=top;align=left;overflow=fill;fontSize=12;fontFamily=Helvetica;html=1;rounded=0;shadow=0;comic=0;labelBackgroundColor=none;strokeWidth=1" parent="1" vertex="1">
          <mxGeometry x="-2082" y="1600" width="177" height="80" as="geometry" />
        </mxCell>
        <mxCell id="yGegPvJX9vgVZbPvgV8C-58" value="&lt;p style=&quot;margin:0px;margin-top:4px;text-align:center;&quot;&gt;&lt;b&gt;Obstacle&lt;/b&gt;&lt;/p&gt;&lt;hr size=&quot;1&quot;&gt;&lt;p style=&quot;margin:0px;margin-left:4px;&quot;&gt;- obstacleLoader: BodyEditorLoader&lt;br&gt;&lt;/p&gt;&lt;p style=&quot;margin:0px;margin-left:4px;&quot;&gt;- scale: Float&lt;br&gt;&lt;/p&gt;&lt;p style=&quot;margin:0px;margin-left:4px;&quot;&gt;- bodyWidthHeight: Vector2&lt;/p&gt;&lt;p style=&quot;margin:0px;margin-left:4px;&quot;&gt;- obstacleImages: String[0..*]&lt;/p&gt;&lt;p style=&quot;margin: 0px 0px 0px 4px;&quot;&gt;- obstacleSpawnUsed: Integer[0..*]&lt;/p&gt;&lt;p style=&quot;margin: 0px 0px 0px 4px;&quot;&gt;- obstacleSpawnUnused: Integer[0..*]&lt;/p&gt;&lt;hr size=&quot;1&quot;&gt;&lt;p style=&quot;margin:0px;margin-left:4px;&quot;&gt;+ createObstacle(velocity: float): Body&lt;/p&gt;&lt;p style=&quot;margin:0px;margin-left:4px;&quot;&gt;- passThrough(bod: Body)&lt;br&gt;&lt;/p&gt;&lt;p style=&quot;margin:0px;margin-left:4px;&quot;&gt;&lt;br&gt;&lt;/p&gt;" style="verticalAlign=top;align=left;overflow=fill;fontSize=12;fontFamily=Helvetica;html=1;rounded=0;shadow=0;comic=0;labelBackgroundColor=none;strokeWidth=1" parent="1" vertex="1">
          <mxGeometry x="-1695" y="1600" width="210" height="170" as="geometry" />
        </mxCell>
        <mxCell id="MPn2nVfHNYkaycqXjNCP-20" value="" style="endArrow=open;html=1;endSize=12;startArrow=diamondThin;startSize=14;startFill=0;edgeStyle=orthogonalEdgeStyle;rounded=0;exitX=0;exitY=0.134;exitDx=0;exitDy=0;exitPerimeter=0;" parent="1" source="MPn2nVfHNYkaycqXjNCP-23" edge="1">
          <mxGeometry x="0.0073" relative="1" as="geometry">
            <mxPoint x="-2010.26" y="1763" as="sourcePoint" />
            <mxPoint x="-2010.26" y="1680" as="targetPoint" />
            <mxPoint as="offset" />
          </mxGeometry>
        </mxCell>
        <mxCell id="MPn2nVfHNYkaycqXjNCP-21" value="1" style="edgeLabel;resizable=0;html=1;align=left;verticalAlign=top;" parent="MPn2nVfHNYkaycqXjNCP-20" connectable="0" vertex="1">
          <mxGeometry x="-1" relative="1" as="geometry">
            <mxPoint x="-18" y="-24" as="offset" />
          </mxGeometry>
        </mxCell>
        <mxCell id="MPn2nVfHNYkaycqXjNCP-22" value="1" style="edgeLabel;resizable=0;html=1;align=right;verticalAlign=top;" parent="MPn2nVfHNYkaycqXjNCP-20" connectable="0" vertex="1">
          <mxGeometry x="1" relative="1" as="geometry">
            <mxPoint x="-7" y="8" as="offset" />
          </mxGeometry>
        </mxCell>
        <mxCell id="MPn2nVfHNYkaycqXjNCP-25" value="" style="endArrow=open;html=1;endSize=12;startArrow=diamondThin;startSize=14;startFill=0;edgeStyle=orthogonalEdgeStyle;rounded=0;exitX=0.002;exitY=0.068;exitDx=0;exitDy=0;exitPerimeter=0;" parent="1" source="MPn2nVfHNYkaycqXjNCP-23" edge="1">
          <mxGeometry x="0.0073" relative="1" as="geometry">
            <mxPoint x="-1805.4" y="1795" as="sourcePoint" />
            <mxPoint x="-1805.4" y="1712" as="targetPoint" />
            <mxPoint as="offset" />
          </mxGeometry>
        </mxCell>
        <mxCell id="MPn2nVfHNYkaycqXjNCP-26" value="1" style="edgeLabel;resizable=0;html=1;align=left;verticalAlign=top;" parent="MPn2nVfHNYkaycqXjNCP-25" connectable="0" vertex="1">
          <mxGeometry x="-1" relative="1" as="geometry">
            <mxPoint x="-21" y="-28" as="offset" />
          </mxGeometry>
        </mxCell>
        <mxCell id="MPn2nVfHNYkaycqXjNCP-27" value="1" style="edgeLabel;resizable=0;html=1;align=right;verticalAlign=top;" parent="MPn2nVfHNYkaycqXjNCP-25" connectable="0" vertex="1">
          <mxGeometry x="1" relative="1" as="geometry">
            <mxPoint x="-8" y="14" as="offset" />
          </mxGeometry>
        </mxCell>
        <mxCell id="MPn2nVfHNYkaycqXjNCP-31" value="" style="endArrow=open;html=1;endSize=12;startArrow=diamondThin;startSize=14;startFill=0;edgeStyle=orthogonalEdgeStyle;rounded=0;" parent="1" edge="1">
          <mxGeometry x="0.0073" relative="1" as="geometry">
            <mxPoint x="-1489" y="1864" as="sourcePoint" />
            <mxPoint x="-1434.0000000000002" y="1720" as="targetPoint" />
            <mxPoint as="offset" />
          </mxGeometry>
        </mxCell>
        <mxCell id="MPn2nVfHNYkaycqXjNCP-32" value="*" style="edgeLabel;resizable=0;html=1;align=left;verticalAlign=top;" parent="MPn2nVfHNYkaycqXjNCP-31" connectable="0" vertex="1">
          <mxGeometry x="-1" relative="1" as="geometry">
            <mxPoint x="44" y="-132" as="offset" />
          </mxGeometry>
        </mxCell>
        <mxCell id="MPn2nVfHNYkaycqXjNCP-33" value="1" style="edgeLabel;resizable=0;html=1;align=right;verticalAlign=top;" parent="MPn2nVfHNYkaycqXjNCP-31" connectable="0" vertex="1">
          <mxGeometry x="1" relative="1" as="geometry">
            <mxPoint x="-26" y="119" as="offset" />
          </mxGeometry>
        </mxCell>
        <mxCell id="MPn2nVfHNYkaycqXjNCP-34" value="" style="endArrow=open;html=1;endSize=12;startArrow=diamondThin;startSize=14;startFill=0;edgeStyle=orthogonalEdgeStyle;rounded=0;" parent="1" edge="1">
          <mxGeometry x="0.0073" relative="1" as="geometry">
            <mxPoint x="-1490" y="1885" as="sourcePoint" />
            <mxPoint x="-1279.0000000000002" y="1720" as="targetPoint" />
            <mxPoint as="offset" />
          </mxGeometry>
        </mxCell>
        <mxCell id="MPn2nVfHNYkaycqXjNCP-35" value="*" style="edgeLabel;resizable=0;html=1;align=left;verticalAlign=top;" parent="MPn2nVfHNYkaycqXjNCP-34" connectable="0" vertex="1">
          <mxGeometry x="-1" relative="1" as="geometry">
            <mxPoint x="199" y="-156" as="offset" />
          </mxGeometry>
        </mxCell>
        <mxCell id="MPn2nVfHNYkaycqXjNCP-36" value="1" style="edgeLabel;resizable=0;html=1;align=right;verticalAlign=top;" parent="MPn2nVfHNYkaycqXjNCP-34" connectable="0" vertex="1">
          <mxGeometry x="1" relative="1" as="geometry">
            <mxPoint x="-179" y="143" as="offset" />
          </mxGeometry>
        </mxCell>
        <mxCell id="MPn2nVfHNYkaycqXjNCP-48" value="" style="group" parent="1" vertex="1" connectable="0">
          <mxGeometry x="-1081" y="1553" width="191" height="300" as="geometry" />
        </mxCell>
        <mxCell id="MPn2nVfHNYkaycqXjNCP-43" value="&lt;p style=&quot;margin:0px;margin-top:4px;text-align:center;&quot;&gt;&lt;b&gt;ScreenManager&lt;/b&gt;&lt;/p&gt;&lt;hr size=&quot;1&quot;&gt;&lt;p style=&quot;margin:0px;margin-left:4px;&quot;&gt;+ assetMan: GameAssetManager&lt;/p&gt;&lt;p style=&quot;margin: 0px 0px 0px 4px;&quot;&gt;+ viewportWidth: Integer&lt;/p&gt;&lt;p style=&quot;margin: 0px 0px 0px 4px;&quot;&gt;+ viewportHeight: Integer&lt;/p&gt;&lt;p style=&quot;margin: 0px 0px 0px 4px;&quot;&gt;- backgroundMusic: Music&lt;br&gt;&lt;/p&gt;&lt;p style=&quot;margin:0px;margin-left:4px;&quot;&gt;- menuScreen: MenuScreen&lt;/p&gt;&lt;p style=&quot;margin:0px;margin-left:4px;&quot;&gt;- gameScreen: GameScreen&lt;/p&gt;&lt;p style=&quot;margin:0px;margin-left:4px;&quot;&gt;- helpScreen: HelpScreen&lt;/p&gt;&lt;p style=&quot;margin:0px;margin-left:4px;&quot;&gt;- scoreScreen: ScoreScreen&lt;/p&gt;&lt;p style=&quot;margin:0px;margin-left:4px;&quot;&gt;- endScreen: EndScreen&lt;/p&gt;&lt;hr size=&quot;1&quot;&gt;&lt;p style=&quot;margin:0px;margin-left:4px;&quot;&gt;+ changeScreen(choice: int)&lt;/p&gt;&lt;p style=&quot;margin:0px;margin-left:4px;&quot;&gt;+ create()&lt;/p&gt;&lt;p style=&quot;margin:0px;margin-left:4px;&quot;&gt;+ dispose()&lt;/p&gt;" style="verticalAlign=top;align=left;overflow=fill;fontSize=12;fontFamily=Helvetica;html=1;rounded=0;shadow=0;comic=0;labelBackgroundColor=none;strokeWidth=1" parent="MPn2nVfHNYkaycqXjNCP-48" vertex="1">
          <mxGeometry y="80" width="191" height="220" as="geometry" />
        </mxCell>
        <mxCell id="MPn2nVfHNYkaycqXjNCP-45" value="«interface»&lt;br&gt;&lt;b&gt;ApplicationListener&lt;/b&gt;" style="html=1;whiteSpace=wrap;" parent="MPn2nVfHNYkaycqXjNCP-48" vertex="1">
          <mxGeometry x="28" width="135" height="50" as="geometry" />
        </mxCell>
        <mxCell id="MPn2nVfHNYkaycqXjNCP-46" value="" style="endArrow=block;html=1;rounded=0;endFill=0;dashed=1;" parent="MPn2nVfHNYkaycqXjNCP-48" edge="1">
          <mxGeometry width="50" height="50" relative="1" as="geometry">
            <mxPoint x="95.22999999999998" y="80" as="sourcePoint" />
            <mxPoint x="95.22999999999998" y="50" as="targetPoint" />
          </mxGeometry>
        </mxCell>
        <mxCell id="MPn2nVfHNYkaycqXjNCP-69" value="&lt;p style=&quot;margin:0px;margin-top:4px;text-align:center;&quot;&gt;&lt;b&gt;GameScreen&lt;/b&gt;&lt;/p&gt;&lt;hr size=&quot;1&quot;&gt;&lt;p style=&quot;margin:0px;margin-left:4px;&quot;&gt;&lt;span style=&quot;background-color: initial;&quot;&gt;- parent: GameWorld&lt;/span&gt;&lt;br&gt;&lt;/p&gt;&lt;p style=&quot;margin:0px;margin-left:4px;&quot;&gt;- screenMan: ScreenManager&lt;br&gt;&lt;/p&gt;&lt;p style=&quot;margin:0px;margin-left:4px;&quot;&gt;- assetMan: GameAssetManager&lt;/p&gt;&lt;p style=&quot;margin:0px;margin-left:4px;&quot;&gt;- camera: OrthographicCamera&lt;/p&gt;&lt;p style=&quot;margin:0px;margin-left:4px;&quot;&gt;- controller: KeyboardController&lt;/p&gt;&lt;p style=&quot;margin:0px;margin-left:4px;&quot;&gt;- bodyTextures: Texture[0..*]&lt;/p&gt;&lt;p style=&quot;margin:0px;margin-left:4px;&quot;&gt;- sb: SpriteBatch&lt;br&gt;&lt;/p&gt;&lt;p style=&quot;margin:0px;margin-left:4px;&quot;&gt;- font: BitmapFont&lt;/p&gt;&lt;hr size=&quot;1&quot;&gt;&lt;p style=&quot;margin:0px;margin-left:4px;&quot;&gt;+ &amp;lt;&amp;lt;constructor&amp;gt;&amp;gt; GameScreen&lt;/p&gt;&lt;p style=&quot;margin:0px;margin-left:4px;&quot;&gt;(manager:&amp;nbsp;&lt;span style=&quot;background-color: initial;&quot;&gt;ScreenManager)&lt;/span&gt;&lt;/p&gt;&lt;p style=&quot;margin:0px;margin-left:4px;&quot;&gt;+ show()&lt;/p&gt;&lt;p style=&quot;margin:0px;margin-left:4px;&quot;&gt;+ render()&lt;/p&gt;&lt;p style=&quot;margin:0px;margin-left:4px;&quot;&gt;+ dispose()&lt;/p&gt;&lt;p style=&quot;margin:0px;margin-left:4px;&quot;&gt;- loopDraw(bodies: Body[0..*],&amp;nbsp;&lt;/p&gt;&lt;p style=&quot;margin:0px;margin-left:4px;&quot;&gt;textures:&amp;nbsp;&lt;span style=&quot;background-color: initial;&quot;&gt;Texture[0..*],&amp;nbsp;&lt;/span&gt;&lt;/p&gt;&lt;p style=&quot;margin:0px;margin-left:4px;&quot;&gt;&lt;span style=&quot;background-color: initial;&quot;&gt;bodyDimensions: Vector2[0..*],&lt;/span&gt;&lt;/p&gt;&lt;p style=&quot;margin:0px;margin-left:4px;&quot;&gt;bodyScale: float)&lt;/p&gt;" style="verticalAlign=top;align=left;overflow=fill;fontSize=12;fontFamily=Helvetica;html=1;rounded=0;shadow=0;comic=0;labelBackgroundColor=none;strokeWidth=1" parent="1" vertex="1">
          <mxGeometry x="-1401" y="1949" width="189" height="301" as="geometry" />
        </mxCell>
        <mxCell id="MPn2nVfHNYkaycqXjNCP-70" value="&lt;p style=&quot;margin:0px;margin-top:4px;text-align:center;&quot;&gt;&lt;b&gt;MenuScreen&lt;/b&gt;&lt;/p&gt;&lt;hr size=&quot;1&quot;&gt;&lt;p style=&quot;margin: 0px 0px 0px 4px;&quot;&gt;- parent: GameWorld&lt;/p&gt;&lt;p style=&quot;margin: 0px 0px 0px 4px;&quot;&gt;- stage: Stage&lt;/p&gt;&lt;p style=&quot;margin: 0px 0px 0px 4px;&quot;&gt;- skin: Skin&lt;/p&gt;&lt;hr size=&quot;1&quot;&gt;&lt;p style=&quot;margin:0px;margin-left:4px;&quot;&gt;+ &amp;lt;&amp;lt;constructor&amp;gt;&amp;gt; MenuScreen&lt;/p&gt;&lt;p style=&quot;margin:0px;margin-left:4px;&quot;&gt;(manager:&amp;nbsp;&lt;span style=&quot;background-color: initial;&quot;&gt;ScreenManager)&lt;/span&gt;&lt;/p&gt;&lt;p style=&quot;margin:0px;margin-left:4px;&quot;&gt;+ show()&lt;/p&gt;&lt;p style=&quot;margin:0px;margin-left:4px;&quot;&gt;+ render()&lt;/p&gt;&lt;p style=&quot;margin:0px;margin-left:4px;&quot;&gt;+ resize()&lt;/p&gt;&lt;p style=&quot;margin:0px;margin-left:4px;&quot;&gt;+ dispose()&lt;/p&gt;" style="verticalAlign=top;align=left;overflow=fill;fontSize=12;fontFamily=Helvetica;html=1;rounded=0;shadow=0;comic=0;labelBackgroundColor=none;strokeWidth=1" parent="1" vertex="1">
          <mxGeometry x="-1207" y="1949" width="180" height="180" as="geometry" />
        </mxCell>
        <mxCell id="MPn2nVfHNYkaycqXjNCP-72" value="&lt;p style=&quot;margin:0px;margin-top:4px;text-align:center;&quot;&gt;&lt;b&gt;HelpScreen&lt;/b&gt;&lt;/p&gt;&lt;hr size=&quot;1&quot;&gt;&lt;p style=&quot;margin: 0px 0px 0px 4px;&quot;&gt;- parent: GameWorld&lt;/p&gt;&lt;p style=&quot;margin: 0px 0px 0px 4px;&quot;&gt;- stage: Stage&lt;/p&gt;&lt;p style=&quot;margin: 0px 0px 0px 4px;&quot;&gt;- skin: Skin&lt;/p&gt;&lt;hr size=&quot;1&quot;&gt;&lt;p style=&quot;margin:0px;margin-left:4px;&quot;&gt;+ &amp;lt;&amp;lt;constructor&amp;gt;&amp;gt; HelpScreen&lt;/p&gt;&lt;p style=&quot;margin:0px;margin-left:4px;&quot;&gt;(manager:&amp;nbsp;&lt;span style=&quot;background-color: initial;&quot;&gt;ScreenManager)&lt;/span&gt;&lt;/p&gt;&lt;p style=&quot;margin:0px;margin-left:4px;&quot;&gt;+ show()&lt;/p&gt;&lt;p style=&quot;margin:0px;margin-left:4px;&quot;&gt;+ render()&lt;/p&gt;&lt;p style=&quot;margin:0px;margin-left:4px;&quot;&gt;+ resize()&lt;/p&gt;&lt;p style=&quot;margin:0px;margin-left:4px;&quot;&gt;+ dispose()&lt;/p&gt;" style="verticalAlign=top;align=left;overflow=fill;fontSize=12;fontFamily=Helvetica;html=1;rounded=0;shadow=0;comic=0;labelBackgroundColor=none;strokeWidth=1" parent="1" vertex="1">
          <mxGeometry x="-836" y="1949" width="173" height="180" as="geometry" />
        </mxCell>
        <mxCell id="MPn2nVfHNYkaycqXjNCP-73" value="&lt;p style=&quot;margin:0px;margin-top:4px;text-align:center;&quot;&gt;&lt;b&gt;EndScreen&lt;/b&gt;&lt;/p&gt;&lt;hr size=&quot;1&quot;&gt;&lt;p style=&quot;margin: 0px 0px 0px 4px;&quot;&gt;- parent: GameWorld&lt;/p&gt;&lt;p style=&quot;margin: 0px 0px 0px 4px;&quot;&gt;- stage: Stage&lt;/p&gt;&lt;p style=&quot;margin: 0px 0px 0px 4px;&quot;&gt;- skin: Skin&lt;/p&gt;&lt;hr size=&quot;1&quot;&gt;&lt;p style=&quot;margin:0px;margin-left:4px;&quot;&gt;+ &amp;lt;&amp;lt;constructor&amp;gt;&amp;gt; EndScreen&lt;/p&gt;&lt;p style=&quot;margin:0px;margin-left:4px;&quot;&gt;(manager:&amp;nbsp;&lt;span style=&quot;background-color: initial;&quot;&gt;ScreenManager)&lt;/span&gt;&lt;/p&gt;&lt;p style=&quot;margin:0px;margin-left:4px;&quot;&gt;+ show()&lt;/p&gt;&lt;p style=&quot;margin:0px;margin-left:4px;&quot;&gt;+ render()&lt;/p&gt;&lt;p style=&quot;margin:0px;margin-left:4px;&quot;&gt;+ resize()&lt;/p&gt;&lt;p style=&quot;margin:0px;margin-left:4px;&quot;&gt;+ dispose()&lt;/p&gt;" style="verticalAlign=top;align=left;overflow=fill;fontSize=12;fontFamily=Helvetica;html=1;rounded=0;shadow=0;comic=0;labelBackgroundColor=none;strokeWidth=1" parent="1" vertex="1">
          <mxGeometry x="-658" y="1949" width="173" height="180" as="geometry" />
        </mxCell>
        <mxCell id="MPn2nVfHNYkaycqXjNCP-86" value="" style="endArrow=open;html=1;endSize=12;startArrow=diamondThin;startSize=14;startFill=1;edgeStyle=orthogonalEdgeStyle;align=left;verticalAlign=bottom;rounded=0;entryX=0.832;entryY=0;entryDx=0;entryDy=0;entryPerimeter=0;" parent="1" source="MPn2nVfHNYkaycqXjNCP-43" target="MPn2nVfHNYkaycqXjNCP-69" edge="1">
          <mxGeometry x="-1" y="3" relative="1" as="geometry">
            <mxPoint x="-1042" y="1813.5" as="sourcePoint" />
            <mxPoint x="-1227" y="1813.5" as="targetPoint" />
            <Array as="points">
              <mxPoint x="-1244" y="1813" />
            </Array>
            <mxPoint as="offset" />
          </mxGeometry>
        </mxCell>
        <mxCell id="MPn2nVfHNYkaycqXjNCP-87" value="1..*" style="edgeLabel;resizable=0;html=1;align=left;verticalAlign=top;" parent="1" connectable="0" vertex="1">
          <mxGeometry x="-1267.003008288639" y="1911" as="geometry" />
        </mxCell>
        <mxCell id="MPn2nVfHNYkaycqXjNCP-88" value="1" style="edgeLabel;resizable=0;html=1;align=left;verticalAlign=top;" parent="1" connectable="0" vertex="1">
          <mxGeometry x="-1123.0006728425153" y="1791" as="geometry" />
        </mxCell>
        <mxCell id="MPn2nVfHNYkaycqXjNCP-66" value="" style="shape=partialRectangle;whiteSpace=wrap;html=1;bottom=1;right=1;left=1;top=0;fillColor=none;routingCenterX=-0.5;rotation=-180;dashed=1;" parent="1" vertex="1">
          <mxGeometry x="-1221" y="1929" width="696" height="20" as="geometry" />
        </mxCell>
        <mxCell id="MPn2nVfHNYkaycqXjNCP-68" value="" style="endArrow=none;html=1;rounded=0;dashed=1;" parent="1" edge="1">
          <mxGeometry width="50" height="50" relative="1" as="geometry">
            <mxPoint x="-917.56" y="1979" as="sourcePoint" />
            <mxPoint x="-917.56" y="1929" as="targetPoint" />
          </mxGeometry>
        </mxCell>
        <mxCell id="MPn2nVfHNYkaycqXjNCP-71" value="&lt;p style=&quot;margin:0px;margin-top:4px;text-align:center;&quot;&gt;&lt;b&gt;ScoreScreen&lt;/b&gt;&lt;/p&gt;&lt;hr size=&quot;1&quot;&gt;&lt;p style=&quot;margin: 0px 0px 0px 4px;&quot;&gt;- parent: GameWorld&lt;/p&gt;&lt;p style=&quot;margin: 0px 0px 0px 4px;&quot;&gt;- stage: Stage&lt;/p&gt;&lt;p style=&quot;margin: 0px 0px 0px 4px;&quot;&gt;- skin: Skin&lt;/p&gt;&lt;hr size=&quot;1&quot;&gt;&lt;p style=&quot;margin:0px;margin-left:4px;&quot;&gt;+ &amp;lt;&amp;lt;constructor&amp;gt;&amp;gt; ScoreScreen&lt;/p&gt;&lt;p style=&quot;margin:0px;margin-left:4px;&quot;&gt;(manager:&amp;nbsp;&lt;span style=&quot;background-color: initial;&quot;&gt;ScreenManager)&lt;/span&gt;&lt;/p&gt;&lt;p style=&quot;margin:0px;margin-left:4px;&quot;&gt;+ show()&lt;/p&gt;&lt;p style=&quot;margin:0px;margin-left:4px;&quot;&gt;+ render()&lt;/p&gt;&lt;p style=&quot;margin:0px;margin-left:4px;&quot;&gt;+ resize()&lt;/p&gt;&lt;p style=&quot;margin:0px;margin-left:4px;&quot;&gt;+ dispose()&lt;/p&gt;&lt;p style=&quot;margin:0px;margin-left:4px;&quot;&gt;- displayScore()&lt;/p&gt;&lt;p style=&quot;margin:0px;margin-left:4px;&quot;&gt;- displayErrorMessage()&lt;/p&gt;" style="verticalAlign=top;align=left;overflow=fill;fontSize=12;fontFamily=Helvetica;html=1;rounded=0;shadow=0;comic=0;labelBackgroundColor=none;strokeWidth=1" parent="1" vertex="1">
          <mxGeometry x="-1022" y="1949" width="182" height="210" as="geometry" />
        </mxCell>
        <mxCell id="MPn2nVfHNYkaycqXjNCP-95" value="" style="endArrow=open;html=1;endSize=12;startArrow=diamondThin;startSize=14;startFill=1;edgeStyle=orthogonalEdgeStyle;align=left;verticalAlign=bottom;rounded=0;entryX=0.846;entryY=-0.007;entryDx=0;entryDy=0;entryPerimeter=0;" parent="1" target="MPn2nVfHNYkaycqXjNCP-70" edge="1">
          <mxGeometry x="-1" y="3" relative="1" as="geometry">
            <mxPoint x="-1054.9962487571183" y="1853" as="sourcePoint" />
            <mxPoint x="-1054.5" y="1935" as="targetPoint" />
            <Array as="points" />
            <mxPoint as="offset" />
          </mxGeometry>
        </mxCell>
        <mxCell id="MPn2nVfHNYkaycqXjNCP-97" value="" style="endArrow=open;html=1;endSize=12;startArrow=diamondThin;startSize=14;startFill=1;edgeStyle=orthogonalEdgeStyle;align=left;verticalAlign=bottom;rounded=0;entryX=0.846;entryY=-0.007;entryDx=0;entryDy=0;entryPerimeter=0;" parent="1" edge="1">
          <mxGeometry x="-1" y="3" relative="1" as="geometry">
            <mxPoint x="-964.9962487571183" y="1853" as="sourcePoint" />
            <mxPoint x="-965" y="1948" as="targetPoint" />
            <Array as="points" />
            <mxPoint as="offset" />
          </mxGeometry>
        </mxCell>
        <mxCell id="MPn2nVfHNYkaycqXjNCP-98" value="" style="group" parent="1" vertex="1" connectable="0">
          <mxGeometry x="-600" y="1849" width="94" height="80" as="geometry" />
        </mxCell>
        <mxCell id="MPn2nVfHNYkaycqXjNCP-64" value="«interface»&lt;br&gt;&lt;b&gt;Screen&lt;/b&gt;" style="html=1;whiteSpace=wrap;" parent="MPn2nVfHNYkaycqXjNCP-98" vertex="1">
          <mxGeometry width="94" height="50" as="geometry" />
        </mxCell>
        <mxCell id="MPn2nVfHNYkaycqXjNCP-67" value="" style="endArrow=block;html=1;rounded=0;endFill=0;dashed=1;" parent="MPn2nVfHNYkaycqXjNCP-98" edge="1">
          <mxGeometry width="50" height="50" relative="1" as="geometry">
            <mxPoint x="47.00083333333316" y="80" as="sourcePoint" />
            <mxPoint x="47.00083333333316" y="50" as="targetPoint" />
          </mxGeometry>
        </mxCell>
        <mxCell id="MPn2nVfHNYkaycqXjNCP-99" value="1" style="edgeLabel;resizable=0;html=1;align=left;verticalAlign=top;" parent="1" connectable="0" vertex="1">
          <mxGeometry x="-1070.5006728425153" y="1857" as="geometry" />
        </mxCell>
        <mxCell id="MPn2nVfHNYkaycqXjNCP-100" value="1" style="edgeLabel;resizable=0;html=1;align=left;verticalAlign=top;" parent="1" connectable="0" vertex="1">
          <mxGeometry x="-1070.5006728425153" y="1926" as="geometry" />
        </mxCell>
        <mxCell id="MPn2nVfHNYkaycqXjNCP-101" value="1" style="edgeLabel;resizable=0;html=1;align=left;verticalAlign=top;" parent="1" connectable="0" vertex="1">
          <mxGeometry x="-979.0006728425153" y="1857" as="geometry" />
        </mxCell>
        <mxCell id="MPn2nVfHNYkaycqXjNCP-102" value="1" style="edgeLabel;resizable=0;html=1;align=left;verticalAlign=top;" parent="1" connectable="0" vertex="1">
          <mxGeometry x="-982.0006728425153" y="1926" as="geometry" />
        </mxCell>
        <mxCell id="MPn2nVfHNYkaycqXjNCP-106" value="" style="endArrow=open;html=1;endSize=12;startArrow=diamondThin;startSize=14;startFill=1;edgeStyle=orthogonalEdgeStyle;align=left;verticalAlign=bottom;rounded=0;" parent="1" edge="1">
          <mxGeometry x="-1" y="3" relative="1" as="geometry">
            <mxPoint x="-890" y="1813" as="sourcePoint" />
            <mxPoint x="-792" y="1949" as="targetPoint" />
            <Array as="points">
              <mxPoint x="-792" y="1813" />
            </Array>
            <mxPoint as="offset" />
          </mxGeometry>
        </mxCell>
        <mxCell id="MPn2nVfHNYkaycqXjNCP-107" value="1" style="edgeLabel;resizable=0;html=1;align=left;verticalAlign=top;" parent="1" connectable="0" vertex="1">
          <mxGeometry x="-876.0014627011209" y="1811" as="geometry" />
        </mxCell>
        <mxCell id="MPn2nVfHNYkaycqXjNCP-110" value="" style="endArrow=open;html=1;endSize=12;startArrow=diamondThin;startSize=14;startFill=1;edgeStyle=orthogonalEdgeStyle;align=left;verticalAlign=bottom;rounded=0;entryX=0.144;entryY=-0.044;entryDx=0;entryDy=0;entryPerimeter=0;" parent="1" target="MPn2nVfHNYkaycqXjNCP-66" edge="1">
          <mxGeometry x="-1" y="3" relative="1" as="geometry">
            <mxPoint x="-890" y="1790.33" as="sourcePoint" />
            <mxPoint x="-697" y="1790.33" as="targetPoint" />
            <Array as="points">
              <mxPoint x="-625" y="1790" />
            </Array>
            <mxPoint as="offset" />
          </mxGeometry>
        </mxCell>
        <mxCell id="MPn2nVfHNYkaycqXjNCP-111" value="1" style="edgeLabel;resizable=0;html=1;align=left;verticalAlign=top;" parent="1" connectable="0" vertex="1">
          <mxGeometry x="-810.0014627011209" y="1926" as="geometry" />
        </mxCell>
        <mxCell id="MPn2nVfHNYkaycqXjNCP-113" value="1" style="edgeLabel;resizable=0;html=1;align=left;verticalAlign=top;" parent="1" connectable="0" vertex="1">
          <mxGeometry x="-643.0014627011209" y="1926" as="geometry" />
        </mxCell>
        <mxCell id="MPn2nVfHNYkaycqXjNCP-114" value="1" style="edgeLabel;resizable=0;html=1;align=left;verticalAlign=top;" parent="1" connectable="0" vertex="1">
          <mxGeometry x="-876.0014627011209" y="1787" as="geometry" />
        </mxCell>
        <mxCell id="MPn2nVfHNYkaycqXjNCP-121" value="" style="endArrow=open;html=1;endSize=12;startArrow=diamondThin;startSize=14;startFill=1;edgeStyle=orthogonalEdgeStyle;align=left;verticalAlign=bottom;rounded=0;" parent="1" edge="1">
          <mxGeometry x="-1" y="3" relative="1" as="geometry">
            <mxPoint x="-1212" y="2235" as="sourcePoint" />
            <mxPoint x="-1019" y="2235" as="targetPoint" />
            <Array as="points">
              <mxPoint x="-1030.0285714285715" y="2235" />
              <mxPoint x="-1030.0285714285715" y="2235" />
            </Array>
            <mxPoint as="offset" />
          </mxGeometry>
        </mxCell>
        <mxCell id="MPn2nVfHNYkaycqXjNCP-122" value="1" style="edgeLabel;resizable=0;html=1;align=left;verticalAlign=top;" parent="1" connectable="0" vertex="1">
          <mxGeometry x="-2143.001462701121" y="2027.0033333333336" as="geometry">
            <mxPoint x="504" y="292" as="offset" />
          </mxGeometry>
        </mxCell>
        <mxCell id="MPn2nVfHNYkaycqXjNCP-123" value="1" style="edgeLabel;resizable=0;html=1;align=left;verticalAlign=top;" parent="1" connectable="0" vertex="1">
          <mxGeometry x="-1637.996972208678" y="2259" as="geometry" />
        </mxCell>
        <mxCell id="MPn2nVfHNYkaycqXjNCP-124" value="&lt;p style=&quot;margin:0px;margin-top:4px;text-align:center;&quot;&gt;&lt;b&gt;ScoreManager&lt;/b&gt;&lt;/p&gt;&lt;hr size=&quot;1&quot;&gt;&lt;p style=&quot;margin:0px;margin-left:4px;&quot;&gt;- txtFilePath: string&lt;br&gt;&lt;/p&gt;&lt;hr size=&quot;1&quot;&gt;&lt;p style=&quot;margin:0px;margin-left:4px;&quot;&gt;+ writeScoreToFile()&lt;/p&gt;&lt;p style=&quot;margin:0px;margin-left:4px;&quot;&gt;+ isScoreAvailable(): boolean&lt;/p&gt;" style="verticalAlign=top;align=left;overflow=fill;fontSize=12;fontFamily=Helvetica;html=1;rounded=0;shadow=0;comic=0;labelBackgroundColor=none;strokeWidth=1" parent="1" vertex="1">
          <mxGeometry x="-1019" y="2208" width="170" height="91" as="geometry" />
        </mxCell>
        <mxCell id="MPn2nVfHNYkaycqXjNCP-126" value="1" style="edgeLabel;resizable=0;html=1;align=left;verticalAlign=top;" parent="1" connectable="0" vertex="1">
          <mxGeometry x="-1196.0006728425153" y="2211" as="geometry" />
        </mxCell>
        <mxCell id="MPn2nVfHNYkaycqXjNCP-127" value="1" style="edgeLabel;resizable=0;html=1;align=left;verticalAlign=top;" parent="1" connectable="0" vertex="1">
          <mxGeometry x="-1046.0006728425153" y="2211" as="geometry" />
        </mxCell>
        <mxCell id="MPn2nVfHNYkaycqXjNCP-131" value="provides score if available" style="text;strokeColor=none;align=center;fillColor=none;html=1;verticalAlign=middle;whiteSpace=wrap;rounded=0;" parent="1" vertex="1">
          <mxGeometry x="-950" y="2171.5" width="60" height="25" as="geometry" />
        </mxCell>
        <mxCell id="MPn2nVfHNYkaycqXjNCP-132" value="&lt;p style=&quot;margin:0px;margin-top:4px;text-align:center;&quot;&gt;&lt;b&gt;GameAssetManager&lt;/b&gt;&lt;/p&gt;&lt;hr size=&quot;1&quot;&gt;&lt;p style=&quot;margin:0px;margin-left:4px;&quot;&gt;+ manager: AssetManager&lt;/p&gt;&lt;p style=&quot;margin: 0px 0px 0px 4px;&quot;&gt;+ imageFileName: String[0..*]&lt;br&gt;&lt;/p&gt;&lt;p style=&quot;margin: 0px 0px 0px 4px;&quot;&gt;+ soundFileName: String[0..*]&lt;/p&gt;&lt;p style=&quot;margin: 0px 0px 0px 4px;&quot;&gt;+ musicFileName: String&lt;/p&gt;&lt;p style=&quot;margin: 0px 0px 0px 4px;&quot;&gt;+ skinFileName: String&lt;/p&gt;&lt;hr size=&quot;1&quot;&gt;&lt;p style=&quot;margin:0px;margin-left:4px;&quot;&gt;+ queueAddImages()&lt;/p&gt;&lt;p style=&quot;margin:0px;margin-left:4px;&quot;&gt;+ queueAddSounds()&lt;/p&gt;&lt;p style=&quot;margin:0px;margin-left:4px;&quot;&gt;+ queueAddMusic()&lt;/p&gt;&lt;p style=&quot;margin:0px;margin-left:4px;&quot;&gt;+ queueAddSkin()&lt;/p&gt;" style="verticalAlign=top;align=left;overflow=fill;fontSize=12;fontFamily=Helvetica;html=1;rounded=0;shadow=0;comic=0;labelBackgroundColor=none;strokeWidth=1" parent="1" vertex="1">
          <mxGeometry x="-1583" y="2271" width="171" height="180" as="geometry" />
        </mxCell>
        <mxCell id="MPn2nVfHNYkaycqXjNCP-133" value="&lt;p style=&quot;margin:0px;margin-top:4px;text-align:center;&quot;&gt;&lt;b&gt;SoundEffects&lt;/b&gt;&lt;/p&gt;&lt;hr size=&quot;1&quot;&gt;&lt;p style=&quot;margin:0px;margin-left:4px;&quot;&gt;- jumpSound: Sound&lt;/p&gt;&lt;p style=&quot;margin:0px;margin-left:4px;&quot;&gt;- collectSound: Sound&lt;/p&gt;&lt;hr size=&quot;1&quot;&gt;&lt;p style=&quot;margin:0px;margin-left:4px;&quot;&gt;+ playSound(choice: int)&lt;/p&gt;" style="verticalAlign=top;align=left;overflow=fill;fontSize=12;fontFamily=Helvetica;html=1;rounded=0;shadow=0;comic=0;labelBackgroundColor=none;strokeWidth=1;direction=south;" parent="1" vertex="1">
          <mxGeometry x="-1310" y="2324" width="138" height="93" as="geometry" />
        </mxCell>
        <mxCell id="MPn2nVfHNYkaycqXjNCP-141" value="&lt;p style=&quot;margin:0px;margin-top:4px;text-align:center;&quot;&gt;&lt;b&gt;CollisionListener&lt;/b&gt;&lt;/p&gt;&lt;hr size=&quot;1&quot;&gt;&lt;p style=&quot;margin:0px;margin-left:4px;&quot;&gt;+ parent: GameWorld&lt;br&gt;&lt;/p&gt;&lt;hr size=&quot;1&quot;&gt;&lt;p style=&quot;margin:0px;margin-left:4px;&quot;&gt;+ &amp;lt;&amp;lt;constructor&amp;gt;&amp;gt; CollisionListener&lt;/p&gt;&lt;p style=&quot;margin:0px;margin-left:4px;&quot;&gt;(parent:&amp;nbsp;&lt;span style=&quot;background-color: initial;&quot;&gt;GameWorld)&lt;/span&gt;&lt;/p&gt;&lt;p style=&quot;margin:0px;margin-left:4px;&quot;&gt;+ beginContact(contact: Contact)&lt;/p&gt;&lt;p style=&quot;margin:0px;margin-left:4px;&quot;&gt;- checkCollideObstacle(): boolean&lt;/p&gt;&lt;p style=&quot;margin:0px;margin-left:4px;&quot;&gt;- checkCollideFloor(): boolean&lt;/p&gt;&lt;p style=&quot;margin:0px;margin-left:4px;&quot;&gt;- checkCollideBuff(): boolean&lt;/p&gt;&lt;p style=&quot;margin:0px;margin-left:4px;&quot;&gt;- checkCollideDebuff(): boolean&lt;/p&gt;" style="verticalAlign=top;align=left;overflow=fill;fontSize=12;fontFamily=Helvetica;html=1;rounded=0;shadow=0;comic=0;labelBackgroundColor=none;strokeWidth=1" parent="1" vertex="1">
          <mxGeometry x="-1842" y="2351" width="198" height="165" as="geometry" />
        </mxCell>
        <mxCell id="MPn2nVfHNYkaycqXjNCP-142" value="" style="group" parent="1" vertex="1" connectable="0">
          <mxGeometry x="-1802" y="2271" width="130" height="80" as="geometry" />
        </mxCell>
        <mxCell id="MPn2nVfHNYkaycqXjNCP-143" value="«interface»&lt;br&gt;&lt;b&gt;ContactListener&lt;/b&gt;" style="html=1;whiteSpace=wrap;" parent="MPn2nVfHNYkaycqXjNCP-142" vertex="1">
          <mxGeometry x="-24.375" width="154.375" height="50" as="geometry" />
        </mxCell>
        <mxCell id="MPn2nVfHNYkaycqXjNCP-144" value="" style="endArrow=block;html=1;rounded=0;endFill=0;dashed=1;" parent="MPn2nVfHNYkaycqXjNCP-142" edge="1">
          <mxGeometry width="50" height="50" relative="1" as="geometry">
            <mxPoint x="52.64999999999996" y="80" as="sourcePoint" />
            <mxPoint x="52.64999999999996" y="50" as="targetPoint" />
          </mxGeometry>
        </mxCell>
        <mxCell id="MPn2nVfHNYkaycqXjNCP-146" value="" style="endArrow=open;endFill=1;endSize=12;html=1;rounded=0;" parent="1" edge="1">
          <mxGeometry width="160" relative="1" as="geometry">
            <mxPoint x="-961" y="2208" as="sourcePoint" />
            <mxPoint x="-961" y="2159" as="targetPoint" />
          </mxGeometry>
        </mxCell>
        <mxCell id="MPn2nVfHNYkaycqXjNCP-152" value="loads&lt;div&gt;sounds&lt;/div&gt;" style="text;strokeColor=none;align=center;fillColor=none;html=1;verticalAlign=middle;whiteSpace=wrap;rounded=0;" parent="1" vertex="1">
          <mxGeometry x="-1390" y="2317" width="60" height="25" as="geometry" />
        </mxCell>
        <mxCell id="MPn2nVfHNYkaycqXjNCP-156" value="" style="endArrow=open;html=1;endSize=12;startArrow=diamondThin;startSize=14;startFill=1;edgeStyle=orthogonalEdgeStyle;align=left;verticalAlign=bottom;rounded=0;entryX=0.95;entryY=-0.022;entryDx=0;entryDy=0;entryPerimeter=0;" parent="1" edge="1">
          <mxGeometry x="-1" y="3" relative="1" as="geometry">
            <mxPoint x="-1083" y="1773" as="sourcePoint" />
            <mxPoint x="-1422.55" y="2271.5799999999995" as="targetPoint" />
            <Array as="points">
              <mxPoint x="-1423" y="1773.54" />
              <mxPoint x="-1423" y="2268.54" />
              <mxPoint x="-1423" y="2268.54" />
            </Array>
            <mxPoint as="offset" />
          </mxGeometry>
        </mxCell>
        <mxCell id="MPn2nVfHNYkaycqXjNCP-157" value="1" style="edgeLabel;resizable=0;html=1;align=right;verticalAlign=top;" parent="1" connectable="0" vertex="1">
          <mxGeometry x="-1116.9999891472671" y="1751.0029790751273" as="geometry" />
        </mxCell>
        <mxCell id="MPn2nVfHNYkaycqXjNCP-158" value="1" style="edgeLabel;resizable=0;html=1;align=left;verticalAlign=top;" parent="1" connectable="0" vertex="1">
          <mxGeometry x="-1439.0006728425153" y="2237" as="geometry" />
        </mxCell>
        <mxCell id="MPn2nVfHNYkaycqXjNCP-159" value="" style="endArrow=open;endFill=1;endSize=12;html=1;rounded=0;" parent="1" edge="1">
          <mxGeometry width="160" relative="1" as="geometry">
            <mxPoint x="-1412" y="2346" as="sourcePoint" />
            <mxPoint x="-1310" y="2346" as="targetPoint" />
          </mxGeometry>
        </mxCell>
        <mxCell id="MPn2nVfHNYkaycqXjNCP-164" value="provides sound effects" style="text;strokeColor=none;align=center;fillColor=none;html=1;verticalAlign=middle;whiteSpace=wrap;rounded=0;" parent="1" vertex="1">
          <mxGeometry x="-1401" y="2438" width="171" height="25" as="geometry" />
        </mxCell>
        <mxCell id="MPn2nVfHNYkaycqXjNCP-165" value="" style="group;rotation=-90;" parent="1" vertex="1" connectable="0">
          <mxGeometry x="-1716" y="2294.5" width="111" height="22.5" as="geometry" />
        </mxCell>
        <mxCell id="MPn2nVfHNYkaycqXjNCP-166" value="" style="endArrow=open;html=1;endSize=12;startArrow=diamondThin;startSize=14;startFill=1;edgeStyle=orthogonalEdgeStyle;align=left;verticalAlign=bottom;rounded=0;entryX=0.972;entryY=0.005;entryDx=0;entryDy=0;entryPerimeter=0;" parent="MPn2nVfHNYkaycqXjNCP-165" target="MPn2nVfHNYkaycqXjNCP-141" edge="1">
          <mxGeometry x="-1" y="3" relative="1" as="geometry">
            <mxPoint x="67" y="-44" as="sourcePoint" />
            <mxPoint x="67" y="67" as="targetPoint" />
            <Array as="points">
              <mxPoint x="67" y="-38" />
              <mxPoint x="67" y="-38" />
            </Array>
            <mxPoint as="offset" />
          </mxGeometry>
        </mxCell>
        <mxCell id="MPn2nVfHNYkaycqXjNCP-167" value="&lt;p style=&quot;margin:0px;margin-top:4px;text-align:center;&quot;&gt;&lt;b&gt;KeyboardController&lt;/b&gt;&lt;/p&gt;&lt;hr size=&quot;1&quot;&gt;&lt;p style=&quot;margin:0px;margin-left:4px;&quot;&gt;+ keyPressed: boolean&lt;br&gt;&lt;/p&gt;&lt;hr size=&quot;1&quot;&gt;&lt;p style=&quot;margin:0px;margin-left:4px;&quot;&gt;+ keyDown(keycode: int): boolean&lt;/p&gt;&lt;p style=&quot;margin:0px;margin-left:4px;&quot;&gt;+&amp;nbsp;&lt;span style=&quot;background-color: initial;&quot;&gt;keyUp(keycode: int): boolean&lt;/span&gt;&lt;/p&gt;" style="verticalAlign=top;align=left;overflow=fill;fontSize=12;fontFamily=Helvetica;html=1;rounded=0;shadow=0;comic=0;labelBackgroundColor=none;strokeWidth=1" parent="1" vertex="1">
          <mxGeometry x="-2051" y="2351" width="192" height="100" as="geometry" />
        </mxCell>
        <mxCell id="MPn2nVfHNYkaycqXjNCP-168" value="" style="group" parent="1" vertex="1" connectable="0">
          <mxGeometry x="-2015" y="2271" width="160" height="80" as="geometry" />
        </mxCell>
        <mxCell id="MPn2nVfHNYkaycqXjNCP-169" value="«interface»&lt;br&gt;&lt;b&gt;InputProcessor&lt;/b&gt;" style="html=1;whiteSpace=wrap;" parent="MPn2nVfHNYkaycqXjNCP-168" vertex="1">
          <mxGeometry width="117" height="50" as="geometry" />
        </mxCell>
        <mxCell id="MPn2nVfHNYkaycqXjNCP-170" value="" style="endArrow=block;html=1;rounded=0;endFill=0;dashed=1;" parent="MPn2nVfHNYkaycqXjNCP-168" edge="1">
          <mxGeometry width="50" height="50" relative="1" as="geometry">
            <mxPoint x="54.799999999999955" y="80" as="sourcePoint" />
            <mxPoint x="54.799999999999955" y="50" as="targetPoint" />
          </mxGeometry>
        </mxCell>
        <mxCell id="MPn2nVfHNYkaycqXjNCP-171" value="" style="endArrow=open;html=1;endSize=12;startArrow=diamondThin;startSize=14;startFill=1;edgeStyle=orthogonalEdgeStyle;align=left;verticalAlign=bottom;rounded=0;entryX=0.905;entryY=0.005;entryDx=0;entryDy=0;entryPerimeter=0;" parent="1" target="MPn2nVfHNYkaycqXjNCP-167" edge="1">
          <mxGeometry x="-1" y="3" relative="1" as="geometry">
            <mxPoint x="-1734" y="2239" as="sourcePoint" />
            <mxPoint x="-1877" y="2354" as="targetPoint" />
            <Array as="points">
              <mxPoint x="-1877" y="2239" />
            </Array>
            <mxPoint as="offset" />
          </mxGeometry>
        </mxCell>
        <mxCell id="MPn2nVfHNYkaycqXjNCP-172" value="1" style="edgeLabel;resizable=0;html=1;align=left;verticalAlign=top;" parent="1" connectable="0" vertex="1">
          <mxGeometry x="-1764.996972208678" y="2215" as="geometry" />
        </mxCell>
        <mxCell id="MPn2nVfHNYkaycqXjNCP-173" value="1" style="edgeLabel;resizable=0;html=1;align=left;verticalAlign=top;" parent="1" connectable="0" vertex="1">
          <mxGeometry x="-1873.996972208678" y="2306.75" as="geometry" />
        </mxCell>
        <mxCell id="MPn2nVfHNYkaycqXjNCP-174" value="&lt;p style=&quot;margin:0px;margin-top:4px;text-align:center;&quot;&gt;&lt;b&gt;JumpController&lt;/b&gt;&lt;/p&gt;&lt;hr size=&quot;1&quot;&gt;&lt;p style=&quot;margin:0px;margin-left:4px;&quot;&gt;- canJump: Boolean&lt;br&gt;&lt;/p&gt;&lt;p style=&quot;margin:0px;margin-left:4px;&quot;&gt;- jumped: Boolean&lt;/p&gt;&lt;p style=&quot;margin:0px;margin-left:4px;&quot;&gt;- jumpCount: Integer&lt;/p&gt;&lt;hr size=&quot;1&quot;&gt;&lt;p style=&quot;margin:0px;margin-left:4px;&quot;&gt;+ resetJump()&lt;/p&gt;&lt;p style=&quot;margin:0px;margin-left:4px;&quot;&gt;- tweakJump(jumpHeight: int)&lt;/p&gt;&lt;p style=&quot;margin:0px;margin-left:4px;&quot;&gt;+ jumpLogic(controller:&lt;/p&gt;&lt;p style=&quot;margin:0px;margin-left:4px;&quot;&gt;KeyboardController)&lt;/p&gt;&lt;p style=&quot;margin:0px;margin-left:4px;&quot;&gt;&lt;br&gt;&lt;/p&gt;" style="verticalAlign=top;align=left;overflow=fill;fontSize=12;fontFamily=Helvetica;html=1;rounded=0;shadow=0;comic=0;labelBackgroundColor=none;strokeWidth=1" parent="1" vertex="1">
          <mxGeometry x="-2204" y="2178.5" width="166" height="150" as="geometry" />
        </mxCell>
        <mxCell id="MPn2nVfHNYkaycqXjNCP-175" value="" style="endArrow=open;html=1;endSize=12;startArrow=diamondThin;startSize=14;startFill=1;edgeStyle=orthogonalEdgeStyle;align=left;verticalAlign=bottom;rounded=0;entryX=0.999;entryY=0.201;entryDx=0;entryDy=0;entryPerimeter=0;" parent="1" target="MPn2nVfHNYkaycqXjNCP-174" edge="1">
          <mxGeometry x="-1" y="3" relative="1" as="geometry">
            <mxPoint x="-1734" y="2208" as="sourcePoint" />
            <mxPoint x="-1927" y="2208" as="targetPoint" />
            <Array as="points">
              <mxPoint x="-1745" y="2208" />
            </Array>
            <mxPoint as="offset" />
          </mxGeometry>
        </mxCell>
        <mxCell id="MPn2nVfHNYkaycqXjNCP-176" value="1" style="edgeLabel;resizable=0;html=1;align=left;verticalAlign=top;" parent="1" connectable="0" vertex="1">
          <mxGeometry x="-1764.996972208678" y="2187" as="geometry" />
        </mxCell>
        <mxCell id="MPn2nVfHNYkaycqXjNCP-177" value="1" style="edgeLabel;resizable=0;html=1;align=left;verticalAlign=top;" parent="1" connectable="0" vertex="1">
          <mxGeometry x="-2018.996972208678" y="2187" as="geometry" />
        </mxCell>
        <mxCell id="MPn2nVfHNYkaycqXjNCP-178" value="" style="endArrow=open;endFill=1;endSize=12;html=1;rounded=0;entryX=0;entryY=0.5;entryDx=0;entryDy=0;" parent="1" target="MPn2nVfHNYkaycqXjNCP-167" edge="1">
          <mxGeometry width="160" relative="1" as="geometry">
            <mxPoint x="-2121.71" y="2328.5" as="sourcePoint" />
            <mxPoint x="-2121.71" y="2455.5" as="targetPoint" />
          </mxGeometry>
        </mxCell>
        <mxCell id="MPn2nVfHNYkaycqXjNCP-179" value="uses" style="text;strokeColor=none;align=center;fillColor=none;html=1;verticalAlign=middle;whiteSpace=wrap;rounded=0;" parent="1" vertex="1">
          <mxGeometry x="-2135" y="2358" width="36" height="25" as="geometry" />
        </mxCell>
        <mxCell id="MPn2nVfHNYkaycqXjNCP-180" value="&lt;p style=&quot;margin:0px;margin-top:4px;text-align:center;&quot;&gt;&lt;b&gt;BodyIdentifier&lt;/b&gt;&lt;/p&gt;&lt;hr size=&quot;1&quot;&gt;&lt;p style=&quot;margin:0px;margin-left:4px;&quot;&gt;&lt;br&gt;&lt;/p&gt;&lt;hr size=&quot;1&quot;&gt;&lt;p style=&quot;margin:0px;margin-left:4px;&quot;&gt;+ getBodyObjectType(bod: Body):&amp;nbsp;&lt;/p&gt;&lt;p style=&quot;margin:0px;margin-left:4px;&quot;&gt;String&lt;/p&gt;&lt;p style=&quot;margin:0px;margin-left:4px;&quot;&gt;+ setBodyObjectType(bod: Body,&amp;nbsp;&lt;/p&gt;&lt;p style=&quot;margin:0px;margin-left:4px;&quot;&gt;bodyObjectType: String)&lt;/p&gt;&lt;p style=&quot;margin:0px;margin-left:4px;&quot;&gt;+ getTextureID(bod: Body): Integer&lt;/p&gt;" style="verticalAlign=top;align=left;overflow=fill;fontSize=12;fontFamily=Helvetica;html=1;rounded=0;shadow=0;comic=0;labelBackgroundColor=none;strokeWidth=1" parent="1" vertex="1">
          <mxGeometry x="-1146" y="2373" width="200" height="140" as="geometry" />
        </mxCell>
        <mxCell id="MPn2nVfHNYkaycqXjNCP-181" value="&lt;p style=&quot;margin:0px;margin-top:4px;text-align:center;&quot;&gt;&lt;b&gt;BodyData&lt;/b&gt;&lt;/p&gt;&lt;hr size=&quot;1&quot;&gt;&lt;p style=&quot;margin:0px;margin-left:4px;&quot;&gt;+ bodyObjectType: String&lt;br&gt;+ textureID: Integer&lt;/p&gt;&lt;hr size=&quot;1&quot;&gt;&lt;p style=&quot;margin:0px;margin-left:4px;&quot;&gt;+ &amp;lt;&amp;lt;constructor&amp;gt;&amp;gt; BodyData&lt;/p&gt;&lt;p style=&quot;margin:0px;margin-left:4px;&quot;&gt;(bodyObjType:&amp;nbsp;&lt;span style=&quot;background-color: initial;&quot;&gt;String, texID: int)&lt;/span&gt;&lt;/p&gt;" style="verticalAlign=top;align=left;overflow=fill;fontSize=12;fontFamily=Helvetica;html=1;rounded=0;shadow=0;comic=0;labelBackgroundColor=none;strokeWidth=1" parent="1" vertex="1">
          <mxGeometry x="-856" y="2390.5" width="180" height="120" as="geometry" />
        </mxCell>
        <mxCell id="MPn2nVfHNYkaycqXjNCP-188" value="" style="group" parent="1" vertex="1" connectable="0">
          <mxGeometry x="-946" y="2467" width="90" height="20.5" as="geometry" />
        </mxCell>
        <mxCell id="MPn2nVfHNYkaycqXjNCP-189" value="" style="endArrow=open;html=1;endSize=12;startArrow=diamondThin;startSize=14;startFill=1;edgeStyle=orthogonalEdgeStyle;align=left;verticalAlign=bottom;rounded=0;" parent="MPn2nVfHNYkaycqXjNCP-188" edge="1">
          <mxGeometry x="-1" y="3" relative="1" as="geometry">
            <mxPoint x="90" y="20.5" as="sourcePoint" />
            <mxPoint y="20.5" as="targetPoint" />
            <Array as="points">
              <mxPoint x="84.85714285714289" y="20.5" />
              <mxPoint x="84.85714285714289" y="20.5" />
            </Array>
            <mxPoint as="offset" />
          </mxGeometry>
        </mxCell>
        <mxCell id="MPn2nVfHNYkaycqXjNCP-190" value="1" style="edgeLabel;resizable=0;html=1;align=left;verticalAlign=top;" parent="MPn2nVfHNYkaycqXjNCP-188" connectable="0" vertex="1">
          <mxGeometry x="5.529887859580867" as="geometry" />
        </mxCell>
        <mxCell id="MPn2nVfHNYkaycqXjNCP-191" value="1" style="edgeLabel;resizable=0;html=1;align=left;verticalAlign=top;" parent="MPn2nVfHNYkaycqXjNCP-188" connectable="0" vertex="1">
          <mxGeometry x="66.99913213066816" as="geometry" />
        </mxCell>
        <mxCell id="MPn2nVfHNYkaycqXjNCP-160" value="" style="endArrow=open;endFill=1;endSize=12;html=1;rounded=0;" parent="1" edge="1">
          <mxGeometry width="160" relative="1" as="geometry">
            <mxPoint x="-1229" y="2463" as="sourcePoint" />
            <mxPoint x="-1643" y="2463" as="targetPoint" />
          </mxGeometry>
        </mxCell>
        <mxCell id="MPn2nVfHNYkaycqXjNCP-162" value="" style="endArrow=none;html=1;rounded=0;" parent="1" edge="1">
          <mxGeometry width="50" height="50" relative="1" as="geometry">
            <mxPoint x="-1229" y="2464" as="sourcePoint" />
            <mxPoint x="-1229" y="2417" as="targetPoint" />
          </mxGeometry>
        </mxCell>
        <mxCell id="MPn2nVfHNYkaycqXjNCP-193" value="" style="endArrow=open;endFill=1;endSize=12;html=1;rounded=0;exitX=0;exitY=0.857;exitDx=0;exitDy=0;exitPerimeter=0;" parent="1" source="MPn2nVfHNYkaycqXjNCP-180" edge="1">
          <mxGeometry width="160" relative="1" as="geometry">
            <mxPoint x="-1230" y="2493" as="sourcePoint" />
            <mxPoint x="-1644" y="2493" as="targetPoint" />
          </mxGeometry>
        </mxCell>
        <mxCell id="MPn2nVfHNYkaycqXjNCP-194" value="provides data of collided body" style="text;strokeColor=none;align=center;fillColor=none;html=1;verticalAlign=middle;whiteSpace=wrap;rounded=0;" parent="1" vertex="1">
          <mxGeometry x="-1392" y="2470.5" width="171" height="25" as="geometry" />
        </mxCell>
        <mxCell id="MPn2nVfHNYkaycqXjNCP-195" value="" style="endArrow=none;html=1;rounded=0;" parent="1" edge="1">
          <mxGeometry width="50" height="50" relative="1" as="geometry">
            <mxPoint x="-1500" y="2539" as="sourcePoint" />
            <mxPoint x="-1500" y="2451" as="targetPoint" />
          </mxGeometry>
        </mxCell>
        <mxCell id="MPn2nVfHNYkaycqXjNCP-196" value="" style="endArrow=none;html=1;rounded=0;" parent="1" edge="1">
          <mxGeometry width="50" height="50" relative="1" as="geometry">
            <mxPoint x="-2235" y="2539" as="sourcePoint" />
            <mxPoint x="-1500" y="2539" as="targetPoint" />
          </mxGeometry>
        </mxCell>
        <mxCell id="MPn2nVfHNYkaycqXjNCP-197" value="" style="endArrow=none;html=1;rounded=0;" parent="1" edge="1">
          <mxGeometry width="50" height="50" relative="1" as="geometry">
            <mxPoint x="-2235" y="2539" as="sourcePoint" />
            <mxPoint x="-2232" y="1486" as="targetPoint" />
          </mxGeometry>
        </mxCell>
        <mxCell id="MPn2nVfHNYkaycqXjNCP-199" value="loads images" style="text;strokeColor=none;align=center;fillColor=none;html=1;verticalAlign=middle;whiteSpace=wrap;rounded=0;" parent="1" vertex="1">
          <mxGeometry x="-2220" y="1488" width="100" height="25" as="geometry" />
        </mxCell>
        <mxCell id="MPn2nVfHNYkaycqXjNCP-217" value="" style="endArrow=none;html=1;rounded=0;" parent="1" edge="1">
          <mxGeometry width="50" height="50" relative="1" as="geometry">
            <mxPoint x="-2232" y="1486" as="sourcePoint" />
            <mxPoint x="-1230" y="1486" as="targetPoint" />
          </mxGeometry>
        </mxCell>
        <mxCell id="MPn2nVfHNYkaycqXjNCP-218" value="" style="endArrow=open;endFill=1;endSize=12;html=1;rounded=0;" parent="1" edge="1">
          <mxGeometry width="160" relative="1" as="geometry">
            <mxPoint x="-1875.0500000000002" y="1486" as="sourcePoint" />
            <mxPoint x="-1875" y="1600" as="targetPoint" />
          </mxGeometry>
        </mxCell>
        <mxCell id="MPn2nVfHNYkaycqXjNCP-219" value="" style="endArrow=open;endFill=1;endSize=12;html=1;rounded=0;" parent="1" edge="1">
          <mxGeometry width="160" relative="1" as="geometry">
            <mxPoint x="-1529.0000000000002" y="1486" as="sourcePoint" />
            <mxPoint x="-1528.95" y="1600" as="targetPoint" />
          </mxGeometry>
        </mxCell>
        <mxCell id="MPn2nVfHNYkaycqXjNCP-220" value="" style="endArrow=open;endFill=1;endSize=12;html=1;rounded=0;" parent="1" edge="1">
          <mxGeometry width="160" relative="1" as="geometry">
            <mxPoint x="-1325.0000000000002" y="1486" as="sourcePoint" />
            <mxPoint x="-1324.95" y="1600" as="targetPoint" />
          </mxGeometry>
        </mxCell>
        <mxCell id="MPn2nVfHNYkaycqXjNCP-221" value="" style="endArrow=open;endFill=1;endSize=12;html=1;rounded=0;" parent="1" edge="1">
          <mxGeometry width="160" relative="1" as="geometry">
            <mxPoint x="-1230.0000000000002" y="1486" as="sourcePoint" />
            <mxPoint x="-1229.95" y="1600" as="targetPoint" />
          </mxGeometry>
        </mxCell>
        <mxCell id="auM15TJbj3UJ2ScAe3zU-9" value="&lt;p style=&quot;margin:0px;margin-top:4px;text-align:center;&quot;&gt;&lt;b&gt;GameWorld&lt;/b&gt;&lt;/p&gt;&lt;hr size=&quot;1&quot;&gt;&lt;p style=&quot;margin:0px;margin-left:4px;&quot;&gt;+ world: World&lt;/p&gt;&lt;p style=&quot;margin:0px;margin-left:4px;&quot;&gt;- camera: OrthographicCamera&lt;/p&gt;&lt;p style=&quot;margin:0px;margin-left:4px;&quot;&gt;- controller: KeyboardController&lt;/p&gt;&lt;p style=&quot;margin:0px;margin-left:4px;&quot;&gt;+ player: Player&lt;/p&gt;&lt;p style=&quot;margin:0px;margin-left:4px;&quot;&gt;+ floor: Floor&lt;/p&gt;&lt;p style=&quot;margin:0px;margin-left:4px;&quot;&gt;+ obstacles: Obstacle[0..*]&lt;/p&gt;&lt;p style=&quot;margin:0px;margin-left:4px;&quot;&gt;+ buffs: Buff[0..*]&lt;/p&gt;&lt;p style=&quot;margin:0px;margin-left:4px;&quot;&gt;+ debuffs: Debuff[0..*]&lt;/p&gt;&lt;p style=&quot;margin:0px;margin-left:4px;&quot;&gt;+ obstacleTimestamp: Long&lt;/p&gt;&lt;p style=&quot;margin:0px;margin-left:4px;&quot;&gt;+ buffDebuffTimestamp: Long&lt;/p&gt;&lt;p style=&quot;margin:0px;margin-left:4px;&quot;&gt;+ collidedObstacle: Body&lt;/p&gt;&lt;p style=&quot;margin:0px;margin-left:4px;&quot;&gt;+ isDead: Boolean&lt;/p&gt;&lt;p style=&quot;margin:0px;margin-left:4px;&quot;&gt;+ score: Integer&lt;/p&gt;&lt;hr size=&quot;1&quot;&gt;&lt;p style=&quot;margin:0px;margin-left:4px;&quot;&gt;+ &amp;lt;&amp;lt;constructor&amp;gt;&amp;gt; GameWorld(controller:&amp;nbsp;&lt;/p&gt;&lt;p style=&quot;margin:0px;margin-left:4px;&quot;&gt;KeyboardController, camera:&lt;/p&gt;&lt;p style=&quot;margin:0px;margin-left:4px;&quot;&gt;OrthographicCamera,&amp;nbsp;&lt;span style=&quot;background-color: initial;&quot;&gt;screen: GameScreen)&lt;/span&gt;&lt;/p&gt;&lt;p style=&quot;margin:0px;margin-left:4px;&quot;&gt;+ logicStep(delta: float)&lt;/p&gt;&lt;p style=&quot;margin:0px;margin-left:4px;&quot;&gt;+ spawnObstacle(velocity: float)&lt;br&gt;&lt;/p&gt;&lt;p style=&quot;margin:0px;margin-left:4px;&quot;&gt;+ trackObstacles()&lt;/p&gt;&lt;p style=&quot;margin:0px;margin-left:4px;&quot;&gt;+ spawnBuffs()&lt;/p&gt;&lt;p style=&quot;margin:0px;margin-left:4px;&quot;&gt;+ spawnDebuffs()&lt;/p&gt;&lt;p style=&quot;margin:0px;margin-left:4px;&quot;&gt;+ trackBuffsDebuffs()&lt;/p&gt;&lt;p style=&quot;margin:0px;margin-left:4px;&quot;&gt;+ removeCollidedObstacle()&lt;/p&gt;&lt;p style=&quot;margin:0px;margin-left:4px;&quot;&gt;+ isPlayerDead()&lt;/p&gt;" style="verticalAlign=top;align=left;overflow=fill;fontSize=12;fontFamily=Helvetica;html=1;rounded=0;shadow=0;comic=0;labelBackgroundColor=none;strokeWidth=1" vertex="1" parent="1">
          <mxGeometry x="792" y="1875" width="244" height="397" as="geometry" />
        </mxCell>
        <mxCell id="auM15TJbj3UJ2ScAe3zU-10" value="" style="endArrow=open;html=1;endSize=12;startArrow=diamondThin;startSize=14;startFill=0;edgeStyle=orthogonalEdgeStyle;rounded=0;" edge="1" parent="1">
          <mxGeometry x="0.0073" relative="1" as="geometry">
            <mxPoint x="928.1799999999998" y="1875" as="sourcePoint" />
            <mxPoint x="928.1799999999998" y="1792" as="targetPoint" />
            <mxPoint as="offset" />
          </mxGeometry>
        </mxCell>
        <mxCell id="auM15TJbj3UJ2ScAe3zU-13" value="&lt;p style=&quot;margin:0px;margin-top:4px;text-align:center;&quot;&gt;&lt;b&gt;BuffDebuffEffects&lt;/b&gt;&lt;/p&gt;&lt;hr size=&quot;1&quot;&gt;&lt;p style=&quot;margin:0px;margin-left:4px;&quot;&gt;- velocityIncrement: Integer&lt;br&gt;&lt;/p&gt;&lt;p style=&quot;margin:0px;margin-left:4px;&quot;&gt;+ effectTime: Long[0..*]&lt;/p&gt;&lt;p style=&quot;margin:0px;margin-left:4px;&quot;&gt;+ effectActive: Boolean[0..*]&lt;/p&gt;&lt;p style=&quot;margin:0px;margin-left:4px;&quot;&gt;+ buffActive: Boolean[0..*]&lt;/p&gt;&lt;p style=&quot;margin:0px;margin-left:4px;&quot;&gt;+ debuffActive: Boolean[0..*]&lt;/p&gt;&lt;p style=&quot;margin:0px;margin-left:4px;&quot;&gt;+ isImmune: Boolean&lt;/p&gt;&lt;hr size=&quot;1&quot;&gt;&lt;p style=&quot;margin:0px;margin-left:4px;&quot;&gt;+ checkBuffDebuffPairs()&lt;/p&gt;&lt;p style=&quot;margin:0px;margin-left:4px;&quot;&gt;- effectCancellation(effectType: int)&lt;br&gt;&lt;/p&gt;&lt;p style=&quot;margin:0px;margin-left:4px;&quot;&gt;+ changeObstacleSpeed()&lt;/p&gt;&lt;p style=&quot;margin:0px;margin-left:4px;&quot;&gt;- setSpeed(velocity: int)&lt;/p&gt;&lt;p style=&quot;margin:0px;margin-left:4px;&quot;&gt;+ changePlayerSize()&lt;/p&gt;&lt;p style=&quot;margin:0px;margin-left:4px;&quot;&gt;- setSize(scale: float)&lt;/p&gt;&lt;p style=&quot;margin:0px;margin-left:4px;&quot;&gt;+ enablePlayerImmunity()&lt;/p&gt;&lt;p style=&quot;margin:0px;margin-left:4px;&quot;&gt;+ resetImmune()&lt;/p&gt;" style="verticalAlign=top;align=left;overflow=fill;fontSize=12;fontFamily=Helvetica;html=1;rounded=0;shadow=0;comic=0;labelBackgroundColor=none;strokeWidth=1" vertex="1" parent="1">
          <mxGeometry x="522" y="1959" width="200" height="250" as="geometry" />
        </mxCell>
        <mxCell id="auM15TJbj3UJ2ScAe3zU-14" value="" style="group" vertex="1" connectable="0" parent="1">
          <mxGeometry x="722" y="1991.003" width="70" height="30.99700000000007" as="geometry" />
        </mxCell>
        <mxCell id="auM15TJbj3UJ2ScAe3zU-15" value="" style="endArrow=open;html=1;endSize=12;startArrow=diamondThin;startSize=14;startFill=1;edgeStyle=orthogonalEdgeStyle;align=left;verticalAlign=bottom;rounded=0;" edge="1" parent="auM15TJbj3UJ2ScAe3zU-14">
          <mxGeometry x="-1" y="3" relative="1" as="geometry">
            <mxPoint x="70" y="30.99700000000007" as="sourcePoint" />
            <mxPoint y="30.99700000000007" as="targetPoint" />
            <Array as="points">
              <mxPoint x="66" y="30.99700000000007" />
              <mxPoint x="66" y="30.99700000000007" />
            </Array>
            <mxPoint as="offset" />
          </mxGeometry>
        </mxCell>
        <mxCell id="auM15TJbj3UJ2ScAe3zU-16" value="1" style="edgeLabel;resizable=0;html=1;align=left;verticalAlign=top;" connectable="0" vertex="1" parent="auM15TJbj3UJ2ScAe3zU-14">
          <mxGeometry x="4.000000000000227" as="geometry" />
        </mxCell>
        <mxCell id="auM15TJbj3UJ2ScAe3zU-17" value="1" style="edgeLabel;resizable=0;html=1;align=left;verticalAlign=top;" connectable="0" vertex="1" parent="auM15TJbj3UJ2ScAe3zU-14">
          <mxGeometry x="55.00000000000023" as="geometry" />
        </mxCell>
        <mxCell id="auM15TJbj3UJ2ScAe3zU-20" value="" style="group" vertex="1" connectable="0" parent="1">
          <mxGeometry x="1035" y="2095" width="90" height="20.5" as="geometry" />
        </mxCell>
        <mxCell id="auM15TJbj3UJ2ScAe3zU-21" value="" style="endArrow=open;html=1;endSize=12;startArrow=diamondThin;startSize=14;startFill=1;edgeStyle=orthogonalEdgeStyle;align=left;verticalAlign=bottom;rounded=0;" edge="1" parent="auM15TJbj3UJ2ScAe3zU-20">
          <mxGeometry x="-1" y="3" relative="1" as="geometry">
            <mxPoint x="90" y="20.5" as="sourcePoint" />
            <mxPoint y="20.5" as="targetPoint" />
            <Array as="points">
              <mxPoint x="84.85714285714289" y="20.5" />
              <mxPoint x="84.85714285714289" y="20.5" />
            </Array>
            <mxPoint as="offset" />
          </mxGeometry>
        </mxCell>
        <mxCell id="auM15TJbj3UJ2ScAe3zU-22" value="1" style="edgeLabel;resizable=0;html=1;align=left;verticalAlign=top;" connectable="0" vertex="1" parent="auM15TJbj3UJ2ScAe3zU-20">
          <mxGeometry x="5.529887859580867" as="geometry" />
        </mxCell>
        <mxCell id="auM15TJbj3UJ2ScAe3zU-23" value="1" style="edgeLabel;resizable=0;html=1;align=left;verticalAlign=top;" connectable="0" vertex="1" parent="auM15TJbj3UJ2ScAe3zU-20">
          <mxGeometry x="66.99913213066816" as="geometry" />
        </mxCell>
        <mxCell id="auM15TJbj3UJ2ScAe3zU-311" style="edgeStyle=orthogonalEdgeStyle;rounded=0;orthogonalLoop=1;jettySize=auto;html=1;exitX=0.5;exitY=1;exitDx=0;exitDy=0;entryX=0.75;entryY=0;entryDx=0;entryDy=0;strokeColor=default;align=center;verticalAlign=middle;fontFamily=Helvetica;fontSize=11;fontColor=default;labelBackgroundColor=default;startArrow=open;startFill=0;endArrow=none;endFill=0;" edge="1" parent="1" source="auM15TJbj3UJ2ScAe3zU-24" target="auM15TJbj3UJ2ScAe3zU-107">
          <mxGeometry relative="1" as="geometry" />
        </mxCell>
        <mxCell id="auM15TJbj3UJ2ScAe3zU-24" value="&lt;p style=&quot;margin:0px;margin-top:4px;text-align:center;&quot;&gt;&lt;b&gt;Debuff&lt;/b&gt;&lt;/p&gt;&lt;hr size=&quot;1&quot;&gt;&lt;p style=&quot;margin:0px;margin-left:4px;&quot;&gt;- container: GameWorld&lt;/p&gt;&lt;p style=&quot;margin:0px;margin-left:4px;&quot;&gt;- debuffLoader: BodyEditorLoader&lt;/p&gt;&lt;hr size=&quot;1&quot;&gt;&lt;p style=&quot;margin: 0px 0px 0px 4px;&quot;&gt;+ &amp;lt;&amp;lt;constructor&amp;gt;&amp;gt; Debuff(&lt;/p&gt;&lt;p style=&quot;margin:0px;margin-left:4px;&quot;&gt;&lt;span style=&quot;background-color: initial;&quot;&gt;gameWorld: GameWorld)&lt;/span&gt;&lt;/p&gt;&lt;p style=&quot;margin:0px;margin-left:4px;&quot;&gt;+ createDebuff(): Body&lt;/p&gt;" style="verticalAlign=top;align=left;overflow=fill;fontSize=12;fontFamily=Helvetica;html=1;rounded=0;shadow=0;comic=0;labelBackgroundColor=none;strokeWidth=1" vertex="1" parent="1">
          <mxGeometry x="1784" y="1608" width="190" height="120" as="geometry" />
        </mxCell>
        <mxCell id="auM15TJbj3UJ2ScAe3zU-299" style="edgeStyle=orthogonalEdgeStyle;rounded=0;orthogonalLoop=1;jettySize=auto;html=1;exitX=0.5;exitY=0;exitDx=0;exitDy=0;strokeColor=default;align=center;verticalAlign=middle;fontFamily=Helvetica;fontSize=11;fontColor=default;labelBackgroundColor=default;startArrow=open;startFill=0;endArrow=none;endFill=0;" edge="1" parent="1" source="auM15TJbj3UJ2ScAe3zU-26" target="auM15TJbj3UJ2ScAe3zU-298">
          <mxGeometry relative="1" as="geometry">
            <Array as="points">
              <mxPoint x="1645" y="1586" />
              <mxPoint x="1879" y="1586" />
            </Array>
          </mxGeometry>
        </mxCell>
        <mxCell id="auM15TJbj3UJ2ScAe3zU-307" style="edgeStyle=orthogonalEdgeStyle;rounded=0;orthogonalLoop=1;jettySize=auto;html=1;exitX=0.5;exitY=1;exitDx=0;exitDy=0;entryX=0.5;entryY=0;entryDx=0;entryDy=0;strokeColor=default;align=center;verticalAlign=middle;fontFamily=Helvetica;fontSize=11;fontColor=default;labelBackgroundColor=default;startArrow=open;startFill=0;endArrow=none;endFill=0;" edge="1" parent="1" source="auM15TJbj3UJ2ScAe3zU-26" target="auM15TJbj3UJ2ScAe3zU-107">
          <mxGeometry relative="1" as="geometry" />
        </mxCell>
        <mxCell id="auM15TJbj3UJ2ScAe3zU-26" value="&lt;p style=&quot;margin:0px;margin-top:4px;text-align:center;&quot;&gt;&lt;b&gt;Buff&lt;/b&gt;&lt;/p&gt;&lt;hr size=&quot;1&quot;&gt;&lt;p style=&quot;margin: 0px 0px 0px 4px;&quot;&gt;- container: GameWorld&lt;/p&gt;&lt;p style=&quot;margin:0px;margin-left:4px;&quot;&gt;&lt;span style=&quot;background-color: initial;&quot;&gt;- buffLoader: BodyEditorLoader&lt;/span&gt;&lt;/p&gt;&lt;hr size=&quot;1&quot;&gt;&lt;p style=&quot;margin: 0px 0px 0px 4px;&quot;&gt;+ &amp;lt;&amp;lt;constructor&amp;gt;&amp;gt; Buff(&lt;/p&gt;&lt;p style=&quot;margin:0px;margin-left:4px;&quot;&gt;&lt;span style=&quot;background-color: initial;&quot;&gt;gameWorld: GameWorld)&lt;/span&gt;&lt;/p&gt;&lt;p style=&quot;margin:0px;margin-left:4px;&quot;&gt;+ createBuff(): Body&lt;/p&gt;" style="verticalAlign=top;align=left;overflow=fill;fontSize=12;fontFamily=Helvetica;html=1;rounded=0;shadow=0;comic=0;labelBackgroundColor=none;strokeWidth=1" vertex="1" parent="1">
          <mxGeometry x="1555" y="1608" width="180" height="120" as="geometry" />
        </mxCell>
        <mxCell id="auM15TJbj3UJ2ScAe3zU-27" value="&lt;p style=&quot;margin:0px;margin-top:4px;text-align:center;&quot;&gt;&lt;b&gt;Player&lt;/b&gt;&lt;/p&gt;&lt;hr size=&quot;1&quot;&gt;&lt;p style=&quot;margin:0px;margin-left:4px;&quot;&gt;- container: GameWorld&lt;/p&gt;&lt;p style=&quot;margin:0px;margin-left:4px;&quot;&gt;- playerLoader: BodyEditorLoader&lt;/p&gt;&lt;hr size=&quot;1&quot;&gt;&lt;p style=&quot;margin: 0px 0px 0px 4px;&quot;&gt;+ &amp;lt;&amp;lt;constructor&amp;gt;&amp;gt; Player(&lt;/p&gt;&lt;p style=&quot;margin: 0px 0px 0px 4px;&quot;&gt;gameWorld: GameWorld)&lt;/p&gt;&lt;p style=&quot;margin:0px;margin-left:4px;&quot;&gt;+ createPlayer()&lt;/p&gt;" style="verticalAlign=top;align=left;overflow=fill;fontSize=12;fontFamily=Helvetica;html=1;rounded=0;shadow=0;comic=0;labelBackgroundColor=none;strokeWidth=1" vertex="1" parent="1">
          <mxGeometry x="1770" y="1283" width="200" height="120" as="geometry" />
        </mxCell>
        <mxCell id="auM15TJbj3UJ2ScAe3zU-289" style="edgeStyle=orthogonalEdgeStyle;rounded=0;orthogonalLoop=1;jettySize=auto;html=1;exitX=0.5;exitY=0;exitDx=0;exitDy=0;strokeColor=default;align=center;verticalAlign=middle;fontFamily=Helvetica;fontSize=11;fontColor=default;labelBackgroundColor=default;startArrow=open;startFill=0;endArrow=none;endFill=0;" edge="1" parent="1" source="auM15TJbj3UJ2ScAe3zU-28" target="auM15TJbj3UJ2ScAe3zU-284">
          <mxGeometry relative="1" as="geometry">
            <Array as="points">
              <mxPoint x="1657" y="1251" />
            </Array>
          </mxGeometry>
        </mxCell>
        <mxCell id="auM15TJbj3UJ2ScAe3zU-28" value="&lt;p style=&quot;margin:0px;margin-top:4px;text-align:center;&quot;&gt;&lt;b&gt;Floor&lt;/b&gt;&lt;/p&gt;&lt;hr size=&quot;1&quot;&gt;&lt;p style=&quot;margin: 0px 0px 0px 4px;&quot;&gt;- container: GameWorld&lt;/p&gt;&lt;hr size=&quot;1&quot;&gt;&lt;p style=&quot;margin: 0px 0px 0px 4px;&quot;&gt;+ &amp;lt;&amp;lt;constructor&amp;gt;&amp;gt; Floor(&lt;/p&gt;&lt;p style=&quot;margin: 0px 0px 0px 4px;&quot;&gt;gameWorld: GameWorld)&lt;/p&gt;&lt;p style=&quot;margin:0px;margin-left:4px;&quot;&gt;+ createFloor()&lt;/p&gt;" style="verticalAlign=top;align=left;overflow=fill;fontSize=12;fontFamily=Helvetica;html=1;rounded=0;shadow=0;comic=0;labelBackgroundColor=none;strokeWidth=1" vertex="1" parent="1">
          <mxGeometry x="1569" y="1283" width="177" height="106" as="geometry" />
        </mxCell>
        <mxCell id="auM15TJbj3UJ2ScAe3zU-294" style="edgeStyle=orthogonalEdgeStyle;rounded=0;orthogonalLoop=1;jettySize=auto;html=1;exitX=0.5;exitY=0;exitDx=0;exitDy=0;strokeColor=default;align=center;verticalAlign=middle;fontFamily=Helvetica;fontSize=11;fontColor=default;labelBackgroundColor=default;startArrow=open;startFill=0;endArrow=none;endFill=0;entryX=0.392;entryY=0.38;entryDx=0;entryDy=0;entryPerimeter=0;" edge="1" parent="1" source="auM15TJbj3UJ2ScAe3zU-29" target="auM15TJbj3UJ2ScAe3zU-290">
          <mxGeometry relative="1" as="geometry">
            <mxPoint x="1759" y="1252" as="targetPoint" />
          </mxGeometry>
        </mxCell>
        <mxCell id="auM15TJbj3UJ2ScAe3zU-305" style="edgeStyle=orthogonalEdgeStyle;rounded=0;orthogonalLoop=1;jettySize=auto;html=1;exitX=0.25;exitY=0;exitDx=0;exitDy=0;strokeColor=default;align=center;verticalAlign=middle;fontFamily=Helvetica;fontSize=11;fontColor=default;labelBackgroundColor=default;startArrow=open;startFill=0;endArrow=none;endFill=0;" edge="1" parent="1" source="auM15TJbj3UJ2ScAe3zU-29">
          <mxGeometry relative="1" as="geometry">
            <mxPoint x="1494" y="1408" as="targetPoint" />
            <Array as="points">
              <mxPoint x="1705" y="1408" />
            </Array>
          </mxGeometry>
        </mxCell>
        <mxCell id="auM15TJbj3UJ2ScAe3zU-29" value="&lt;p style=&quot;margin:0px;margin-top:4px;text-align:center;&quot;&gt;&lt;b&gt;Obstacle&lt;/b&gt;&lt;/p&gt;&lt;hr size=&quot;1&quot;&gt;&lt;p style=&quot;margin:0px;margin-left:4px;&quot;&gt;- container: GameWorld&lt;/p&gt;&lt;p style=&quot;margin:0px;margin-left:4px;&quot;&gt;- obstacleLoader: BodyEditorLoader&lt;/p&gt;&lt;p style=&quot;margin: 0px 0px 0px 4px;&quot;&gt;- obstacleSpawnUsed: Integer[0..*]&lt;/p&gt;&lt;p style=&quot;margin: 0px 0px 0px 4px;&quot;&gt;- obstacleSpawnUnused: Integer[0..*]&lt;/p&gt;&lt;hr size=&quot;1&quot;&gt;&lt;p style=&quot;margin: 0px 0px 0px 4px;&quot;&gt;+ &amp;lt;&amp;lt;constructor&amp;gt;&amp;gt; Obstacle(&lt;/p&gt;&lt;p style=&quot;margin: 0px 0px 0px 4px;&quot;&gt;gameWorld: GameWorld)&lt;/p&gt;&lt;p style=&quot;margin:0px;margin-left:4px;&quot;&gt;+ createObstacle(v: float): Body&lt;/p&gt;&lt;p style=&quot;margin:0px;margin-left:4px;&quot;&gt;&lt;br&gt;&lt;/p&gt;" style="verticalAlign=top;align=left;overflow=fill;fontSize=12;fontFamily=Helvetica;html=1;rounded=0;shadow=0;comic=0;labelBackgroundColor=none;strokeWidth=1" vertex="1" parent="1">
          <mxGeometry x="1651" y="1428" width="215" height="150" as="geometry" />
        </mxCell>
        <mxCell id="auM15TJbj3UJ2ScAe3zU-30" value="" style="endArrow=open;html=1;endSize=12;startArrow=diamondThin;startSize=14;startFill=0;edgeStyle=orthogonalEdgeStyle;rounded=0;exitX=0;exitY=0.134;exitDx=0;exitDy=0;exitPerimeter=0;" edge="1" parent="1" source="auM15TJbj3UJ2ScAe3zU-9">
          <mxGeometry x="0.0073" relative="1" as="geometry">
            <mxPoint x="515.74" y="1785" as="sourcePoint" />
            <mxPoint x="515.74" y="1702" as="targetPoint" />
            <mxPoint as="offset" />
          </mxGeometry>
        </mxCell>
        <mxCell id="auM15TJbj3UJ2ScAe3zU-31" value="1" style="edgeLabel;resizable=0;html=1;align=left;verticalAlign=top;" connectable="0" vertex="1" parent="auM15TJbj3UJ2ScAe3zU-30">
          <mxGeometry x="-1" relative="1" as="geometry">
            <mxPoint x="-18" y="-24" as="offset" />
          </mxGeometry>
        </mxCell>
        <mxCell id="auM15TJbj3UJ2ScAe3zU-33" value="" style="endArrow=open;html=1;endSize=12;startArrow=diamondThin;startSize=14;startFill=0;edgeStyle=orthogonalEdgeStyle;rounded=0;exitX=0.002;exitY=0.068;exitDx=0;exitDy=0;exitPerimeter=0;" edge="1" parent="1" source="auM15TJbj3UJ2ScAe3zU-9">
          <mxGeometry x="0.0073" relative="1" as="geometry">
            <mxPoint x="720.5999999999999" y="1817" as="sourcePoint" />
            <mxPoint x="720.5999999999999" y="1734" as="targetPoint" />
            <mxPoint as="offset" />
          </mxGeometry>
        </mxCell>
        <mxCell id="auM15TJbj3UJ2ScAe3zU-34" value="1" style="edgeLabel;resizable=0;html=1;align=left;verticalAlign=top;" connectable="0" vertex="1" parent="auM15TJbj3UJ2ScAe3zU-33">
          <mxGeometry x="-1" relative="1" as="geometry">
            <mxPoint x="-21" y="-28" as="offset" />
          </mxGeometry>
        </mxCell>
        <mxCell id="auM15TJbj3UJ2ScAe3zU-36" value="" style="endArrow=open;html=1;endSize=12;startArrow=diamondThin;startSize=14;startFill=0;edgeStyle=orthogonalEdgeStyle;rounded=0;" edge="1" parent="1">
          <mxGeometry x="0.0073" relative="1" as="geometry">
            <mxPoint x="1037" y="1886" as="sourcePoint" />
            <mxPoint x="1091.9999999999998" y="1742" as="targetPoint" />
            <mxPoint as="offset" />
          </mxGeometry>
        </mxCell>
        <mxCell id="auM15TJbj3UJ2ScAe3zU-38" value="1" style="edgeLabel;resizable=0;html=1;align=right;verticalAlign=top;" connectable="0" vertex="1" parent="auM15TJbj3UJ2ScAe3zU-36">
          <mxGeometry x="1" relative="1" as="geometry">
            <mxPoint x="-26" y="119" as="offset" />
          </mxGeometry>
        </mxCell>
        <mxCell id="auM15TJbj3UJ2ScAe3zU-132" style="edgeStyle=orthogonalEdgeStyle;rounded=0;orthogonalLoop=1;jettySize=auto;html=1;exitDx=0;exitDy=0;entryX=0.5;entryY=1;entryDx=0;entryDy=0;dashed=1;" edge="1" parent="1" source="auM15TJbj3UJ2ScAe3zU-141" target="auM15TJbj3UJ2ScAe3zU-126">
          <mxGeometry relative="1" as="geometry" />
        </mxCell>
        <mxCell id="auM15TJbj3UJ2ScAe3zU-202" style="edgeStyle=orthogonalEdgeStyle;rounded=0;orthogonalLoop=1;jettySize=auto;html=1;exitX=0.5;exitY=0;exitDx=0;exitDy=0;dashed=1;strokeColor=default;align=center;verticalAlign=middle;fontFamily=Helvetica;fontSize=11;fontColor=default;labelBackgroundColor=default;startArrow=none;startFill=0;endArrow=none;endFill=0;" edge="1" parent="1" source="auM15TJbj3UJ2ScAe3zU-46" target="auM15TJbj3UJ2ScAe3zU-200">
          <mxGeometry relative="1" as="geometry">
            <Array as="points">
              <mxPoint x="2404" y="1618" />
            </Array>
          </mxGeometry>
        </mxCell>
        <mxCell id="auM15TJbj3UJ2ScAe3zU-272" style="edgeStyle=orthogonalEdgeStyle;rounded=0;orthogonalLoop=1;jettySize=auto;html=1;entryX=1;entryY=0.25;entryDx=0;entryDy=0;strokeColor=default;align=center;verticalAlign=middle;fontFamily=Helvetica;fontSize=11;fontColor=default;labelBackgroundColor=default;startArrow=diamondThin;startFill=1;endArrow=open;endFill=0;" edge="1" parent="1" source="auM15TJbj3UJ2ScAe3zU-46" target="auM15TJbj3UJ2ScAe3zU-184">
          <mxGeometry relative="1" as="geometry" />
        </mxCell>
        <mxCell id="auM15TJbj3UJ2ScAe3zU-46" value="&lt;p style=&quot;margin:0px;margin-top:4px;text-align:center;&quot;&gt;&lt;b&gt;GameScreen&lt;/b&gt;&lt;/p&gt;&lt;hr size=&quot;1&quot;&gt;&lt;p style=&quot;margin:0px;margin-left:4px;&quot;&gt;&lt;span style=&quot;background-color: initial;&quot;&gt;+ container:&amp;nbsp;&lt;/span&gt;&lt;span style=&quot;background-color: initial;&quot;&gt;ScreenManager&lt;/span&gt;&lt;br&gt;&lt;/p&gt;&lt;p style=&quot;margin: 0px 0px 0px 4px;&quot;&gt;- cam: OrthographicCamera&lt;/p&gt;&lt;div&gt;&lt;span style=&quot;background-color: initial;&quot;&gt;&amp;nbsp;- controller: KeyboardController&lt;/span&gt;&lt;br&gt;&lt;/div&gt;&lt;p style=&quot;margin: 0px 0px 0px 4px;&quot;&gt;- gameWorld: GameWorld&lt;/p&gt;&lt;p style=&quot;margin: 0px 0px 0px 4px;&quot;&gt;- sb: SpriteBatch&lt;br&gt;&lt;/p&gt;&lt;p style=&quot;margin: 0px 0px 0px 4px;&quot;&gt;- font: BitmapFont&lt;/p&gt;&lt;p style=&quot;margin: 0px 0px 0px 4px;&quot;&gt;- floorTex: Texture&lt;/p&gt;&lt;p style=&quot;margin: 0px 0px 0px 4px;&quot;&gt;- playerTex: Texture&lt;/p&gt;&lt;p style=&quot;margin: 0px 0px 0px 4px;&quot;&gt;- ob&lt;span style=&quot;background-color: initial;&quot;&gt;Texs: Texture[0..*]&lt;/span&gt;&lt;/p&gt;&lt;p style=&quot;margin: 0px 0px 0px 4px;&quot;&gt;- buff&lt;span style=&quot;background-color: initial;&quot;&gt;Texs: Texture[0..*]&lt;/span&gt;&lt;/p&gt;&lt;p style=&quot;margin: 0px 0px 0px 4px;&quot;&gt;- debuff&lt;span style=&quot;background-color: initial;&quot;&gt;Texs: Texture[0..*]&lt;/span&gt;&lt;/p&gt;&lt;p style=&quot;margin: 0px 0px 0px 4px;&quot;&gt;- floorWidHei: Vector2&lt;/p&gt;&lt;p style=&quot;margin: 0px 0px 0px 4px;&quot;&gt;- playerWidHei: Vector2&lt;/p&gt;&lt;p style=&quot;margin: 0px 0px 0px 4px;&quot;&gt;- obstacleWidHei: Vector2&lt;span style=&quot;background-color: initial;&quot;&gt;[0..*]&lt;/span&gt;&lt;/p&gt;&lt;div&gt;&lt;p style=&quot;margin: 0px 0px 0px 4px;&quot;&gt;- buffWidHei: Vector2&lt;span style=&quot;background-color: initial;&quot;&gt;[0..*]&lt;/span&gt;&lt;/p&gt;&lt;/div&gt;&lt;div&gt;&lt;p style=&quot;margin: 0px 0px 0px 4px;&quot;&gt;- debuffWidHei: Vector2&lt;span style=&quot;background-color: initial;&quot;&gt;[0..*]&lt;/span&gt;&lt;/p&gt;&lt;p style=&quot;margin: 0px 0px 0px 4px;&quot;&gt;&lt;span style=&quot;background-color: initial;&quot;&gt;- obstacleScale: Float&lt;/span&gt;&lt;/p&gt;&lt;p style=&quot;margin: 0px 0px 0px 4px;&quot;&gt;- buffScale: Float&lt;span style=&quot;background-color: initial;&quot;&gt;&lt;br&gt;&lt;/span&gt;&lt;/p&gt;&lt;p style=&quot;margin: 0px 0px 0px 4px;&quot;&gt;- debuffScale: Float&lt;/p&gt;&lt;p style=&quot;margin: 0px 0px 0px 4px;&quot;&gt;&lt;span style=&quot;background-color: initial;&quot;&gt;- highscore: Integer&lt;/span&gt;&lt;br&gt;&lt;/p&gt;&lt;/div&gt;&lt;hr size=&quot;1&quot;&gt;&lt;p style=&quot;margin:0px;margin-left:4px;&quot;&gt;+ &amp;lt;&amp;lt;constructor&amp;gt;&amp;gt; GameScreen&lt;/p&gt;&lt;p style=&quot;margin: 0px 0px 0px 4px;&quot;&gt;(screenManager:&amp;nbsp;&lt;span style=&quot;background-color: initial;&quot;&gt;ScreenManager)&lt;/span&gt;&lt;/p&gt;&lt;p style=&quot;margin: 0px 0px 0px 4px;&quot;&gt;+ show()&lt;/p&gt;&lt;p style=&quot;margin: 0px 0px 0px 4px;&quot;&gt;+ render(delta: float)&lt;/p&gt;&lt;p style=&quot;margin: 0px 0px 0px 4px;&quot;&gt;+ resize(width: int, height: int)&lt;/p&gt;&lt;p style=&quot;margin: 0px 0px 0px 4px;&quot;&gt;+ pause()&lt;/p&gt;&lt;p style=&quot;margin: 0px 0px 0px 4px;&quot;&gt;+ resume()&lt;/p&gt;&lt;p style=&quot;margin: 0px 0px 0px 4px;&quot;&gt;+ hide()&lt;/p&gt;&lt;p style=&quot;margin: 0px 0px 0px 4px;&quot;&gt;+ dispose()&lt;/p&gt;&lt;p style=&quot;margin:0px;margin-left:4px;&quot;&gt;- loopDraw(bodys: Body[0..*],&amp;nbsp;&lt;/p&gt;&lt;p style=&quot;margin:0px;margin-left:4px;&quot;&gt;bodyTexs:&amp;nbsp;&lt;span style=&quot;background-color: initial;&quot;&gt;Texture[0..*],&amp;nbsp;&lt;/span&gt;&lt;/p&gt;&lt;p style=&quot;margin:0px;margin-left:4px;&quot;&gt;&lt;span style=&quot;background-color: initial;&quot;&gt;bodyWidHei: Vector2[0..*],&lt;/span&gt;&lt;/p&gt;&lt;p style=&quot;margin:0px;margin-left:4px;&quot;&gt;bodyScale: float)&lt;/p&gt;" style="verticalAlign=top;align=left;overflow=fill;fontSize=12;fontFamily=Helvetica;html=1;rounded=0;shadow=0;comic=0;labelBackgroundColor=none;strokeWidth=1" vertex="1" parent="1">
          <mxGeometry x="2303" y="1640.5" width="203" height="525.5" as="geometry" />
        </mxCell>
        <mxCell id="auM15TJbj3UJ2ScAe3zU-199" style="edgeStyle=orthogonalEdgeStyle;rounded=0;orthogonalLoop=1;jettySize=auto;html=1;exitDx=0;exitDy=0;dashed=1;strokeColor=default;align=center;verticalAlign=middle;fontFamily=Helvetica;fontSize=11;fontColor=default;labelBackgroundColor=default;startArrow=none;startFill=0;endArrow=none;endFill=0;" edge="1" parent="1" source="auM15TJbj3UJ2ScAe3zU-200" target="auM15TJbj3UJ2ScAe3zU-197">
          <mxGeometry relative="1" as="geometry">
            <Array as="points" />
          </mxGeometry>
        </mxCell>
        <mxCell id="auM15TJbj3UJ2ScAe3zU-264" style="edgeStyle=orthogonalEdgeStyle;rounded=0;orthogonalLoop=1;jettySize=auto;html=1;exitX=0.75;exitY=1;exitDx=0;exitDy=0;strokeColor=default;align=center;verticalAlign=middle;fontFamily=Helvetica;fontSize=11;fontColor=default;labelBackgroundColor=default;startArrow=open;startFill=0;endArrow=none;endFill=0;" edge="1" parent="1" source="auM15TJbj3UJ2ScAe3zU-47" target="auM15TJbj3UJ2ScAe3zU-260">
          <mxGeometry relative="1" as="geometry">
            <Array as="points">
              <mxPoint x="2678" y="1979" />
            </Array>
          </mxGeometry>
        </mxCell>
        <mxCell id="auM15TJbj3UJ2ScAe3zU-47" value="&lt;p style=&quot;margin:0px;margin-top:4px;text-align:center;&quot;&gt;&lt;b&gt;MenuScreen&lt;/b&gt;&lt;/p&gt;&lt;hr size=&quot;1&quot;&gt;&lt;p style=&quot;margin: 0px 0px 0px 4px;&quot;&gt;-&amp;nbsp;&lt;span style=&quot;background-color: initial;&quot;&gt;container&lt;/span&gt;&lt;span style=&quot;background-color: initial;&quot;&gt;: ScreenManager&lt;/span&gt;&lt;/p&gt;&lt;p style=&quot;margin: 0px 0px 0px 4px;&quot;&gt;- stage: Stage&lt;/p&gt;&lt;p style=&quot;margin: 0px 0px 0px 4px;&quot;&gt;- skin: Skin&lt;/p&gt;&lt;p style=&quot;margin: 0px 0px 0px 4px;&quot;&gt;- backgroundImage: Image&lt;/p&gt;&lt;p style=&quot;margin: 0px 0px 0px 4px;&quot;&gt;- table: Table&lt;/p&gt;&lt;hr size=&quot;1&quot;&gt;&lt;p style=&quot;margin:0px;margin-left:4px;&quot;&gt;+ &amp;lt;&amp;lt;constructor&amp;gt;&amp;gt; MenuScreen&lt;/p&gt;&lt;p style=&quot;margin:0px;margin-left:4px;&quot;&gt;(screenManager:&amp;nbsp;&lt;span style=&quot;background-color: initial;&quot;&gt;ScreenManager)&lt;/span&gt;&lt;/p&gt;&lt;p style=&quot;margin:0px;margin-left:4px;&quot;&gt;+ show()&lt;/p&gt;&lt;p style=&quot;margin:0px;margin-left:4px;&quot;&gt;+ render(delta: float)&lt;/p&gt;&lt;p style=&quot;margin:0px;margin-left:4px;&quot;&gt;+ resize(width: int, height: int)&lt;/p&gt;&lt;p style=&quot;margin:0px;margin-left:4px;&quot;&gt;+ pause()&lt;/p&gt;&lt;p style=&quot;margin:0px;margin-left:4px;&quot;&gt;+ resume()&lt;/p&gt;&lt;p style=&quot;margin:0px;margin-left:4px;&quot;&gt;+ hide()&lt;/p&gt;&lt;p style=&quot;margin:0px;margin-left:4px;&quot;&gt;+ dispose()&lt;/p&gt;" style="verticalAlign=top;align=left;overflow=fill;fontSize=12;fontFamily=Helvetica;html=1;rounded=0;shadow=0;comic=0;labelBackgroundColor=none;strokeWidth=1" vertex="1" parent="1">
          <mxGeometry x="2525.5" y="1641" width="203" height="252.5" as="geometry" />
        </mxCell>
        <mxCell id="auM15TJbj3UJ2ScAe3zU-72" value="1" style="edgeLabel;resizable=0;html=1;align=left;verticalAlign=top;" connectable="0" vertex="1" parent="1">
          <mxGeometry x="382.998537298879" y="2049.0033333333336" as="geometry">
            <mxPoint x="504" y="292" as="offset" />
          </mxGeometry>
        </mxCell>
        <mxCell id="auM15TJbj3UJ2ScAe3zU-73" value="1" style="edgeLabel;resizable=0;html=1;align=left;verticalAlign=top;" connectable="0" vertex="1" parent="1">
          <mxGeometry x="888.003027791322" y="2281" as="geometry" />
        </mxCell>
        <mxCell id="auM15TJbj3UJ2ScAe3zU-78" value="&lt;p style=&quot;margin:0px;margin-top:4px;text-align:center;&quot;&gt;&lt;b&gt;GameAssetManager&lt;/b&gt;&lt;/p&gt;&lt;hr size=&quot;1&quot;&gt;&lt;p style=&quot;margin:0px;margin-left:4px;&quot;&gt;+ manager: AssetManager&lt;/p&gt;&lt;p style=&quot;margin: 0px 0px 0px 4px;&quot;&gt;+ imageFileName: String[0..*]&lt;br&gt;&lt;/p&gt;&lt;p style=&quot;margin: 0px 0px 0px 4px;&quot;&gt;+ soundFileName: String[0..*]&lt;/p&gt;&lt;p style=&quot;margin: 0px 0px 0px 4px;&quot;&gt;+ musicFileName: String&lt;/p&gt;&lt;p style=&quot;margin: 0px 0px 0px 4px;&quot;&gt;+ skinFileName: String&lt;/p&gt;&lt;hr size=&quot;1&quot;&gt;&lt;p style=&quot;margin:0px;margin-left:4px;&quot;&gt;+ queueAddImages()&lt;/p&gt;&lt;p style=&quot;margin:0px;margin-left:4px;&quot;&gt;+ queueAddSounds()&lt;/p&gt;&lt;p style=&quot;margin:0px;margin-left:4px;&quot;&gt;+ queueAddMusic()&lt;/p&gt;&lt;p style=&quot;margin:0px;margin-left:4px;&quot;&gt;+ queueAddSkin()&lt;/p&gt;" style="verticalAlign=top;align=left;overflow=fill;fontSize=12;fontFamily=Helvetica;html=1;rounded=0;shadow=0;comic=0;labelBackgroundColor=none;strokeWidth=1" vertex="1" parent="1">
          <mxGeometry x="943" y="2293" width="171" height="180" as="geometry" />
        </mxCell>
        <mxCell id="auM15TJbj3UJ2ScAe3zU-79" value="&lt;p style=&quot;margin:0px;margin-top:4px;text-align:center;&quot;&gt;&lt;b&gt;SoundEffects&lt;/b&gt;&lt;/p&gt;&lt;hr size=&quot;1&quot;&gt;&lt;p style=&quot;margin:0px;margin-left:4px;&quot;&gt;- jumpSound: Sound&lt;/p&gt;&lt;p style=&quot;margin:0px;margin-left:4px;&quot;&gt;- collectSound: Sound&lt;/p&gt;&lt;hr size=&quot;1&quot;&gt;&lt;p style=&quot;margin:0px;margin-left:4px;&quot;&gt;+ playSound(choice: int)&lt;/p&gt;" style="verticalAlign=top;align=left;overflow=fill;fontSize=12;fontFamily=Helvetica;html=1;rounded=0;shadow=0;comic=0;labelBackgroundColor=none;strokeWidth=1;direction=south;" vertex="1" parent="1">
          <mxGeometry x="1216" y="2346" width="138" height="93" as="geometry" />
        </mxCell>
        <mxCell id="auM15TJbj3UJ2ScAe3zU-85" value="loads&lt;div&gt;sounds&lt;/div&gt;" style="text;strokeColor=none;align=center;fillColor=none;html=1;verticalAlign=middle;whiteSpace=wrap;rounded=0;" vertex="1" parent="1">
          <mxGeometry x="1136" y="2339" width="60" height="25" as="geometry" />
        </mxCell>
        <mxCell id="auM15TJbj3UJ2ScAe3zU-88" value="1" style="edgeLabel;resizable=0;html=1;align=left;verticalAlign=top;" connectable="0" vertex="1" parent="1">
          <mxGeometry x="1086.9993271574847" y="2259" as="geometry" />
        </mxCell>
        <mxCell id="auM15TJbj3UJ2ScAe3zU-89" value="" style="endArrow=open;endFill=1;endSize=12;html=1;rounded=0;" edge="1" parent="1">
          <mxGeometry width="160" relative="1" as="geometry">
            <mxPoint x="1114" y="2368" as="sourcePoint" />
            <mxPoint x="1216" y="2368" as="targetPoint" />
          </mxGeometry>
        </mxCell>
        <mxCell id="auM15TJbj3UJ2ScAe3zU-90" value="provides sound effects" style="text;strokeColor=none;align=center;fillColor=none;html=1;verticalAlign=middle;whiteSpace=wrap;rounded=0;" vertex="1" parent="1">
          <mxGeometry x="1125" y="2460" width="171" height="25" as="geometry" />
        </mxCell>
        <mxCell id="auM15TJbj3UJ2ScAe3zU-93" value="&lt;p style=&quot;margin:0px;margin-top:4px;text-align:center;&quot;&gt;&lt;b&gt;KeyboardController&lt;/b&gt;&lt;/p&gt;&lt;hr size=&quot;1&quot;&gt;&lt;p style=&quot;margin:0px;margin-left:4px;&quot;&gt;+ keyPressed: boolean&lt;br&gt;&lt;/p&gt;&lt;hr size=&quot;1&quot;&gt;&lt;p style=&quot;margin:0px;margin-left:4px;&quot;&gt;+ keyDown(keycode: int): boolean&lt;/p&gt;&lt;p style=&quot;margin:0px;margin-left:4px;&quot;&gt;+&amp;nbsp;&lt;span style=&quot;background-color: initial;&quot;&gt;keyUp(keycode: int): boolean&lt;/span&gt;&lt;/p&gt;" style="verticalAlign=top;align=left;overflow=fill;fontSize=12;fontFamily=Helvetica;html=1;rounded=0;shadow=0;comic=0;labelBackgroundColor=none;strokeWidth=1" vertex="1" parent="1">
          <mxGeometry x="475" y="2373" width="192" height="100" as="geometry" />
        </mxCell>
        <mxCell id="auM15TJbj3UJ2ScAe3zU-94" value="" style="group" vertex="1" connectable="0" parent="1">
          <mxGeometry x="511" y="2293" width="160" height="80" as="geometry" />
        </mxCell>
        <mxCell id="auM15TJbj3UJ2ScAe3zU-95" value="«interface»&lt;br&gt;&lt;b&gt;InputProcessor&lt;/b&gt;" style="html=1;whiteSpace=wrap;" vertex="1" parent="auM15TJbj3UJ2ScAe3zU-94">
          <mxGeometry width="117" height="50" as="geometry" />
        </mxCell>
        <mxCell id="auM15TJbj3UJ2ScAe3zU-96" value="" style="endArrow=block;html=1;rounded=0;endFill=0;dashed=1;" edge="1" parent="auM15TJbj3UJ2ScAe3zU-94">
          <mxGeometry width="50" height="50" relative="1" as="geometry">
            <mxPoint x="54.799999999999955" y="80" as="sourcePoint" />
            <mxPoint x="54.799999999999955" y="50" as="targetPoint" />
          </mxGeometry>
        </mxCell>
        <mxCell id="auM15TJbj3UJ2ScAe3zU-97" value="" style="endArrow=open;html=1;endSize=12;startArrow=diamondThin;startSize=14;startFill=1;edgeStyle=orthogonalEdgeStyle;align=left;verticalAlign=bottom;rounded=0;entryX=0.905;entryY=0.005;entryDx=0;entryDy=0;entryPerimeter=0;" edge="1" parent="1" target="auM15TJbj3UJ2ScAe3zU-93">
          <mxGeometry x="-1" y="3" relative="1" as="geometry">
            <mxPoint x="792" y="2261" as="sourcePoint" />
            <mxPoint x="649" y="2376" as="targetPoint" />
            <Array as="points">
              <mxPoint x="649" y="2261" />
            </Array>
            <mxPoint as="offset" />
          </mxGeometry>
        </mxCell>
        <mxCell id="auM15TJbj3UJ2ScAe3zU-98" value="1" style="edgeLabel;resizable=0;html=1;align=left;verticalAlign=top;" connectable="0" vertex="1" parent="1">
          <mxGeometry x="761.003027791322" y="2237" as="geometry" />
        </mxCell>
        <mxCell id="auM15TJbj3UJ2ScAe3zU-99" value="1" style="edgeLabel;resizable=0;html=1;align=left;verticalAlign=top;" connectable="0" vertex="1" parent="1">
          <mxGeometry x="652.003027791322" y="2328.75" as="geometry" />
        </mxCell>
        <mxCell id="auM15TJbj3UJ2ScAe3zU-100" value="&lt;p style=&quot;margin:0px;margin-top:4px;text-align:center;&quot;&gt;&lt;b&gt;JumpController&lt;/b&gt;&lt;/p&gt;&lt;hr size=&quot;1&quot;&gt;&lt;p style=&quot;margin:0px;margin-left:4px;&quot;&gt;- canJump: Boolean&lt;br&gt;&lt;/p&gt;&lt;p style=&quot;margin:0px;margin-left:4px;&quot;&gt;- jumped: Boolean&lt;/p&gt;&lt;p style=&quot;margin:0px;margin-left:4px;&quot;&gt;- jumpCount: Integer&lt;/p&gt;&lt;hr size=&quot;1&quot;&gt;&lt;p style=&quot;margin:0px;margin-left:4px;&quot;&gt;+ resetJump()&lt;/p&gt;&lt;p style=&quot;margin:0px;margin-left:4px;&quot;&gt;- tweakJump(jumpHeight: int)&lt;/p&gt;&lt;p style=&quot;margin:0px;margin-left:4px;&quot;&gt;+ jumpLogic(controller:&lt;/p&gt;&lt;p style=&quot;margin:0px;margin-left:4px;&quot;&gt;KeyboardController)&lt;/p&gt;&lt;p style=&quot;margin:0px;margin-left:4px;&quot;&gt;&lt;br&gt;&lt;/p&gt;" style="verticalAlign=top;align=left;overflow=fill;fontSize=12;fontFamily=Helvetica;html=1;rounded=0;shadow=0;comic=0;labelBackgroundColor=none;strokeWidth=1" vertex="1" parent="1">
          <mxGeometry x="322" y="2200.5" width="166" height="150" as="geometry" />
        </mxCell>
        <mxCell id="auM15TJbj3UJ2ScAe3zU-101" value="" style="endArrow=open;html=1;endSize=12;startArrow=diamondThin;startSize=14;startFill=1;edgeStyle=orthogonalEdgeStyle;align=left;verticalAlign=bottom;rounded=0;entryX=0.999;entryY=0.201;entryDx=0;entryDy=0;entryPerimeter=0;" edge="1" parent="1" target="auM15TJbj3UJ2ScAe3zU-100">
          <mxGeometry x="-1" y="3" relative="1" as="geometry">
            <mxPoint x="792" y="2230" as="sourcePoint" />
            <mxPoint x="599" y="2230" as="targetPoint" />
            <Array as="points">
              <mxPoint x="781" y="2230" />
            </Array>
            <mxPoint as="offset" />
          </mxGeometry>
        </mxCell>
        <mxCell id="auM15TJbj3UJ2ScAe3zU-102" value="1" style="edgeLabel;resizable=0;html=1;align=left;verticalAlign=top;" connectable="0" vertex="1" parent="1">
          <mxGeometry x="761.003027791322" y="2209" as="geometry" />
        </mxCell>
        <mxCell id="auM15TJbj3UJ2ScAe3zU-103" value="1" style="edgeLabel;resizable=0;html=1;align=left;verticalAlign=top;" connectable="0" vertex="1" parent="1">
          <mxGeometry x="507.003027791322" y="2209" as="geometry" />
        </mxCell>
        <mxCell id="auM15TJbj3UJ2ScAe3zU-104" value="" style="endArrow=open;endFill=1;endSize=12;html=1;rounded=0;entryX=0;entryY=0.5;entryDx=0;entryDy=0;" edge="1" parent="1" target="auM15TJbj3UJ2ScAe3zU-93">
          <mxGeometry width="160" relative="1" as="geometry">
            <mxPoint x="404.28999999999996" y="2350.5" as="sourcePoint" />
            <mxPoint x="404.28999999999996" y="2477.5" as="targetPoint" />
          </mxGeometry>
        </mxCell>
        <mxCell id="auM15TJbj3UJ2ScAe3zU-105" value="uses" style="text;strokeColor=none;align=center;fillColor=none;html=1;verticalAlign=middle;whiteSpace=wrap;rounded=0;" vertex="1" parent="1">
          <mxGeometry x="391" y="2380" width="36" height="25" as="geometry" />
        </mxCell>
        <mxCell id="auM15TJbj3UJ2ScAe3zU-106" value="&lt;p style=&quot;margin:0px;margin-top:4px;text-align:center;&quot;&gt;&lt;b&gt;BodyIdentifier&lt;/b&gt;&lt;/p&gt;&lt;hr size=&quot;1&quot;&gt;&lt;p style=&quot;margin:0px;margin-left:4px;&quot;&gt;&lt;br&gt;&lt;/p&gt;&lt;hr size=&quot;1&quot;&gt;&lt;p style=&quot;margin:0px;margin-left:4px;&quot;&gt;+ getBodyObjectType(bod: Body):&amp;nbsp;&lt;/p&gt;&lt;p style=&quot;margin:0px;margin-left:4px;&quot;&gt;String&lt;/p&gt;&lt;p style=&quot;margin:0px;margin-left:4px;&quot;&gt;+ setBodyObjectType(bod: Body,&amp;nbsp;&lt;/p&gt;&lt;p style=&quot;margin:0px;margin-left:4px;&quot;&gt;bodyObjectType: String)&lt;/p&gt;&lt;p style=&quot;margin:0px;margin-left:4px;&quot;&gt;+ getTextureID(bod: Body): Integer&lt;/p&gt;" style="verticalAlign=top;align=left;overflow=fill;fontSize=12;fontFamily=Helvetica;html=1;rounded=0;shadow=0;comic=0;labelBackgroundColor=none;strokeWidth=1" vertex="1" parent="1">
          <mxGeometry x="1380" y="2395" width="200" height="140" as="geometry" />
        </mxCell>
        <mxCell id="auM15TJbj3UJ2ScAe3zU-280" style="edgeStyle=orthogonalEdgeStyle;rounded=0;orthogonalLoop=1;jettySize=auto;html=1;exitX=0.75;exitY=1;exitDx=0;exitDy=0;entryX=0;entryY=0.25;entryDx=0;entryDy=0;strokeColor=default;align=center;verticalAlign=middle;fontFamily=Helvetica;fontSize=11;fontColor=default;labelBackgroundColor=default;startArrow=none;startFill=0;endArrow=open;endFill=0;" edge="1" parent="1" source="auM15TJbj3UJ2ScAe3zU-107" target="auM15TJbj3UJ2ScAe3zU-80">
          <mxGeometry relative="1" as="geometry" />
        </mxCell>
        <mxCell id="auM15TJbj3UJ2ScAe3zU-301" style="edgeStyle=orthogonalEdgeStyle;rounded=0;orthogonalLoop=1;jettySize=auto;html=1;exitX=0;exitY=0.5;exitDx=0;exitDy=0;strokeColor=default;align=center;verticalAlign=middle;fontFamily=Helvetica;fontSize=11;fontColor=default;labelBackgroundColor=default;startArrow=none;startFill=0;endArrow=open;endFill=0;entryX=0.25;entryY=0;entryDx=0;entryDy=0;" edge="1" parent="1" source="auM15TJbj3UJ2ScAe3zU-107" target="auM15TJbj3UJ2ScAe3zU-28">
          <mxGeometry relative="1" as="geometry">
            <mxPoint x="1410" y="1230.8181818181818" as="targetPoint" />
            <Array as="points">
              <mxPoint x="1494" y="1877" />
              <mxPoint x="1494" y="1220" />
              <mxPoint x="1613" y="1220" />
            </Array>
          </mxGeometry>
        </mxCell>
        <mxCell id="auM15TJbj3UJ2ScAe3zU-107" value="&lt;p style=&quot;margin:0px;margin-top:4px;text-align:center;&quot;&gt;&lt;b&gt;BodyData&lt;/b&gt;&lt;/p&gt;&lt;hr size=&quot;1&quot;&gt;&lt;p style=&quot;margin:0px;margin-left:4px;&quot;&gt;+ bodyObjectType: String&lt;br&gt;+ textureID: Integer&lt;/p&gt;&lt;hr size=&quot;1&quot;&gt;&lt;p style=&quot;margin:0px;margin-left:4px;&quot;&gt;+ &amp;lt;&amp;lt;constructor&amp;gt;&amp;gt; BodyData&lt;/p&gt;&lt;p style=&quot;margin:0px;margin-left:4px;&quot;&gt;(bodyObjType:&amp;nbsp;&lt;span style=&quot;background-color: initial;&quot;&gt;String, texID: int)&lt;/span&gt;&lt;/p&gt;&lt;p style=&quot;margin:0px;margin-left:4px;&quot;&gt;&lt;span style=&quot;background-color: initial;&quot;&gt;+ getBodyObjectType(bod: Body): String&lt;/span&gt;&lt;/p&gt;&lt;p style=&quot;margin:0px;margin-left:4px;&quot;&gt;&lt;span style=&quot;background-color: initial;&quot;&gt;+ setBodyObjectType(bod: Body,&amp;nbsp;&lt;/span&gt;&lt;/p&gt;&lt;p style=&quot;margin:0px;margin-left:4px;&quot;&gt;&lt;span style=&quot;background-color: initial;&quot;&gt;bodObjType: String)&lt;/span&gt;&lt;/p&gt;&lt;p style=&quot;margin:0px;margin-left:4px;&quot;&gt;&lt;span style=&quot;background-color: initial;&quot;&gt;+ getTextureId(bod: Body): int&lt;/span&gt;&lt;/p&gt;" style="verticalAlign=top;align=left;overflow=fill;fontSize=12;fontFamily=Helvetica;html=1;rounded=0;shadow=0;comic=0;labelBackgroundColor=none;strokeWidth=1" vertex="1" parent="1">
          <mxGeometry x="1555" y="1811" width="227" height="164" as="geometry" />
        </mxCell>
        <mxCell id="auM15TJbj3UJ2ScAe3zU-108" value="" style="group" vertex="1" connectable="0" parent="1">
          <mxGeometry x="1580" y="2489" width="90" height="20.5" as="geometry" />
        </mxCell>
        <mxCell id="auM15TJbj3UJ2ScAe3zU-109" value="" style="endArrow=open;html=1;endSize=12;startArrow=diamondThin;startSize=14;startFill=1;edgeStyle=orthogonalEdgeStyle;align=left;verticalAlign=bottom;rounded=0;" edge="1" parent="auM15TJbj3UJ2ScAe3zU-108">
          <mxGeometry x="-1" y="3" relative="1" as="geometry">
            <mxPoint x="90" y="20.5" as="sourcePoint" />
            <mxPoint y="20.5" as="targetPoint" />
            <Array as="points">
              <mxPoint x="84.85714285714289" y="20.5" />
              <mxPoint x="84.85714285714289" y="20.5" />
            </Array>
            <mxPoint as="offset" />
          </mxGeometry>
        </mxCell>
        <mxCell id="auM15TJbj3UJ2ScAe3zU-110" value="1" style="edgeLabel;resizable=0;html=1;align=left;verticalAlign=top;" connectable="0" vertex="1" parent="auM15TJbj3UJ2ScAe3zU-108">
          <mxGeometry x="5.529887859580867" as="geometry" />
        </mxCell>
        <mxCell id="auM15TJbj3UJ2ScAe3zU-111" value="1" style="edgeLabel;resizable=0;html=1;align=left;verticalAlign=top;" connectable="0" vertex="1" parent="auM15TJbj3UJ2ScAe3zU-108">
          <mxGeometry x="66.99913213066816" as="geometry" />
        </mxCell>
        <mxCell id="auM15TJbj3UJ2ScAe3zU-112" value="" style="endArrow=open;endFill=1;endSize=12;html=1;rounded=0;" edge="1" parent="1">
          <mxGeometry width="160" relative="1" as="geometry">
            <mxPoint x="1297" y="2485" as="sourcePoint" />
            <mxPoint x="883" y="2485" as="targetPoint" />
          </mxGeometry>
        </mxCell>
        <mxCell id="auM15TJbj3UJ2ScAe3zU-113" value="" style="endArrow=none;html=1;rounded=0;" edge="1" parent="1">
          <mxGeometry width="50" height="50" relative="1" as="geometry">
            <mxPoint x="1297" y="2486" as="sourcePoint" />
            <mxPoint x="1297" y="2439" as="targetPoint" />
          </mxGeometry>
        </mxCell>
        <mxCell id="auM15TJbj3UJ2ScAe3zU-114" value="" style="endArrow=open;endFill=1;endSize=12;html=1;rounded=0;exitX=0;exitY=0.857;exitDx=0;exitDy=0;exitPerimeter=0;" edge="1" parent="1" source="auM15TJbj3UJ2ScAe3zU-106">
          <mxGeometry width="160" relative="1" as="geometry">
            <mxPoint x="1296" y="2515" as="sourcePoint" />
            <mxPoint x="882" y="2515" as="targetPoint" />
          </mxGeometry>
        </mxCell>
        <mxCell id="auM15TJbj3UJ2ScAe3zU-115" value="provides data of collided body" style="text;strokeColor=none;align=center;fillColor=none;html=1;verticalAlign=middle;whiteSpace=wrap;rounded=0;" vertex="1" parent="1">
          <mxGeometry x="1134" y="2492.5" width="171" height="25" as="geometry" />
        </mxCell>
        <mxCell id="auM15TJbj3UJ2ScAe3zU-116" value="" style="endArrow=none;html=1;rounded=0;" edge="1" parent="1">
          <mxGeometry width="50" height="50" relative="1" as="geometry">
            <mxPoint x="1026" y="2561" as="sourcePoint" />
            <mxPoint x="1026" y="2473" as="targetPoint" />
          </mxGeometry>
        </mxCell>
        <mxCell id="auM15TJbj3UJ2ScAe3zU-117" value="" style="endArrow=none;html=1;rounded=0;" edge="1" parent="1">
          <mxGeometry width="50" height="50" relative="1" as="geometry">
            <mxPoint x="291" y="2561" as="sourcePoint" />
            <mxPoint x="1026" y="2561" as="targetPoint" />
          </mxGeometry>
        </mxCell>
        <mxCell id="auM15TJbj3UJ2ScAe3zU-118" value="" style="endArrow=none;html=1;rounded=0;" edge="1" parent="1">
          <mxGeometry width="50" height="50" relative="1" as="geometry">
            <mxPoint x="291" y="2561" as="sourcePoint" />
            <mxPoint x="294" y="1508" as="targetPoint" />
          </mxGeometry>
        </mxCell>
        <mxCell id="auM15TJbj3UJ2ScAe3zU-126" value="«interface»&lt;br&gt;&lt;b&gt;Screen&lt;/b&gt;" style="html=1;whiteSpace=wrap;" vertex="1" parent="1">
          <mxGeometry x="3124" y="1503" width="94" height="50" as="geometry" />
        </mxCell>
        <mxCell id="auM15TJbj3UJ2ScAe3zU-141" value="" style="shape=waypoint;sketch=0;fillStyle=solid;size=6;pointerEvents=1;points=[];fillColor=none;resizable=0;rotatable=0;perimeter=centerPerimeter;snapToPoint=1;fontFamily=Helvetica;fontSize=11;fontColor=default;labelBackgroundColor=default;strokeColor=none;" vertex="1" parent="1">
          <mxGeometry x="3161" y="1608" width="20" height="20" as="geometry" />
        </mxCell>
        <mxCell id="auM15TJbj3UJ2ScAe3zU-160" style="edgeStyle=orthogonalEdgeStyle;rounded=0;orthogonalLoop=1;jettySize=auto;html=1;exitX=0.75;exitY=1;exitDx=0;exitDy=0;strokeColor=default;align=center;verticalAlign=middle;fontFamily=Helvetica;fontSize=11;fontColor=default;labelBackgroundColor=default;startArrow=diamondThin;startFill=1;endArrow=open;endFill=0;entryX=0.25;entryY=0;entryDx=0;entryDy=0;" edge="1" parent="1" source="auM15TJbj3UJ2ScAe3zU-43" target="auM15TJbj3UJ2ScAe3zU-188">
          <mxGeometry relative="1" as="geometry">
            <mxPoint x="3000.249999999999" y="1640.5" as="targetPoint" />
          </mxGeometry>
        </mxCell>
        <mxCell id="auM15TJbj3UJ2ScAe3zU-163" style="edgeStyle=orthogonalEdgeStyle;rounded=0;orthogonalLoop=1;jettySize=auto;html=1;exitX=0;exitY=0.75;exitDx=0;exitDy=0;strokeColor=default;align=center;verticalAlign=middle;fontFamily=Helvetica;fontSize=11;fontColor=default;labelBackgroundColor=default;startArrow=diamondThin;startFill=1;endArrow=open;endFill=0;entryX=0.25;entryY=0;entryDx=0;entryDy=0;" edge="1" parent="1" source="auM15TJbj3UJ2ScAe3zU-174" target="auM15TJbj3UJ2ScAe3zU-189">
          <mxGeometry relative="1" as="geometry">
            <mxPoint x="3242" y="1632" as="targetPoint" />
            <Array as="points">
              <mxPoint x="3043" y="1536" />
              <mxPoint x="3043" y="1596" />
              <mxPoint x="3245" y="1596" />
            </Array>
          </mxGeometry>
        </mxCell>
        <mxCell id="auM15TJbj3UJ2ScAe3zU-164" style="edgeStyle=orthogonalEdgeStyle;rounded=0;orthogonalLoop=1;jettySize=auto;html=1;exitX=0.25;exitY=1;exitDx=0;exitDy=0;strokeColor=default;align=center;verticalAlign=middle;fontFamily=Helvetica;fontSize=11;fontColor=default;labelBackgroundColor=default;startArrow=diamondThin;startFill=1;endArrow=open;endFill=0;entryX=0.75;entryY=0;entryDx=0;entryDy=0;" edge="1" parent="1" source="auM15TJbj3UJ2ScAe3zU-43" target="auM15TJbj3UJ2ScAe3zU-47">
          <mxGeometry relative="1" as="geometry">
            <mxPoint x="2748" y="1790" as="targetPoint" />
            <Array as="points">
              <mxPoint x="2802" y="1596" />
              <mxPoint x="2678" y="1596" />
            </Array>
          </mxGeometry>
        </mxCell>
        <mxCell id="auM15TJbj3UJ2ScAe3zU-166" value="1" style="text;strokeColor=none;align=center;fillColor=none;html=1;verticalAlign=middle;whiteSpace=wrap;rounded=0;fontFamily=Helvetica;fontSize=11;fontColor=default;labelBackgroundColor=default;" vertex="1" parent="1">
          <mxGeometry x="2728.5" y="1510" width="26" height="30" as="geometry" />
        </mxCell>
        <mxCell id="auM15TJbj3UJ2ScAe3zU-167" value="1" style="text;strokeColor=none;align=center;fillColor=none;html=1;verticalAlign=middle;whiteSpace=wrap;rounded=0;fontFamily=Helvetica;fontSize=11;fontColor=default;labelBackgroundColor=default;" vertex="1" parent="1">
          <mxGeometry x="2431" y="1617" width="26" height="30" as="geometry" />
        </mxCell>
        <mxCell id="auM15TJbj3UJ2ScAe3zU-168" value="1" style="text;strokeColor=none;align=center;fillColor=none;html=1;verticalAlign=middle;whiteSpace=wrap;rounded=0;fontFamily=Helvetica;fontSize=11;fontColor=default;labelBackgroundColor=default;" vertex="1" parent="1">
          <mxGeometry x="2653" y="1617" width="26" height="30" as="geometry" />
        </mxCell>
        <mxCell id="auM15TJbj3UJ2ScAe3zU-169" value="1" style="text;strokeColor=none;align=center;fillColor=none;html=1;verticalAlign=middle;whiteSpace=wrap;rounded=0;fontFamily=Helvetica;fontSize=11;fontColor=default;labelBackgroundColor=default;" vertex="1" parent="1">
          <mxGeometry x="2814" y="1617" width="26" height="30" as="geometry" />
        </mxCell>
        <mxCell id="auM15TJbj3UJ2ScAe3zU-170" value="1" style="text;strokeColor=none;align=center;fillColor=none;html=1;verticalAlign=middle;whiteSpace=wrap;rounded=0;fontFamily=Helvetica;fontSize=11;fontColor=default;labelBackgroundColor=default;" vertex="1" parent="1">
          <mxGeometry x="2996" y="1617" width="26" height="30" as="geometry" />
        </mxCell>
        <mxCell id="auM15TJbj3UJ2ScAe3zU-171" value="1" style="text;strokeColor=none;align=center;fillColor=none;html=1;verticalAlign=middle;whiteSpace=wrap;rounded=0;fontFamily=Helvetica;fontSize=11;fontColor=default;labelBackgroundColor=default;" vertex="1" parent="1">
          <mxGeometry x="3218" y="1620" width="26" height="30" as="geometry" />
        </mxCell>
        <mxCell id="auM15TJbj3UJ2ScAe3zU-174" value="1" style="text;strokeColor=none;align=center;fillColor=none;html=1;verticalAlign=middle;whiteSpace=wrap;rounded=0;fontFamily=Helvetica;fontSize=11;fontColor=default;labelBackgroundColor=default;" vertex="1" parent="1">
          <mxGeometry x="2945.5" y="1513" width="26" height="30" as="geometry" />
        </mxCell>
        <mxCell id="auM15TJbj3UJ2ScAe3zU-178" value="" style="group" vertex="1" connectable="0" parent="1">
          <mxGeometry x="2754.5" y="1121.4" width="191" height="431.5999999999999" as="geometry" />
        </mxCell>
        <mxCell id="auM15TJbj3UJ2ScAe3zU-43" value="&lt;p style=&quot;margin:0px;margin-top:4px;text-align:center;&quot;&gt;&lt;b&gt;ScreenManager&lt;/b&gt;&lt;/p&gt;&lt;hr size=&quot;1&quot;&gt;&lt;p style=&quot;margin:0px;margin-left:4px;&quot;&gt;+ assMan: GameAssetManager&lt;/p&gt;&lt;p style=&quot;margin: 0px 0px 0px 4px;&quot;&gt;- menuScreen: MenuScreen&lt;/p&gt;&lt;p style=&quot;margin: 0px 0px 0px 4px;&quot;&gt;- gameScreen: GameScreen&lt;/p&gt;&lt;p style=&quot;margin: 0px 0px 0px 4px;&quot;&gt;- helpScreen: HelpScreen&lt;/p&gt;&lt;p style=&quot;margin: 0px 0px 0px 4px;&quot;&gt;- scoreScreen: ScoreScreen&lt;/p&gt;&lt;p style=&quot;margin: 0px 0px 0px 4px;&quot;&gt;&lt;span style=&quot;background-color: initial;&quot;&gt;- endScreen: EndScreen&lt;/span&gt;&lt;/p&gt;&lt;p style=&quot;margin: 0px 0px 0px 4px;&quot;&gt;- bgMusic: Music&lt;span style=&quot;background-color: initial;&quot;&gt;&lt;br&gt;&lt;/span&gt;&lt;/p&gt;&lt;p style=&quot;margin: 0px 0px 0px 4px;&quot;&gt;- gmMusic: Music&lt;br&gt;&lt;/p&gt;&lt;p style=&quot;margin: 0px 0px 0px 4px;&quot;&gt;+ MENU: Integer&lt;br&gt;&lt;/p&gt;&lt;p style=&quot;margin: 0px 0px 0px 4px;&quot;&gt;+ PLAY: Integer&lt;br&gt;&lt;/p&gt;&lt;p style=&quot;margin: 0px 0px 0px 4px;&quot;&gt;+ HELP: Integer&lt;br&gt;&lt;/p&gt;&lt;p style=&quot;margin: 0px 0px 0px 4px;&quot;&gt;+ SCORE: Integer&lt;br&gt;&lt;/p&gt;&lt;p style=&quot;margin: 0px 0px 0px 4px;&quot;&gt;+ END: Integer&lt;br&gt;&lt;/p&gt;&lt;p style=&quot;margin: 0px 0px 0px 4px;&quot;&gt;+ backgroundTexture: Texture&lt;/p&gt;&lt;p style=&quot;margin: 0px 0px 0px 4px;&quot;&gt;+ viewportWidth: Integer&lt;/p&gt;&lt;p style=&quot;margin: 0px 0px 0px 4px;&quot;&gt;+ viewportHeight: Integer&lt;/p&gt;&lt;p style=&quot;margin: 0px 0px 0px 4px;&quot;&gt;+ finalScore: Integer&lt;/p&gt;&lt;hr size=&quot;1&quot;&gt;&lt;p style=&quot;margin:0px;margin-left:4px;&quot;&gt;+&amp;nbsp;&lt;span style=&quot;background-color: initial;&quot;&gt;create()&lt;/span&gt;&lt;/p&gt;&lt;p style=&quot;margin:0px;margin-left:4px;&quot;&gt;&lt;span style=&quot;background-color: initial;&quot;&gt;+ changeScreen(screen: int)&lt;/span&gt;&lt;/p&gt;&lt;p style=&quot;margin:0px;margin-left:4px;&quot;&gt;+ dispose()&lt;/p&gt;" style="verticalAlign=top;align=left;overflow=fill;fontSize=12;fontFamily=Helvetica;html=1;rounded=0;shadow=0;comic=0;labelBackgroundColor=none;strokeWidth=1" vertex="1" parent="auM15TJbj3UJ2ScAe3zU-178">
          <mxGeometry y="93.59999999999991" width="191" height="338" as="geometry" />
        </mxCell>
        <mxCell id="auM15TJbj3UJ2ScAe3zU-44" value="«interface»&lt;br&gt;&lt;b&gt;ApplicationListener&lt;/b&gt;" style="html=1;whiteSpace=wrap;" vertex="1" parent="auM15TJbj3UJ2ScAe3zU-178">
          <mxGeometry x="28" width="135" height="56" as="geometry" />
        </mxCell>
        <mxCell id="auM15TJbj3UJ2ScAe3zU-45" value="" style="endArrow=block;html=1;rounded=0;endFill=0;dashed=1;" edge="1" parent="auM15TJbj3UJ2ScAe3zU-178">
          <mxGeometry width="50" height="50" relative="1" as="geometry">
            <mxPoint x="95.23000000000002" y="93.59999999999991" as="sourcePoint" />
            <mxPoint x="95.5" y="57" as="targetPoint" />
          </mxGeometry>
        </mxCell>
        <mxCell id="auM15TJbj3UJ2ScAe3zU-180" style="edgeStyle=orthogonalEdgeStyle;rounded=0;orthogonalLoop=1;jettySize=auto;html=1;entryX=0.75;entryY=0;entryDx=0;entryDy=0;strokeColor=default;align=center;verticalAlign=middle;fontFamily=Helvetica;fontSize=11;fontColor=default;labelBackgroundColor=default;startArrow=diamondThin;startFill=1;endArrow=open;endFill=0;" edge="1" parent="1" source="auM15TJbj3UJ2ScAe3zU-43" target="auM15TJbj3UJ2ScAe3zU-46">
          <mxGeometry relative="1" as="geometry">
            <Array as="points">
              <mxPoint x="2628" y="1535" />
              <mxPoint x="2628" y="1594" />
              <mxPoint x="2455" y="1594" />
            </Array>
          </mxGeometry>
        </mxCell>
        <mxCell id="auM15TJbj3UJ2ScAe3zU-181" value="1" style="text;strokeColor=none;align=center;fillColor=none;html=1;verticalAlign=middle;whiteSpace=wrap;rounded=0;fontFamily=Helvetica;fontSize=11;fontColor=default;labelBackgroundColor=default;" vertex="1" parent="1">
          <mxGeometry x="2776" y="1548" width="26" height="30" as="geometry" />
        </mxCell>
        <mxCell id="auM15TJbj3UJ2ScAe3zU-182" value="1" style="text;strokeColor=none;align=center;fillColor=none;html=1;verticalAlign=middle;whiteSpace=wrap;rounded=0;fontFamily=Helvetica;fontSize=11;fontColor=default;labelBackgroundColor=default;" vertex="1" parent="1">
          <mxGeometry x="2824" y="1548" width="26" height="30" as="geometry" />
        </mxCell>
        <mxCell id="auM15TJbj3UJ2ScAe3zU-183" value="1" style="text;strokeColor=none;align=center;fillColor=none;html=1;verticalAlign=middle;whiteSpace=wrap;rounded=0;fontFamily=Helvetica;fontSize=11;fontColor=default;labelBackgroundColor=default;" vertex="1" parent="1">
          <mxGeometry x="2872" y="1548" width="26" height="30" as="geometry" />
        </mxCell>
        <mxCell id="auM15TJbj3UJ2ScAe3zU-185" style="edgeStyle=orthogonalEdgeStyle;rounded=0;orthogonalLoop=1;jettySize=auto;html=1;entryX=0;entryY=0.75;entryDx=0;entryDy=0;strokeColor=default;align=center;verticalAlign=middle;fontFamily=Helvetica;fontSize=11;fontColor=default;labelBackgroundColor=default;startArrow=none;startFill=0;endArrow=open;endFill=0;exitX=1.001;exitY=0.11;exitDx=0;exitDy=0;exitPerimeter=0;" edge="1" parent="1" source="auM15TJbj3UJ2ScAe3zU-184" target="auM15TJbj3UJ2ScAe3zU-43">
          <mxGeometry relative="1" as="geometry">
            <mxPoint x="2260" y="1342" as="sourcePoint" />
          </mxGeometry>
        </mxCell>
        <mxCell id="auM15TJbj3UJ2ScAe3zU-275" style="edgeStyle=orthogonalEdgeStyle;rounded=0;orthogonalLoop=1;jettySize=auto;html=1;exitX=0.344;exitY=1;exitDx=0;exitDy=0;entryX=0.5;entryY=0;entryDx=0;entryDy=0;strokeColor=default;align=center;verticalAlign=middle;fontFamily=Helvetica;fontSize=11;fontColor=default;labelBackgroundColor=default;startArrow=diamondThin;startFill=1;endArrow=open;endFill=0;exitPerimeter=0;" edge="1" parent="1" source="auM15TJbj3UJ2ScAe3zU-184" target="auM15TJbj3UJ2ScAe3zU-82">
          <mxGeometry relative="1" as="geometry">
            <Array as="points">
              <mxPoint x="2093" y="2038" />
            </Array>
          </mxGeometry>
        </mxCell>
        <mxCell id="auM15TJbj3UJ2ScAe3zU-285" style="edgeStyle=orthogonalEdgeStyle;rounded=0;orthogonalLoop=1;jettySize=auto;html=1;entryX=0.5;entryY=0;entryDx=0;entryDy=0;strokeColor=default;align=center;verticalAlign=middle;fontFamily=Helvetica;fontSize=11;fontColor=default;labelBackgroundColor=default;startArrow=none;startFill=0;endArrow=open;endFill=0;" edge="1" parent="1" source="auM15TJbj3UJ2ScAe3zU-284" target="auM15TJbj3UJ2ScAe3zU-27">
          <mxGeometry relative="1" as="geometry">
            <mxPoint x="1870" y="1251" as="sourcePoint" />
            <Array as="points" />
          </mxGeometry>
        </mxCell>
        <mxCell id="auM15TJbj3UJ2ScAe3zU-184" value="&lt;p style=&quot;margin:0px;margin-top:4px;text-align:center;&quot;&gt;&lt;b&gt;GameWorld&lt;/b&gt;&lt;/p&gt;&lt;hr size=&quot;1&quot;&gt;&lt;p style=&quot;margin:0px;margin-left:4px;&quot;&gt;- container: GameScreen&lt;/p&gt;&lt;p style=&quot;margin:0px;margin-left:4px;&quot;&gt;+ world: World&lt;/p&gt;&lt;p style=&quot;margin:0px;margin-left:4px;&quot;&gt;+ controller: KeyboardController&lt;/p&gt;&lt;p style=&quot;margin:0px;margin-left:4px;&quot;&gt;+ assMan: GameAssetManager&lt;/p&gt;&lt;p style=&quot;margin:0px;margin-left:4px;&quot;&gt;+ random: Random&lt;/p&gt;&lt;p style=&quot;margin:0px;margin-left:4px;&quot;&gt;+ player: Body&lt;/p&gt;&lt;p style=&quot;margin:0px;margin-left:4px;&quot;&gt;+ smallPlayer: Body&lt;br&gt;&lt;/p&gt;&lt;p style=&quot;margin:0px;margin-left:4px;&quot;&gt;+ regularPlayer: Body&lt;br&gt;&lt;/p&gt;&lt;p style=&quot;margin:0px;margin-left:4px;&quot;&gt;+ bigPlayer: Body&lt;/p&gt;&lt;p style=&quot;margin:0px;margin-left:4px;&quot;&gt;+ floor: Body&lt;/p&gt;&lt;p style=&quot;margin:0px;margin-left:4px;&quot;&gt;+ obstacles: Body[0..*]&lt;/p&gt;&lt;p style=&quot;margin:0px;margin-left:4px;&quot;&gt;+ buffs: Body[0..*]&lt;/p&gt;&lt;p style=&quot;margin:0px;margin-left:4px;&quot;&gt;+ debuffs: Body[0..*]&lt;/p&gt;&lt;p style=&quot;margin:0px;margin-left:4px;&quot;&gt;+ collideDeBuff: Body&lt;/p&gt;&lt;p style=&quot;margin:0px;margin-left:4px;&quot;&gt;+ collideObstacle: Body&lt;span style=&quot;white-space: pre;&quot;&gt;&#x9;&lt;/span&gt;&lt;/p&gt;&lt;p style=&quot;margin:0px;margin-left:4px;&quot;&gt;- floorClass: Floor&lt;/p&gt;&lt;p style=&quot;margin:0px;margin-left:4px;&quot;&gt;- playerClass: Player&lt;/p&gt;&lt;p style=&quot;margin:0px;margin-left:4px;&quot;&gt;+ obstacleClass: Obstacle&lt;/p&gt;&lt;p style=&quot;margin:0px;margin-left:4px;&quot;&gt;+ buffClass: Buff&lt;/p&gt;&lt;p style=&quot;margin:0px;margin-left:4px;&quot;&gt;+ debuffClass: Debuff&lt;/p&gt;&lt;p style=&quot;margin:0px;margin-left:4px;&quot;&gt;- spawnNTrackClass: SpawnNTrack&lt;/p&gt;&lt;p style=&quot;margin:0px;margin-left:4px;&quot;&gt;+ buffDebuffEffectsClass: BuffDebuffEffects&lt;/p&gt;&lt;p style=&quot;margin:0px;margin-left:4px;&quot;&gt;+ jumpControllerClass: JumpController&lt;/p&gt;&lt;p style=&quot;margin:0px;margin-left:4px;&quot;&gt;+ renderMinSpawnInterval: Long&lt;/p&gt;&lt;p style=&quot;margin:0px;margin-left:4px;&quot;&gt;+ obstacleSpawnInterval: Long&lt;br&gt;&lt;/p&gt;&lt;p style=&quot;margin:0px;margin-left:4px;&quot;&gt;+ buffDebuffSpawnInterval: Long&lt;br&gt;&lt;/p&gt;&lt;p style=&quot;margin:0px;margin-left:4px;&quot;&gt;+ obstacleTimestamp: Long&lt;/p&gt;&lt;p style=&quot;margin:0px;margin-left:4px;&quot;&gt;+ buffDebuffTimestamp: Long&lt;/p&gt;&lt;p style=&quot;margin:0px;margin-left:4px;&quot;&gt;+ isDead: Boolean&lt;/p&gt;&lt;p style=&quot;margin:0px;margin-left:4px;&quot;&gt;+ score: Integer&lt;/p&gt;&lt;p style=&quot;margin:0px;margin-left:4px;&quot;&gt;+ velocityIncrement: Integer&lt;/p&gt;&lt;p style=&quot;margin:0px;margin-left:4px;&quot;&gt;- highscore: Integer&lt;/p&gt;&lt;p style=&quot;margin:0px;margin-left:4px;&quot;&gt;+ renderPlayerScale: Float&lt;/p&gt;&lt;p style=&quot;margin:0px;margin-left:4px;&quot;&gt;+ renderSpeed: Float&amp;nbsp;&lt;/p&gt;&lt;p style=&quot;margin:0px;margin-left:4px;&quot;&gt;+ renderLowJump: Integer&lt;/p&gt;&lt;p style=&quot;margin:0px;margin-left:4px;&quot;&gt;+ renderNormalJump: Integer&lt;/p&gt;&lt;p style=&quot;margin:0px;margin-left:4px;&quot;&gt;+ renderHighJump: Integer&lt;br&gt;&lt;/p&gt;&lt;hr size=&quot;1&quot;&gt;&lt;p style=&quot;margin:0px;margin-left:4px;&quot;&gt;+ &amp;lt;&amp;lt;constructor&amp;gt;&amp;gt; GameWorld(cont:&amp;nbsp;&lt;/p&gt;&lt;p style=&quot;margin:0px;margin-left:4px;&quot;&gt;KeyboardController,&amp;nbsp;&lt;/p&gt;&lt;p style=&quot;margin:0px;margin-left:4px;&quot;&gt;&lt;span style=&quot;background-color: initial;&quot;&gt;assetMan: GameAssetManager,&lt;/span&gt;&lt;/p&gt;&lt;p style=&quot;margin:0px;margin-left:4px;&quot;&gt;&lt;span style=&quot;background-color: initial;&quot;&gt;gameScreen: GameScreen)&lt;/span&gt;&lt;/p&gt;&lt;p style=&quot;margin:0px;margin-left:4px;&quot;&gt;+ logicStep(delta: float)&lt;/p&gt;&lt;p style=&quot;margin:0px;margin-left:4px;&quot;&gt;- spawnLogic()&lt;br&gt;&lt;/p&gt;&lt;p style=&quot;margin:0px;margin-left:4px;&quot;&gt;- endGameLogic()&lt;/p&gt;&lt;p style=&quot;margin:0px;margin-left:4px;&quot;&gt;+ passThrough(bod: Body)&lt;/p&gt;&lt;p style=&quot;margin:0px;margin-left:4px;&quot;&gt;+ removeCollidedObstacle()&lt;/p&gt;&lt;p style=&quot;margin:0px;margin-left:4px;&quot;&gt;+ removeCollidedDeBuff()&lt;/p&gt;" style="verticalAlign=top;align=left;overflow=fill;fontSize=12;fontFamily=Helvetica;html=1;rounded=0;shadow=0;comic=0;labelBackgroundColor=none;strokeWidth=1" vertex="1" parent="1">
          <mxGeometry x="2009" y="1283" width="244" height="729" as="geometry" />
        </mxCell>
        <mxCell id="auM15TJbj3UJ2ScAe3zU-186" value="calls change screen method" style="text;strokeColor=none;align=center;fillColor=none;html=1;verticalAlign=middle;whiteSpace=wrap;rounded=0;fontFamily=Helvetica;fontSize=11;fontColor=default;labelBackgroundColor=default;" vertex="1" parent="1">
          <mxGeometry x="2319" y="1317" width="75" height="56" as="geometry" />
        </mxCell>
        <mxCell id="auM15TJbj3UJ2ScAe3zU-196" style="edgeStyle=orthogonalEdgeStyle;rounded=0;orthogonalLoop=1;jettySize=auto;html=1;exitDx=0;exitDy=0;dashed=1;strokeColor=default;align=center;verticalAlign=middle;fontFamily=Helvetica;fontSize=11;fontColor=default;labelBackgroundColor=default;startArrow=none;startFill=0;endArrow=none;endFill=0;" edge="1" parent="1" source="auM15TJbj3UJ2ScAe3zU-197" target="auM15TJbj3UJ2ScAe3zU-193">
          <mxGeometry relative="1" as="geometry">
            <Array as="points">
              <mxPoint x="2850" y="1618" />
            </Array>
          </mxGeometry>
        </mxCell>
        <mxCell id="auM15TJbj3UJ2ScAe3zU-262" style="edgeStyle=orthogonalEdgeStyle;rounded=0;orthogonalLoop=1;jettySize=auto;html=1;exitX=0.5;exitY=1;exitDx=0;exitDy=0;strokeColor=default;align=center;verticalAlign=middle;fontFamily=Helvetica;fontSize=11;fontColor=default;labelBackgroundColor=default;startArrow=open;startFill=0;endArrow=none;endFill=0;" edge="1" parent="1" source="auM15TJbj3UJ2ScAe3zU-187" target="auM15TJbj3UJ2ScAe3zU-260">
          <mxGeometry relative="1" as="geometry" />
        </mxCell>
        <mxCell id="auM15TJbj3UJ2ScAe3zU-187" value="&lt;p style=&quot;margin:0px;margin-top:4px;text-align:center;&quot;&gt;&lt;b&gt;HelpScreen&lt;/b&gt;&lt;/p&gt;&lt;hr size=&quot;1&quot;&gt;&lt;p style=&quot;margin: 0px 0px 0px 4px;&quot;&gt;- container:&amp;nbsp;&lt;span style=&quot;background-color: initial;&quot;&gt;ScreenManager&lt;/span&gt;&lt;/p&gt;&lt;p style=&quot;margin: 0px 0px 0px 4px;&quot;&gt;- stage: Stage&lt;/p&gt;&lt;p style=&quot;margin: 0px 0px 0px 4px;&quot;&gt;- skin: Skin&lt;/p&gt;&lt;p style=&quot;margin: 0px 0px 0px 4px;&quot;&gt;- backgroundImage: Image&lt;/p&gt;&lt;p style=&quot;margin: 0px 0px 0px 4px;&quot;&gt;- table: Table&lt;/p&gt;&lt;p style=&quot;margin: 0px 0px 0px 4px;&quot;&gt;- detailPage: Boolean&lt;/p&gt;&lt;hr size=&quot;1&quot;&gt;&lt;p style=&quot;margin:0px;margin-left:4px;&quot;&gt;+ &amp;lt;&amp;lt;constructor&amp;gt;&amp;gt; HelpScreen&lt;/p&gt;&lt;p style=&quot;margin:0px;margin-left:4px;&quot;&gt;(screenManager:&amp;nbsp;&lt;span style=&quot;background-color: initial;&quot;&gt;ScreenManager)&lt;/span&gt;&lt;/p&gt;&lt;p style=&quot;margin:0px;margin-left:4px;&quot;&gt;+ show()&lt;/p&gt;&lt;p style=&quot;margin: 0px 0px 0px 4px;&quot;&gt;+ render(delta: float)&lt;/p&gt;&lt;p style=&quot;margin: 0px 0px 0px 4px;&quot;&gt;+ resize(width: int, height: int)&lt;/p&gt;&lt;p style=&quot;margin: 0px 0px 0px 4px;&quot;&gt;+ pause()&lt;/p&gt;&lt;p style=&quot;margin: 0px 0px 0px 4px;&quot;&gt;+ resume()&lt;/p&gt;&lt;p style=&quot;margin: 0px 0px 0px 4px;&quot;&gt;+ hide()&lt;/p&gt;&lt;p style=&quot;margin: 0px 0px 0px 4px;&quot;&gt;+ dispose()&lt;/p&gt;" style="verticalAlign=top;align=left;overflow=fill;fontSize=12;fontFamily=Helvetica;html=1;rounded=0;shadow=0;comic=0;labelBackgroundColor=none;strokeWidth=1;imageWidth=24;" vertex="1" parent="1">
          <mxGeometry x="2748.5" y="1641" width="203" height="268" as="geometry" />
        </mxCell>
        <mxCell id="auM15TJbj3UJ2ScAe3zU-257" style="edgeStyle=orthogonalEdgeStyle;rounded=0;orthogonalLoop=1;jettySize=auto;html=1;exitX=0.5;exitY=1;exitDx=0;exitDy=0;strokeColor=default;align=center;verticalAlign=middle;fontFamily=Helvetica;fontSize=11;fontColor=default;labelBackgroundColor=default;startArrow=open;startFill=0;endArrow=none;endFill=0;" edge="1" parent="1" source="auM15TJbj3UJ2ScAe3zU-188" target="auM15TJbj3UJ2ScAe3zU-258">
          <mxGeometry relative="1" as="geometry">
            <mxPoint x="3072" y="1954" as="targetPoint" />
          </mxGeometry>
        </mxCell>
        <mxCell id="auM15TJbj3UJ2ScAe3zU-188" value="&lt;p style=&quot;margin:0px;margin-top:4px;text-align:center;&quot;&gt;&lt;b&gt;ScoreScreen&lt;/b&gt;&lt;/p&gt;&lt;hr size=&quot;1&quot;&gt;&lt;p style=&quot;margin: 0px 0px 0px 4px;&quot;&gt;- container:&amp;nbsp;&lt;span style=&quot;background-color: initial;&quot;&gt;ScreenManager&lt;/span&gt;&lt;/p&gt;&lt;p style=&quot;margin: 0px 0px 0px 4px;&quot;&gt;- stage: Stage&lt;/p&gt;&lt;p style=&quot;margin: 0px 0px 0px 4px;&quot;&gt;- skin: Skin&lt;/p&gt;&lt;p style=&quot;margin: 0px 0px 0px 4px;&quot;&gt;- backgroundImage: Image&lt;/p&gt;&lt;p style=&quot;margin: 0px 0px 0px 4px;&quot;&gt;- table: Table&lt;/p&gt;&lt;p style=&quot;margin: 0px 0px 0px 4px;&quot;&gt;- highScore: Integer&lt;/p&gt;&lt;hr size=&quot;1&quot;&gt;&lt;p style=&quot;margin:0px;margin-left:4px;&quot;&gt;+ &amp;lt;&amp;lt;constructor&amp;gt;&amp;gt; ScoreScreen&lt;/p&gt;&lt;p style=&quot;margin:0px;margin-left:4px;&quot;&gt;(screenManager:&amp;nbsp;&lt;span style=&quot;background-color: initial;&quot;&gt;ScreenManager)&lt;/span&gt;&lt;/p&gt;&lt;p style=&quot;margin:0px;margin-left:4px;&quot;&gt;+ show()&lt;/p&gt;&lt;p style=&quot;margin: 0px 0px 0px 4px;&quot;&gt;+ render(delta: float)&lt;/p&gt;&lt;p style=&quot;margin: 0px 0px 0px 4px;&quot;&gt;+ resize(width: int, height: int)&lt;/p&gt;&lt;p style=&quot;margin: 0px 0px 0px 4px;&quot;&gt;+ pause()&lt;/p&gt;&lt;p style=&quot;margin: 0px 0px 0px 4px;&quot;&gt;+ resume()&lt;/p&gt;&lt;p style=&quot;margin: 0px 0px 0px 4px;&quot;&gt;+ hide()&lt;/p&gt;&lt;p style=&quot;margin: 0px 0px 0px 4px;&quot;&gt;+ dispose()&lt;/p&gt;" style="verticalAlign=top;align=left;overflow=fill;fontSize=12;fontFamily=Helvetica;html=1;rounded=0;shadow=0;comic=0;labelBackgroundColor=none;strokeWidth=1" vertex="1" parent="1">
          <mxGeometry x="2971.5" y="1640.5" width="203" height="269" as="geometry" />
        </mxCell>
        <mxCell id="auM15TJbj3UJ2ScAe3zU-191" style="edgeStyle=orthogonalEdgeStyle;rounded=0;orthogonalLoop=1;jettySize=auto;html=1;exitX=0.5;exitY=0;exitDx=0;exitDy=0;strokeColor=default;align=center;verticalAlign=middle;fontFamily=Helvetica;fontSize=11;fontColor=default;labelBackgroundColor=default;startArrow=none;startFill=0;endArrow=none;endFill=0;dashed=1;" edge="1" parent="1" source="auM15TJbj3UJ2ScAe3zU-189" target="auM15TJbj3UJ2ScAe3zU-141">
          <mxGeometry relative="1" as="geometry">
            <mxPoint x="3218" y="1627" as="targetPoint" />
            <Array as="points">
              <mxPoint x="3296" y="1618" />
            </Array>
          </mxGeometry>
        </mxCell>
        <mxCell id="auM15TJbj3UJ2ScAe3zU-256" style="edgeStyle=orthogonalEdgeStyle;rounded=0;orthogonalLoop=1;jettySize=auto;html=1;exitDx=0;exitDy=0;entryX=0.5;entryY=0;entryDx=0;entryDy=0;strokeColor=default;align=center;verticalAlign=middle;fontFamily=Helvetica;fontSize=11;fontColor=default;labelBackgroundColor=default;startArrow=none;startFill=0;endArrow=none;endFill=0;" edge="1" parent="1" source="auM15TJbj3UJ2ScAe3zU-260" target="auM15TJbj3UJ2ScAe3zU-219">
          <mxGeometry relative="1" as="geometry">
            <Array as="points">
              <mxPoint x="2850" y="1979" />
            </Array>
          </mxGeometry>
        </mxCell>
        <mxCell id="auM15TJbj3UJ2ScAe3zU-189" value="&lt;p style=&quot;margin:0px;margin-top:4px;text-align:center;&quot;&gt;&lt;b&gt;EndScreen&lt;/b&gt;&lt;/p&gt;&lt;hr size=&quot;1&quot;&gt;&lt;p style=&quot;margin: 0px 0px 0px 4px;&quot;&gt;- container:&amp;nbsp;&lt;span style=&quot;background-color: initial;&quot;&gt;ScreenManager&lt;/span&gt;&lt;/p&gt;&lt;p style=&quot;margin: 0px 0px 0px 4px;&quot;&gt;- stage: Stage&lt;/p&gt;&lt;p style=&quot;margin: 0px 0px 0px 4px;&quot;&gt;- skin: Skin&lt;/p&gt;&lt;p style=&quot;margin: 0px 0px 0px 4px;&quot;&gt;- backgroundImage: Image&lt;/p&gt;&lt;p style=&quot;margin: 0px 0px 0px 4px;&quot;&gt;- table: Table&lt;/p&gt;&lt;p style=&quot;margin: 0px 0px 0px 4px;&quot;&gt;- highScore: Integer&lt;/p&gt;&lt;hr size=&quot;1&quot;&gt;&lt;p style=&quot;margin:0px;margin-left:4px;&quot;&gt;+ &amp;lt;&amp;lt;constructor&amp;gt;&amp;gt; EndScreen&lt;/p&gt;&lt;p style=&quot;margin:0px;margin-left:4px;&quot;&gt;(screenManager:&amp;nbsp;&lt;span style=&quot;background-color: initial;&quot;&gt;ScreenManager)&lt;/span&gt;&lt;/p&gt;&lt;p style=&quot;margin:0px;margin-left:4px;&quot;&gt;+ show()&lt;/p&gt;&lt;p style=&quot;margin: 0px 0px 0px 4px;&quot;&gt;+ render(delta: float)&lt;/p&gt;&lt;p style=&quot;margin: 0px 0px 0px 4px;&quot;&gt;+ resize(width: int, height: int)&lt;/p&gt;&lt;p style=&quot;margin: 0px 0px 0px 4px;&quot;&gt;+ pause()&lt;/p&gt;&lt;p style=&quot;margin: 0px 0px 0px 4px;&quot;&gt;+ resume()&lt;/p&gt;&lt;p style=&quot;margin: 0px 0px 0px 4px;&quot;&gt;+ hide()&lt;/p&gt;&lt;p style=&quot;margin: 0px 0px 0px 4px;&quot;&gt;+ dispose()&lt;/p&gt;" style="verticalAlign=top;align=left;overflow=fill;fontSize=12;fontFamily=Helvetica;html=1;rounded=0;shadow=0;comic=0;labelBackgroundColor=none;strokeWidth=1" vertex="1" parent="1">
          <mxGeometry x="3194" y="1642.5" width="203" height="267" as="geometry" />
        </mxCell>
        <mxCell id="auM15TJbj3UJ2ScAe3zU-192" style="edgeStyle=orthogonalEdgeStyle;rounded=0;orthogonalLoop=1;jettySize=auto;html=1;exitDx=0;exitDy=0;dashed=1;strokeColor=default;align=center;verticalAlign=middle;fontFamily=Helvetica;fontSize=11;fontColor=default;labelBackgroundColor=default;startArrow=none;startFill=0;endArrow=none;endFill=0;" edge="1" parent="1" source="auM15TJbj3UJ2ScAe3zU-193">
          <mxGeometry relative="1" as="geometry">
            <mxPoint x="3174" y="1618" as="targetPoint" />
            <Array as="points">
              <mxPoint x="3073" y="1618" />
            </Array>
          </mxGeometry>
        </mxCell>
        <mxCell id="auM15TJbj3UJ2ScAe3zU-194" value="" style="edgeStyle=orthogonalEdgeStyle;rounded=0;orthogonalLoop=1;jettySize=auto;html=1;exitX=0.5;exitY=0;exitDx=0;exitDy=0;dashed=1;strokeColor=default;align=center;verticalAlign=middle;fontFamily=Helvetica;fontSize=11;fontColor=default;labelBackgroundColor=default;startArrow=none;startFill=0;endArrow=none;endFill=0;" edge="1" parent="1" source="auM15TJbj3UJ2ScAe3zU-188" target="auM15TJbj3UJ2ScAe3zU-193">
          <mxGeometry relative="1" as="geometry">
            <mxPoint x="3073" y="1641" as="sourcePoint" />
            <mxPoint x="3174" y="1618" as="targetPoint" />
            <Array as="points" />
          </mxGeometry>
        </mxCell>
        <mxCell id="auM15TJbj3UJ2ScAe3zU-193" value="" style="shape=waypoint;sketch=0;fillStyle=solid;size=6;pointerEvents=1;points=[];fillColor=none;resizable=0;rotatable=0;perimeter=centerPerimeter;snapToPoint=1;fontFamily=Helvetica;fontSize=11;fontColor=default;labelBackgroundColor=default;strokeColor=none;" vertex="1" parent="1">
          <mxGeometry x="3063" y="1608" width="20" height="20" as="geometry" />
        </mxCell>
        <mxCell id="auM15TJbj3UJ2ScAe3zU-198" value="" style="edgeStyle=orthogonalEdgeStyle;rounded=0;orthogonalLoop=1;jettySize=auto;html=1;exitX=0.5;exitY=0;exitDx=0;exitDy=0;dashed=1;strokeColor=default;align=center;verticalAlign=middle;fontFamily=Helvetica;fontSize=11;fontColor=default;labelBackgroundColor=default;startArrow=none;startFill=0;endArrow=none;endFill=0;" edge="1" parent="1" source="auM15TJbj3UJ2ScAe3zU-187" target="auM15TJbj3UJ2ScAe3zU-197">
          <mxGeometry relative="1" as="geometry">
            <mxPoint x="2850" y="1641" as="sourcePoint" />
            <mxPoint x="3073" y="1618" as="targetPoint" />
            <Array as="points" />
          </mxGeometry>
        </mxCell>
        <mxCell id="auM15TJbj3UJ2ScAe3zU-197" value="" style="shape=waypoint;sketch=0;fillStyle=solid;size=6;pointerEvents=1;points=[];fillColor=none;resizable=0;rotatable=0;perimeter=centerPerimeter;snapToPoint=1;fontFamily=Helvetica;fontSize=11;fontColor=default;labelBackgroundColor=default;strokeColor=none;" vertex="1" parent="1">
          <mxGeometry x="2840" y="1608" width="20" height="20" as="geometry" />
        </mxCell>
        <mxCell id="auM15TJbj3UJ2ScAe3zU-201" value="" style="edgeStyle=orthogonalEdgeStyle;rounded=0;orthogonalLoop=1;jettySize=auto;html=1;exitX=0.5;exitY=0;exitDx=0;exitDy=0;dashed=1;strokeColor=default;align=center;verticalAlign=middle;fontFamily=Helvetica;fontSize=11;fontColor=default;labelBackgroundColor=default;startArrow=none;startFill=0;endArrow=none;endFill=0;" edge="1" parent="1" source="auM15TJbj3UJ2ScAe3zU-47" target="auM15TJbj3UJ2ScAe3zU-200">
          <mxGeometry relative="1" as="geometry">
            <mxPoint x="2627" y="1641" as="sourcePoint" />
            <mxPoint x="2850" y="1618" as="targetPoint" />
            <Array as="points">
              <mxPoint x="2627" y="1618" />
            </Array>
          </mxGeometry>
        </mxCell>
        <mxCell id="auM15TJbj3UJ2ScAe3zU-200" value="" style="shape=waypoint;sketch=0;fillStyle=solid;size=6;pointerEvents=1;points=[];fillColor=none;resizable=0;rotatable=0;perimeter=centerPerimeter;snapToPoint=1;fontFamily=Helvetica;fontSize=11;fontColor=default;labelBackgroundColor=default;strokeColor=none;" vertex="1" parent="1">
          <mxGeometry x="2617" y="1608" width="20" height="20" as="geometry" />
        </mxCell>
        <mxCell id="auM15TJbj3UJ2ScAe3zU-203" style="edgeStyle=orthogonalEdgeStyle;rounded=0;orthogonalLoop=1;jettySize=auto;html=1;exitX=0.5;exitY=1;exitDx=0;exitDy=0;strokeColor=default;align=center;verticalAlign=middle;fontFamily=Helvetica;fontSize=11;fontColor=default;labelBackgroundColor=default;startArrow=diamondThin;startFill=1;endArrow=open;endFill=0;" edge="1" parent="1" source="auM15TJbj3UJ2ScAe3zU-43">
          <mxGeometry relative="1" as="geometry">
            <mxPoint x="2838" y="1640" as="targetPoint" />
          </mxGeometry>
        </mxCell>
        <mxCell id="auM15TJbj3UJ2ScAe3zU-213" style="edgeStyle=orthogonalEdgeStyle;rounded=0;orthogonalLoop=1;jettySize=auto;html=1;exitX=0.25;exitY=1;exitDx=0;exitDy=0;strokeColor=default;align=center;verticalAlign=middle;fontFamily=Helvetica;fontSize=11;fontColor=default;labelBackgroundColor=default;startArrow=none;startFill=0;endArrow=open;endFill=0;" edge="1" parent="1" source="auM15TJbj3UJ2ScAe3zU-205">
          <mxGeometry relative="1" as="geometry">
            <mxPoint x="2506" y="2128" as="targetPoint" />
            <Array as="points">
              <mxPoint x="3233" y="2178" />
              <mxPoint x="2631" y="2178" />
              <mxPoint x="2631" y="2128" />
            </Array>
          </mxGeometry>
        </mxCell>
        <mxCell id="auM15TJbj3UJ2ScAe3zU-215" style="edgeStyle=orthogonalEdgeStyle;rounded=0;orthogonalLoop=1;jettySize=auto;html=1;exitX=0.75;exitY=1;exitDx=0;exitDy=0;entryX=0.893;entryY=1.001;entryDx=0;entryDy=0;strokeColor=default;align=center;verticalAlign=middle;fontFamily=Helvetica;fontSize=11;fontColor=default;labelBackgroundColor=default;startArrow=none;startFill=0;endArrow=open;endFill=0;entryPerimeter=0;" edge="1" parent="1" source="auM15TJbj3UJ2ScAe3zU-205" target="auM15TJbj3UJ2ScAe3zU-184">
          <mxGeometry relative="1" as="geometry">
            <Array as="points">
              <mxPoint x="3342" y="2195" />
              <mxPoint x="2227" y="2195" />
            </Array>
          </mxGeometry>
        </mxCell>
        <mxCell id="auM15TJbj3UJ2ScAe3zU-253" style="edgeStyle=orthogonalEdgeStyle;rounded=0;orthogonalLoop=1;jettySize=auto;html=1;exitX=0.75;exitY=0;exitDx=0;exitDy=0;entryX=0.75;entryY=1;entryDx=0;entryDy=0;strokeColor=default;align=center;verticalAlign=middle;fontFamily=Helvetica;fontSize=11;fontColor=default;labelBackgroundColor=default;startArrow=none;startFill=0;endArrow=open;endFill=0;" edge="1" parent="1" source="auM15TJbj3UJ2ScAe3zU-205" target="auM15TJbj3UJ2ScAe3zU-189">
          <mxGeometry relative="1" as="geometry" />
        </mxCell>
        <mxCell id="auM15TJbj3UJ2ScAe3zU-254" style="edgeStyle=orthogonalEdgeStyle;rounded=0;orthogonalLoop=1;jettySize=auto;html=1;exitX=0.25;exitY=0;exitDx=0;exitDy=0;entryX=0.75;entryY=1;entryDx=0;entryDy=0;strokeColor=default;align=center;verticalAlign=middle;fontFamily=Helvetica;fontSize=11;fontColor=default;labelBackgroundColor=default;startArrow=none;startFill=0;endArrow=open;endFill=0;" edge="1" parent="1" source="auM15TJbj3UJ2ScAe3zU-205" target="auM15TJbj3UJ2ScAe3zU-188">
          <mxGeometry relative="1" as="geometry">
            <Array as="points">
              <mxPoint x="3233" y="1949" />
              <mxPoint x="3124" y="1949" />
            </Array>
          </mxGeometry>
        </mxCell>
        <mxCell id="auM15TJbj3UJ2ScAe3zU-205" value="&lt;p style=&quot;margin:0px;margin-top:4px;text-align:center;&quot;&gt;&lt;b&gt;ScoreManager&lt;/b&gt;&lt;/p&gt;&lt;hr size=&quot;1&quot;&gt;&lt;p style=&quot;margin:0px;margin-left:4px;&quot;&gt;+ loadTextFile(): int&lt;/p&gt;&lt;p style=&quot;margin:0px;margin-left:4px;&quot;&gt;+ updateHighScore(newHighScore: int)&lt;/p&gt;" style="verticalAlign=top;align=left;overflow=fill;fontSize=12;fontFamily=Helvetica;html=1;rounded=0;shadow=0;comic=0;labelBackgroundColor=none;strokeWidth=1" vertex="1" parent="1">
          <mxGeometry x="3178" y="2010" width="219" height="66" as="geometry" />
        </mxCell>
        <mxCell id="auM15TJbj3UJ2ScAe3zU-206" value="Provides HighScore" style="text;strokeColor=none;align=center;fillColor=none;html=1;verticalAlign=middle;whiteSpace=wrap;rounded=0;" vertex="1" parent="1">
          <mxGeometry x="3278" y="1926.5" width="76" height="25" as="geometry" />
        </mxCell>
        <mxCell id="auM15TJbj3UJ2ScAe3zU-212" value="Provides HighScore" style="text;strokeColor=none;align=center;fillColor=none;html=1;verticalAlign=middle;whiteSpace=wrap;rounded=0;" vertex="1" parent="1">
          <mxGeometry x="3118" y="1919" width="76" height="25" as="geometry" />
        </mxCell>
        <mxCell id="auM15TJbj3UJ2ScAe3zU-214" value="Provides HighScore" style="text;strokeColor=none;align=center;fillColor=none;html=1;verticalAlign=middle;whiteSpace=wrap;rounded=0;" vertex="1" parent="1">
          <mxGeometry x="2529" y="2099" width="76" height="25" as="geometry" />
        </mxCell>
        <mxCell id="auM15TJbj3UJ2ScAe3zU-216" value="Updates HighScore" style="text;strokeColor=none;align=center;fillColor=none;html=1;verticalAlign=middle;whiteSpace=wrap;rounded=0;" vertex="1" parent="1">
          <mxGeometry x="3085" y="2220" width="76" height="25" as="geometry" />
        </mxCell>
        <mxCell id="auM15TJbj3UJ2ScAe3zU-266" style="edgeStyle=orthogonalEdgeStyle;rounded=0;orthogonalLoop=1;jettySize=auto;html=1;exitX=0;exitY=0.25;exitDx=0;exitDy=0;entryX=1.014;entryY=0.781;entryDx=0;entryDy=0;strokeColor=default;align=center;verticalAlign=middle;fontFamily=Helvetica;fontSize=11;fontColor=default;labelBackgroundColor=default;startArrow=none;startFill=0;endArrow=open;endFill=0;entryPerimeter=0;" edge="1" parent="1" source="auM15TJbj3UJ2ScAe3zU-219" target="auM15TJbj3UJ2ScAe3zU-46">
          <mxGeometry relative="1" as="geometry" />
        </mxCell>
        <mxCell id="auM15TJbj3UJ2ScAe3zU-276" style="edgeStyle=orthogonalEdgeStyle;rounded=0;orthogonalLoop=1;jettySize=auto;html=1;exitX=0.5;exitY=1;exitDx=0;exitDy=0;entryX=0.5;entryY=0;entryDx=0;entryDy=0;strokeColor=default;align=center;verticalAlign=middle;fontFamily=Helvetica;fontSize=11;fontColor=default;labelBackgroundColor=default;startArrow=diamondThin;startFill=1;endArrow=open;endFill=0;" edge="1" parent="1" source="auM15TJbj3UJ2ScAe3zU-219" target="auM15TJbj3UJ2ScAe3zU-268">
          <mxGeometry relative="1" as="geometry" />
        </mxCell>
        <mxCell id="auM15TJbj3UJ2ScAe3zU-219" value="&lt;p style=&quot;margin:0px;margin-top:4px;text-align:center;&quot;&gt;&lt;b&gt;GameAssetManager&lt;/b&gt;&lt;/p&gt;&lt;hr size=&quot;1&quot;&gt;&lt;p style=&quot;margin:0px;margin-left:4px;&quot;&gt;+ manager: AssetManager&lt;/p&gt;&lt;hr size=&quot;1&quot;&gt;&lt;p style=&quot;margin: 0px 0px 0px 4px;&quot;&gt;+ queueAddBackground()&lt;/p&gt;&lt;p style=&quot;margin:0px;margin-left:4px;&quot;&gt;&lt;span style=&quot;background-color: initial;&quot;&gt;+ queueAddImages()&lt;/span&gt;&lt;br&gt;&lt;/p&gt;&lt;p style=&quot;margin:0px;margin-left:4px;&quot;&gt;+ queueAddSounds()&lt;/p&gt;&lt;p style=&quot;margin:0px;margin-left:4px;&quot;&gt;+ queueAddMusic()&lt;/p&gt;&lt;p style=&quot;margin:0px;margin-left:4px;&quot;&gt;+ queueAddSkin()&lt;/p&gt;" style="verticalAlign=top;align=left;overflow=fill;fontSize=12;fontFamily=Helvetica;html=1;rounded=0;shadow=0;comic=0;labelBackgroundColor=none;strokeWidth=1" vertex="1" parent="1">
          <mxGeometry x="2764.5" y="2017" width="171" height="139" as="geometry" />
        </mxCell>
        <mxCell id="auM15TJbj3UJ2ScAe3zU-259" value="" style="edgeStyle=orthogonalEdgeStyle;rounded=0;orthogonalLoop=1;jettySize=auto;html=1;exitX=0.25;exitY=1;exitDx=0;exitDy=0;entryDx=0;entryDy=0;strokeColor=default;align=center;verticalAlign=middle;fontFamily=Helvetica;fontSize=11;fontColor=default;labelBackgroundColor=default;startArrow=open;startFill=0;endArrow=none;endFill=0;" edge="1" parent="1" source="auM15TJbj3UJ2ScAe3zU-189" target="auM15TJbj3UJ2ScAe3zU-258">
          <mxGeometry relative="1" as="geometry">
            <mxPoint x="3245" y="1910" as="sourcePoint" />
            <mxPoint x="2850" y="2000" as="targetPoint" />
            <Array as="points">
              <mxPoint x="3245" y="1979" />
            </Array>
          </mxGeometry>
        </mxCell>
        <mxCell id="auM15TJbj3UJ2ScAe3zU-258" value="" style="shape=waypoint;sketch=0;fillStyle=solid;size=6;pointerEvents=1;points=[];fillColor=none;resizable=0;rotatable=0;perimeter=centerPerimeter;snapToPoint=1;fontFamily=Helvetica;fontSize=11;fontColor=default;labelBackgroundColor=default;strokeColor=none;" vertex="1" parent="1">
          <mxGeometry x="3063" y="1969" width="20" height="20" as="geometry" />
        </mxCell>
        <mxCell id="auM15TJbj3UJ2ScAe3zU-261" value="" style="edgeStyle=orthogonalEdgeStyle;rounded=0;orthogonalLoop=1;jettySize=auto;html=1;exitDx=0;exitDy=0;entryDx=0;entryDy=0;strokeColor=default;align=center;verticalAlign=middle;fontFamily=Helvetica;fontSize=11;fontColor=default;labelBackgroundColor=default;startArrow=none;startFill=0;endArrow=none;endFill=0;" edge="1" parent="1" source="auM15TJbj3UJ2ScAe3zU-258" target="auM15TJbj3UJ2ScAe3zU-260">
          <mxGeometry relative="1" as="geometry">
            <mxPoint x="3073" y="1979" as="sourcePoint" />
            <mxPoint x="2850" y="2000" as="targetPoint" />
            <Array as="points" />
          </mxGeometry>
        </mxCell>
        <mxCell id="auM15TJbj3UJ2ScAe3zU-260" value="" style="shape=waypoint;sketch=0;fillStyle=solid;size=6;pointerEvents=1;points=[];fillColor=none;resizable=0;rotatable=0;perimeter=centerPerimeter;snapToPoint=1;fontFamily=Helvetica;fontSize=11;fontColor=default;labelBackgroundColor=default;strokeColor=none;" vertex="1" parent="1">
          <mxGeometry x="2840" y="1969" width="20" height="20" as="geometry" />
        </mxCell>
        <mxCell id="auM15TJbj3UJ2ScAe3zU-265" value="Loads Skin" style="text;strokeColor=none;align=center;fillColor=none;html=1;verticalAlign=middle;whiteSpace=wrap;rounded=0;" vertex="1" parent="1">
          <mxGeometry x="2850" y="1985" width="83" height="25" as="geometry" />
        </mxCell>
        <mxCell id="auM15TJbj3UJ2ScAe3zU-267" value="Loads Images" style="text;strokeColor=none;align=center;fillColor=none;html=1;verticalAlign=middle;whiteSpace=wrap;rounded=0;" vertex="1" parent="1">
          <mxGeometry x="2570" y="2027" width="83" height="25" as="geometry" />
        </mxCell>
        <mxCell id="auM15TJbj3UJ2ScAe3zU-268" value="&lt;p style=&quot;margin:0px;margin-top:4px;text-align:center;&quot;&gt;&lt;b&gt;SoundEffects&lt;/b&gt;&lt;/p&gt;&lt;hr size=&quot;1&quot;&gt;&lt;p style=&quot;margin:0px;margin-left:4px;&quot;&gt;- jump: Sound&lt;/p&gt;&lt;p style=&quot;margin:0px;margin-left:4px;&quot;&gt;- collect: Sound&lt;/p&gt;&lt;p style=&quot;margin:0px;margin-left:4px;&quot;&gt;+ JUMP_SOUND: Integer&lt;/p&gt;&lt;p style=&quot;margin:0px;margin-left:4px;&quot;&gt;+ COLLECT_SOUND: Integer&lt;/p&gt;&lt;hr size=&quot;1&quot;&gt;&lt;p style=&quot;margin: 0px 0px 0px 4px;&quot;&gt;+ &amp;lt;&amp;lt;constructor&amp;gt;&amp;gt; SoundEffect(&lt;/p&gt;&lt;p style=&quot;margin:0px;margin-left:4px;&quot;&gt;&lt;span style=&quot;background-color: initial;&quot;&gt;assetMan: GameAssetManager)&lt;/span&gt;&lt;/p&gt;&lt;p style=&quot;margin:0px;margin-left:4px;&quot;&gt;+ playSound(sound: int)&lt;/p&gt;" style="verticalAlign=top;align=left;overflow=fill;fontSize=12;fontFamily=Helvetica;html=1;rounded=0;shadow=0;comic=0;labelBackgroundColor=none;strokeWidth=1;direction=south;" vertex="1" parent="1">
          <mxGeometry x="2303" y="2206.5" width="189" height="151.5" as="geometry" />
        </mxCell>
        <mxCell id="auM15TJbj3UJ2ScAe3zU-270" value="" style="group" vertex="1" connectable="0" parent="1">
          <mxGeometry x="1994" y="2052.5" width="198" height="305" as="geometry" />
        </mxCell>
        <mxCell id="auM15TJbj3UJ2ScAe3zU-80" value="&lt;p style=&quot;margin:0px;margin-top:4px;text-align:center;&quot;&gt;&lt;b&gt;CollisionListener&lt;/b&gt;&lt;/p&gt;&lt;hr size=&quot;1&quot;&gt;&lt;p style=&quot;margin:0px;margin-left:4px;&quot;&gt;- container: GameWorld&lt;/p&gt;&lt;p style=&quot;margin:0px;margin-left:4px;&quot;&gt;- soundEffectClass: SoundEffect&lt;/p&gt;&lt;p style=&quot;margin:0px;margin-left:4px;&quot;&gt;- tempTextureId: Integer&lt;/p&gt;&lt;hr size=&quot;1&quot;&gt;&lt;p style=&quot;margin:0px;margin-left:4px;&quot;&gt;+ &amp;lt;&amp;lt;constructor&amp;gt;&amp;gt; CollisionListener&lt;/p&gt;&lt;p style=&quot;margin:0px;margin-left:4px;&quot;&gt;(parent:&amp;nbsp;&lt;span style=&quot;background-color: initial;&quot;&gt;GameWorld)&lt;/span&gt;&lt;/p&gt;&lt;p style=&quot;margin:0px;margin-left:4px;&quot;&gt;+ beginContact(contact: Contact)&lt;/p&gt;&lt;p style=&quot;margin:0px;margin-left:4px;&quot;&gt;+ endContact(contact: Contact)&lt;/p&gt;&lt;p style=&quot;margin:0px;margin-left:4px;&quot;&gt;+ preSolve(contact: Contact,&amp;nbsp;&lt;/p&gt;&lt;p style=&quot;margin:0px;margin-left:4px;&quot;&gt;oldManifold: Manifold)&lt;/p&gt;&lt;p style=&quot;margin:0px;margin-left:4px;&quot;&gt;+ postSolve(contact: Contact,&amp;nbsp;&lt;/p&gt;&lt;p style=&quot;margin:0px;margin-left:4px;&quot;&gt;impulse: ContactImpulse)&lt;/p&gt;" style="verticalAlign=top;align=left;overflow=fill;fontSize=12;fontFamily=Helvetica;html=1;rounded=0;shadow=0;comic=0;labelBackgroundColor=none;strokeWidth=1" vertex="1" parent="auM15TJbj3UJ2ScAe3zU-270">
          <mxGeometry y="97.8" width="198" height="207.2" as="geometry" />
        </mxCell>
        <mxCell id="auM15TJbj3UJ2ScAe3zU-82" value="«interface»&lt;br&gt;&lt;b&gt;ContactListener&lt;/b&gt;" style="html=1;whiteSpace=wrap;" vertex="1" parent="auM15TJbj3UJ2ScAe3zU-270">
          <mxGeometry x="21.814999999999827" width="154.375" height="61.12244897959184" as="geometry" />
        </mxCell>
        <mxCell id="auM15TJbj3UJ2ScAe3zU-83" value="" style="endArrow=block;html=1;rounded=0;endFill=0;dashed=1;" edge="1" parent="auM15TJbj3UJ2ScAe3zU-270">
          <mxGeometry width="50" height="50" relative="1" as="geometry">
            <mxPoint x="98.86000000000013" y="97.79591836734694" as="sourcePoint" />
            <mxPoint x="98.86000000000013" y="61.12244897959184" as="targetPoint" />
          </mxGeometry>
        </mxCell>
        <mxCell id="auM15TJbj3UJ2ScAe3zU-274" style="edgeStyle=orthogonalEdgeStyle;rounded=0;orthogonalLoop=1;jettySize=auto;html=1;exitX=1;exitY=0.75;exitDx=0;exitDy=0;entryX=0.25;entryY=1;entryDx=0;entryDy=0;strokeColor=default;align=center;verticalAlign=middle;fontFamily=Helvetica;fontSize=11;fontColor=default;labelBackgroundColor=default;startArrow=diamondThin;startFill=1;endArrow=open;endFill=0;" edge="1" parent="1" source="auM15TJbj3UJ2ScAe3zU-80" target="auM15TJbj3UJ2ScAe3zU-268">
          <mxGeometry relative="1" as="geometry" />
        </mxCell>
        <mxCell id="auM15TJbj3UJ2ScAe3zU-277" value="Loads Sounds" style="text;strokeColor=none;align=center;fillColor=none;html=1;verticalAlign=middle;whiteSpace=wrap;rounded=0;" vertex="1" parent="1">
          <mxGeometry x="2583" y="2259" width="83" height="25" as="geometry" />
        </mxCell>
        <mxCell id="auM15TJbj3UJ2ScAe3zU-278" style="edgeStyle=orthogonalEdgeStyle;rounded=0;orthogonalLoop=1;jettySize=auto;html=1;exitX=0.25;exitY=0;exitDx=0;exitDy=0;entryX=0.083;entryY=0.999;entryDx=0;entryDy=0;entryPerimeter=0;strokeColor=default;align=center;verticalAlign=middle;fontFamily=Helvetica;fontSize=11;fontColor=default;labelBackgroundColor=default;startArrow=none;startFill=0;endArrow=open;endFill=0;" edge="1" parent="1" source="auM15TJbj3UJ2ScAe3zU-219" target="auM15TJbj3UJ2ScAe3zU-43">
          <mxGeometry relative="1" as="geometry">
            <Array as="points">
              <mxPoint x="2807" y="1997" />
              <mxPoint x="2738" y="1997" />
              <mxPoint x="2738" y="1785" />
              <mxPoint x="2739" y="1785" />
              <mxPoint x="2739" y="1577" />
              <mxPoint x="2770" y="1577" />
            </Array>
          </mxGeometry>
        </mxCell>
        <mxCell id="auM15TJbj3UJ2ScAe3zU-279" value="Loads Music &amp;amp; Background" style="text;strokeColor=none;align=center;fillColor=none;html=1;verticalAlign=middle;whiteSpace=wrap;rounded=0;" vertex="1" parent="1">
          <mxGeometry x="2739" y="1929" width="83" height="30" as="geometry" />
        </mxCell>
        <mxCell id="auM15TJbj3UJ2ScAe3zU-286" value="" style="edgeStyle=orthogonalEdgeStyle;rounded=0;orthogonalLoop=1;jettySize=auto;html=1;exitDx=0;exitDy=0;entryDx=0;entryDy=0;strokeColor=default;align=center;verticalAlign=middle;fontFamily=Helvetica;fontSize=11;fontColor=default;labelBackgroundColor=default;startArrow=none;startFill=0;endArrow=none;endFill=0;" edge="1" parent="1" source="auM15TJbj3UJ2ScAe3zU-295" target="auM15TJbj3UJ2ScAe3zU-284">
          <mxGeometry relative="1" as="geometry">
            <mxPoint x="2070" y="1283" as="sourcePoint" />
            <mxPoint x="1870" y="1283" as="targetPoint" />
            <Array as="points" />
          </mxGeometry>
        </mxCell>
        <mxCell id="auM15TJbj3UJ2ScAe3zU-284" value="" style="shape=waypoint;sketch=0;fillStyle=solid;size=6;pointerEvents=1;points=[];fillColor=none;resizable=0;rotatable=0;perimeter=centerPerimeter;snapToPoint=1;fontFamily=Helvetica;fontSize=11;fontColor=default;labelBackgroundColor=default;strokeColor=none;" vertex="1" parent="1">
          <mxGeometry x="1860" y="1241" width="20" height="20" as="geometry" />
        </mxCell>
        <mxCell id="auM15TJbj3UJ2ScAe3zU-290" value="" style="shape=waypoint;sketch=0;fillStyle=solid;size=6;pointerEvents=1;points=[];fillColor=none;resizable=0;rotatable=0;perimeter=centerPerimeter;snapToPoint=1;fontFamily=Helvetica;fontSize=11;fontColor=default;labelBackgroundColor=default;strokeColor=none;" vertex="1" parent="1">
          <mxGeometry x="1748.5" y="1241" width="20" height="20" as="geometry" />
        </mxCell>
        <mxCell id="auM15TJbj3UJ2ScAe3zU-296" value="" style="edgeStyle=orthogonalEdgeStyle;rounded=0;orthogonalLoop=1;jettySize=auto;html=1;exitX=0.25;exitY=0;exitDx=0;exitDy=0;entryDx=0;entryDy=0;strokeColor=default;align=center;verticalAlign=middle;fontFamily=Helvetica;fontSize=11;fontColor=default;labelBackgroundColor=default;startArrow=diamondThin;startFill=1;endArrow=none;endFill=0;" edge="1" parent="1" source="auM15TJbj3UJ2ScAe3zU-184" target="auM15TJbj3UJ2ScAe3zU-295">
          <mxGeometry relative="1" as="geometry">
            <mxPoint x="2070" y="1283" as="sourcePoint" />
            <mxPoint x="1870" y="1251" as="targetPoint" />
            <Array as="points">
              <mxPoint x="2070" y="1251" />
            </Array>
          </mxGeometry>
        </mxCell>
        <mxCell id="auM15TJbj3UJ2ScAe3zU-295" value="" style="shape=waypoint;sketch=0;fillStyle=solid;size=6;pointerEvents=1;points=[];fillColor=none;resizable=0;rotatable=0;perimeter=centerPerimeter;snapToPoint=1;fontFamily=Helvetica;fontSize=11;fontColor=default;labelBackgroundColor=default;strokeColor=none;" vertex="1" parent="1">
          <mxGeometry x="1979" y="1241" width="20" height="20" as="geometry" />
        </mxCell>
        <mxCell id="auM15TJbj3UJ2ScAe3zU-297" style="edgeStyle=orthogonalEdgeStyle;rounded=0;orthogonalLoop=1;jettySize=auto;html=1;exitX=0.5;exitY=0;exitDx=0;exitDy=0;entryX=0.461;entryY=0.774;entryDx=0;entryDy=0;entryPerimeter=0;strokeColor=default;align=center;verticalAlign=middle;fontFamily=Helvetica;fontSize=11;fontColor=default;labelBackgroundColor=default;startArrow=open;startFill=0;endArrow=none;endFill=0;" edge="1" parent="1" source="auM15TJbj3UJ2ScAe3zU-24" target="auM15TJbj3UJ2ScAe3zU-295">
          <mxGeometry relative="1" as="geometry">
            <Array as="points">
              <mxPoint x="1879" y="1586" />
              <mxPoint x="1989" y="1586" />
            </Array>
          </mxGeometry>
        </mxCell>
        <mxCell id="auM15TJbj3UJ2ScAe3zU-298" value="" style="shape=waypoint;sketch=0;fillStyle=solid;size=6;pointerEvents=1;points=[];fillColor=none;resizable=0;rotatable=0;perimeter=centerPerimeter;snapToPoint=1;fontFamily=Helvetica;fontSize=11;fontColor=default;labelBackgroundColor=default;strokeColor=none;" vertex="1" parent="1">
          <mxGeometry x="1869" y="1578" width="20" height="20" as="geometry" />
        </mxCell>
        <mxCell id="auM15TJbj3UJ2ScAe3zU-302" value="" style="shape=waypoint;sketch=0;fillStyle=solid;size=6;pointerEvents=1;points=[];fillColor=none;resizable=0;rotatable=0;perimeter=centerPerimeter;snapToPoint=1;fontFamily=Helvetica;fontSize=11;fontColor=default;labelBackgroundColor=default;strokeColor=none;" vertex="1" parent="1">
          <mxGeometry x="1602" y="1210" width="20" height="20" as="geometry" />
        </mxCell>
        <mxCell id="auM15TJbj3UJ2ScAe3zU-304" style="edgeStyle=orthogonalEdgeStyle;rounded=0;orthogonalLoop=1;jettySize=auto;html=1;exitX=0.25;exitY=0;exitDx=0;exitDy=0;entryX=0.646;entryY=0.614;entryDx=0;entryDy=0;entryPerimeter=0;strokeColor=default;align=center;verticalAlign=middle;fontFamily=Helvetica;fontSize=11;fontColor=default;labelBackgroundColor=default;startArrow=open;startFill=0;endArrow=none;endFill=0;" edge="1" parent="1" source="auM15TJbj3UJ2ScAe3zU-27" target="auM15TJbj3UJ2ScAe3zU-302">
          <mxGeometry relative="1" as="geometry">
            <Array as="points">
              <mxPoint x="1820" y="1220" />
            </Array>
          </mxGeometry>
        </mxCell>
      </root>
    </mxGraphModel>
  </diagram>
</mxfile>
